<svg xmlns="http://www.w3.org/2000/svg" width="120" height="120" viewBox="0 0 120 120">
    <g fill="none" fill-rule="evenodd" stroke="#74A3C7" stroke-linecap="round" stroke-linejoin="round" stroke-width="2">
        <path d="M119 60c0 16.322-5.803 30.187-17.405 41.595C90.09 113.197 76.225 119 60 119c-16.322 0-30.238-5.803-41.742-17.405C6.752 90.187 1 76.322 1 60s5.753-30.238 17.258-41.742C29.763 6.752 43.678 1 60 1c16.225 0 30.09 5.753 41.595 17.258C113.197 29.763 119 43.678 119 60z"/>
        <path d="M72.98 60H60V36.4M84.338 60h-3.54 3.54zM39.203 60h-3.54 3.54z"/>
        <path d="M93.04 60c0 9.145-3.295 16.912-9.883 23.305-6.392 6.49-14.11 9.735-23.157 9.735-9.145 0-17.013-3.245-23.6-9.735-6.393-6.393-9.587-14.16-9.587-23.305s3.194-16.962 9.587-23.453c6.587-6.49 14.455-9.734 23.6-9.734 9.048 0 16.765 3.245 23.157 9.735C89.745 43.038 93.04 50.855 93.04 60zM60 80.945v3.393-3.393z"/>
    </g>
</svg>
