<svg id="Layer_1" data-name="Layer 1" xmlns="http://www.w3.org/2000/svg" viewBox="0 0 215 215"><defs><style>.cls-1{fill:gray;}</style></defs><path class="cls-1" d="M203.87,96.41h-21.1a32.12,32.12,0,0,0-60.14,0h-112a10.87,10.87,0,0,0,0,21.73H122.31a32.2,32.2,0,0,0,60.9,0h20.66a10.73,10.73,0,0,0,10.86-10.87A10.86,10.86,0,0,0,203.87,96.41Zm-51.15,22.18A10.69,10.69,0,0,1,142,109.5a11.53,11.53,0,0,0,.3-2.23,11.29,11.29,0,0,0-.18-1.94,10.85,10.85,0,0,1,21.31.69,10.36,10.36,0,0,0-.08,1.25,10.81,10.81,0,0,0,.15,1.73A10.7,10.7,0,0,1,152.72,118.59Z"/><path class="cls-1" d="M10.59,43h47.1a32.23,32.23,0,0,0,60.79,0h85.39a10.72,10.72,0,0,0,10.86-10.86,10.87,10.87,0,0,0-10.86-10.87H118.45A32.3,32.3,0,0,0,88.22,0,32.72,32.72,0,0,0,57.86,21.27H10.59a10.87,10.87,0,0,0,0,21.73ZM88.22,21.5A10.87,10.87,0,0,1,99,30.74a10.74,10.74,0,0,0-.09,1.4,10.47,10.47,0,0,0,.13,1.6,10.88,10.88,0,0,1-10.77,9.49,10.69,10.69,0,0,1-10.67-8.79,10.26,10.26,0,0,0,.26-2.3,11.05,11.05,0,0,0-.21-2.09A10.89,10.89,0,0,1,88.22,21.5Z"/><path class="cls-1" d="M203.87,172H75.64A32.25,32.25,0,0,0,15,172h-4.4A10.54,10.54,0,0,0-.27,182.64,10.86,10.86,0,0,0,10.59,193.5h4.3A32.09,32.09,0,0,0,45.22,215a32.42,32.42,0,0,0,30.53-21.5H203.87a10.54,10.54,0,0,0,10.86-10.64A10.86,10.86,0,0,0,203.87,172ZM45.22,193.73a10.62,10.62,0,0,1-10.53-9.38,10.33,10.33,0,0,0,.12-1.49,10.59,10.59,0,0,0-.12-1.5A10.62,10.62,0,0,1,45.22,172a10.87,10.87,0,0,1,0,21.73Z"/></svg>