<svg id="Layer_1" data-name="Layer 1" xmlns="http://www.w3.org/2000/svg" viewBox="0 0 237.31 41.96">
    <defs>
        <style>
            .cls-1{fill:#428bca;}.cls-2,.cls-4{fill:#fff;}.cls-2,.cls-3{stroke:#fff;stroke-linecap:round;stroke-linejoin:round;stroke-width:0.25px;}.cls-3{fill:none;}.cls-4{font-size:14px;font-family:Verdana;letter-spacing:0.04em;}.cls-5{letter-spacing:0.07em;}.cls-6{letter-spacing:0.05em;}.cls-7{letter-spacing:0.02em;}.cls-8{letter-spacing:0.03em;}.cls-9{letter-spacing:0.02em;}.cls-10{letter-spacing:0.05em;}.cls-11{letter-spacing:0.03em;}.cls-12{letter-spacing:0.04em;}.cls-13{letter-spacing:-0.03em;}.cls-14{letter-spacing:0.04em;}.cls-15{letter-spacing:0.05em;}.cls-16{letter-spacing:0.03em;}
        </style>
    </defs>
    <title>shut up and give me money</title>
    <rect class="cls-1" width="237.31" height="41.96" rx="2"/>
    <path class="cls-2"
          d="M12.8,23.27l-.25-.06a2.8,2.8,0,0,0,2.83-2.38,2.8,2.8,0,0,0-1.57-3.35l.25.05a2.94,2.94,0,1,1-1.26,5.74Z"/>
    <path class="cls-3"
          d="M12.55,23.21a2.94,2.94,0,0,1-2-3.16c0-.09,0-.18.05-.28a2.68,2.68,0,0,1,.07-.27c0-.05,0-.09,0-.13a3,3,0,0,1,3.14-1.89,2.8,2.8,0,0,1,1.57,3.35A2.8,2.8,0,0,1,12.55,23.21Z"/>
    <path class="cls-2"
          d="M20.87,23.37a1.83,1.83,0,0,1-.25-.06,2.79,2.79,0,0,0,2.82-2.38,2.79,2.79,0,0,0-1.57-3.35l.26.05a2.94,2.94,0,1,1-1.26,5.74Z"/>
    <path class="cls-3"
          d="M20.62,23.31a3,3,0,0,1-2.05-3.16c0-.09,0-.18.05-.28a2.76,2.76,0,0,1,.08-.27.5.5,0,0,1,0-.13,3,3,0,0,1,3.13-1.89,2.79,2.79,0,0,1,1.57,3.35A2.79,2.79,0,0,1,20.62,23.31Z"/>
    <path class="cls-2"
          d="M28.93,23.47l-.25-.06A2.8,2.8,0,0,0,31.51,21a2.8,2.8,0,0,0-1.57-3.35l.25.05a2.94,2.94,0,1,1-1.26,5.74Z"/>
    <path class="cls-3"
          d="M28.68,23.41a3,3,0,0,1-2-3.16c0-.09,0-.18.05-.28s0-.18.07-.28,0-.08,0-.12a3,3,0,0,1,3.14-1.89A2.8,2.8,0,0,1,31.51,21,2.8,2.8,0,0,1,28.68,23.41Z"/>
    <path class="cls-2"
          d="M37,23.57l-.25-.06a2.79,2.79,0,0,0,2.82-2.38A2.79,2.79,0,0,0,38,17.78l.26,0A2.94,2.94,0,0,1,37,23.57Z"/>
    <path class="cls-3"
          d="M36.75,23.51a3,3,0,0,1-2-3.16c0-.09,0-.19,0-.28s0-.19.08-.28a.56.56,0,0,1,0-.12A2.94,2.94,0,0,1,38,17.78a2.79,2.79,0,0,1,1.57,3.35A2.79,2.79,0,0,1,36.75,23.51Z"/>
    <path class="cls-2"
          d="M45.06,23.67l-.25-.06a2.8,2.8,0,0,0,2.83-2.39,2.79,2.79,0,0,0-1.57-3.34l.25.05a2.94,2.94,0,1,1-1.26,5.74Z"/>
    <path class="cls-3"
          d="M44.81,23.61a3,3,0,0,1-2-3.16,2.74,2.74,0,0,1,0-.28,2.86,2.86,0,0,1,.07-.28.56.56,0,0,0,0-.12,3,3,0,0,1,3.14-1.89,2.79,2.79,0,0,1,1.57,3.34A2.8,2.8,0,0,1,44.81,23.61Z"/>
    <path class="cls-2"
          d="M37,32.53l-.25-.06a2.79,2.79,0,0,0,2.82-2.38A2.79,2.79,0,0,0,38,26.74l.26.05A2.94,2.94,0,0,1,37,32.53Z"/>
    <path class="cls-3"
          d="M36.75,32.47a3,3,0,0,1-2-3.16c0-.09,0-.19,0-.28s0-.19.08-.28a.56.56,0,0,1,0-.12A2.94,2.94,0,0,1,38,26.74a2.79,2.79,0,0,1,1.57,3.35A2.79,2.79,0,0,1,36.75,32.47Z"/>
    <path class="cls-2"
          d="M36.54,14.82l-.25-.07a2.78,2.78,0,0,0,2.82-2.38A2.77,2.77,0,0,0,37.54,9l.26,0a2.94,2.94,0,0,1-1.26,5.75Z"/>
    <path class="cls-3"
          d="M36.29,14.75a2.93,2.93,0,0,1-2-3.15,1.47,1.47,0,0,1,0-.29,2.68,2.68,0,0,1,.07-.27l0-.13A2.94,2.94,0,0,1,37.54,9a2.77,2.77,0,0,1,1.57,3.34A2.78,2.78,0,0,1,36.29,14.75Z"/>
    <text class="cls-4" transform="translate(60.58 25.78)">А
        <tspan class="cls-5" x="10.11" y="0">К</tspan>
        <tspan class="cls-6" x="20.77" y="0">Т</tspan>
        <tspan class="cls-7" x="30.05" y="0">И</tspan>
        <tspan class="cls-8" x="40.86" y="0">В</tspan>
        <tspan class="cls-9" x="50.86" y="0">И</tspan>
        <tspan class="cls-10" x="61.67" y="0">Р</tspan>
        <tspan class="cls-11" x="70.78" y="0">О</tspan>
        <tspan class="cls-12" x="82.18" y="0">В</tspan>
        <tspan class="cls-13" x="92.33" y="0">А</tspan>
        <tspan class="cls-6" x="101.53" y="0">Т</tspan>
        <tspan class="cls-14" x="110.81" y="0">Ь</tspan>
        <tspan class="cls-15" x="126.38" y="0">У</tspan>
        <tspan class="cls-10" x="135.62" y="0">Р</tspan>
        <tspan class="cls-16" x="144.74" y="0">О</tspan>
        <tspan class="cls-14" x="156.11" y="0">К</tspan>
    </text>
</svg>