<svg id="Layer_1" data-name="Layer 1" xmlns="http://www.w3.org/2000/svg" viewBox="0 0 237.31 41.96">
    <defs>
        <style>
            .cls-1{fill:#6bb76d;}.cls-2,.cls-3{fill:#fff;}.cls-2{stroke:#fff;stroke-linecap:round;stroke-linejoin:round;stroke-width:0.25px;}.cls-3{font-size:14px;font-family:Verdana;letter-spacing:0.05em;}.cls-4{letter-spacing:0.05em;}.cls-5{letter-spacing:0.03em;}.cls-6{letter-spacing:0.04em;}.cls-7{letter-spacing:0.04em;}.cls-8{letter-spacing:0.07em;}.cls-9{letter-spacing:0.05em;}.cls-10{letter-spacing:0.02em;}.cls-11{letter-spacing:0.03em;}.cls-12{letter-spacing:0.05em;}.cls-13{letter-spacing:0.03em;}.cls-14{letter-spacing:0.04em;}
        </style>
    </defs>
    <title>tram</title>
    <rect class="cls-1" width="237.31" height="41.96" rx="2"/>
    <path class="cls-2"
          d="M13.31,23.62a1.83,1.83,0,0,1-.25-.06,2.79,2.79,0,0,0,2.82-2.38,2.79,2.79,0,0,0-1.57-3.35l.26.05a2.94,2.94,0,0,1-1.26,5.74Z"/>
    <path class="cls-2"
          d="M13.06,23.56A3,3,0,0,1,11,20.4c0-.09,0-.18.05-.28a2.76,2.76,0,0,1,.08-.27.5.5,0,0,1,0-.13,3,3,0,0,1,3.13-1.89,2.79,2.79,0,0,1,1.57,3.35A2.79,2.79,0,0,1,13.06,23.56Z"/>
    <path class="cls-2"
          d="M21.37,23.72l-.25-.06A2.8,2.8,0,0,0,24,21.28a2.8,2.8,0,0,0-1.57-3.35l.25.05a2.94,2.94,0,1,1-1.26,5.74Z"/>
    <path class="cls-2"
          d="M21.12,23.66a3,3,0,0,1-2-3.16c0-.09,0-.18.05-.28s0-.18.07-.28a.56.56,0,0,0,0-.12,3,3,0,0,1,3.14-1.89A2.8,2.8,0,0,1,24,21.28,2.8,2.8,0,0,1,21.12,23.66Z"/>
    <path class="cls-2"
          d="M29.44,23.82l-.25-.06A2.79,2.79,0,0,0,32,21.38,2.79,2.79,0,0,0,30.44,18l.26,0a2.94,2.94,0,0,1-1.26,5.74Z"/>
    <path class="cls-2"
          d="M29.19,23.76a3,3,0,0,1-2.05-3.16c0-.09,0-.19.05-.28s0-.19.08-.28a.56.56,0,0,1,0-.12A2.94,2.94,0,0,1,30.44,18,2.79,2.79,0,0,1,32,21.38,2.79,2.79,0,0,1,29.19,23.76Z"/>
    <path class="cls-2"
          d="M37.5,23.92l-.25-.06a2.8,2.8,0,0,0,2.83-2.39,2.79,2.79,0,0,0-1.57-3.34l.25.05a2.94,2.94,0,1,1-1.26,5.74Z"/>
    <path class="cls-2"
          d="M37.25,23.86a3,3,0,0,1-2-3.16,2.74,2.74,0,0,1,0-.28,2.86,2.86,0,0,1,.07-.28.56.56,0,0,0,0-.12,3,3,0,0,1,3.14-1.89,2.79,2.79,0,0,1,1.57,3.34A2.8,2.8,0,0,1,37.25,23.86Z"/>
    <path class="cls-2"
          d="M45.57,24,45.32,24a2.77,2.77,0,0,0,2.82-2.38,2.78,2.78,0,0,0-1.57-3.34l.26,0A2.94,2.94,0,0,1,45.57,24Z"/>
    <path class="cls-2"
          d="M45.32,24a2.93,2.93,0,0,1-2-3.15,2.7,2.7,0,0,1,0-.28c0-.09,0-.19.08-.28a.56.56,0,0,1,0-.12,2.94,2.94,0,0,1,3.13-1.89,2.78,2.78,0,0,1,1.57,3.34A2.77,2.77,0,0,1,45.32,24Z"/>
    <path class="cls-2"
          d="M37.5,32.88l-.25-.06a2.8,2.8,0,0,0,2.83-2.39,2.79,2.79,0,0,0-1.57-3.34l.25,0a2.94,2.94,0,1,1-1.26,5.75Z"/>
    <path class="cls-2"
          d="M37.25,32.82a3,3,0,0,1-2-3.16,2.74,2.74,0,0,1,0-.28,2.86,2.86,0,0,1,.07-.28.56.56,0,0,0,0-.12,3,3,0,0,1,3.14-1.89,2.79,2.79,0,0,1,1.57,3.34A2.8,2.8,0,0,1,37.25,32.82Z"/>
    <path class="cls-2"
          d="M37.05,15.17l-.25-.07a2.79,2.79,0,0,0,2.82-2.38,2.78,2.78,0,0,0-1.57-3.34l.25,0a2.94,2.94,0,0,1-1.25,5.75Z"/>
    <path class="cls-2"
          d="M36.8,15.1a2.93,2.93,0,0,1-2-3.44c0-.09.05-.18.07-.27s0-.09.05-.13a2.93,2.93,0,0,1,3.13-1.88,2.78,2.78,0,0,1,1.57,3.34A2.79,2.79,0,0,1,36.8,15.1Z"/>
    <text class="cls-3" transform="translate(64.58 25.92)">У
        <tspan class="cls-4" x="9.24" y="0">Р</tspan>
        <tspan class="cls-5" x="18.36" y="0">О</tspan>
        <tspan class="cls-6" x="29.73" y="0">К</tspan>
        <tspan class="cls-7" x="45.47" y="0">А</tspan>
        <tspan class="cls-8" x="55.58" y="0">К</tspan>
        <tspan class="cls-9" x="66.24" y="0">Т</tspan>
        <tspan class="cls-10" x="75.52" y="0">И</tspan>
        <tspan class="cls-11" x="86.33" y="0">В</tspan>
        <tspan class="cls-10" x="96.33" y="0">И</tspan>
        <tspan class="cls-12" x="107.14" y="0">Р</tspan>
        <tspan class="cls-13" x="116.25" y="0">О</tspan>
        <tspan class="cls-14" x="127.65" y="0">В</tspan>
        <tspan class="cls-6" x="137.8" y="0">АН</tspan>
    </text>
</svg>