<svg id="Layer_1" class="new-svg-button" xmlns="http://www.w3.org/2000/svg"
     viewBox="0 0 228.77 42.96">
    <defs>
        <style>
            .cls-1{fill:#fff;stroke:#808285;stroke-miterlimit:10;stroke-width:0.49px;}.cls-2{font-size:11px;fill:#515151;font-family:Verdana;}.cls-3{letter-spacing:-0.02em;}.cls-4{letter-spacing:0em;}.cls-5{letter-spacing:-0.03em;}.cls-6{letter-spacing:0.02em;}.cls-7{letter-spacing:0em;}.cls-8{letter-spacing:0.02em;}.cls-9{letter-spacing:0em;}.cls-10{letter-spacing:0.03em;}.cls-11{letter-spacing:0.01em;}.cls-12{letter-spacing:0.02em;}.cls-13{letter-spacing:0em;}.cls-14{letter-spacing:0em;}.cls-15{letter-spacing:0.01em;}.cls-16{letter-spacing:-0.03em;}.cls-17{letter-spacing:0.01em;}.cls-18{letter-spacing:0.01em;}.cls-19{letter-spacing:0.04em;}.cls-20{letter-spacing:0.01em;}.cls-21{letter-spacing:0.01em;}.cls-22{letter-spacing:0em;}.cls-23{letter-spacing:0.01em;}.cls-24{letter-spacing:0em;}.cls-25{letter-spacing:0em;}.cls-26{letter-spacing:0em;}.cls-27{letter-spacing:0em;}.cls-28{letter-spacing:-0.01em;}.cls-29{letter-spacing:-0.01em;}.cls-30{letter-spacing:-0.01em;}.cls-31{letter-spacing:0.01em;}.cls-32{letter-spacing:-0.02em;}
            .rect{fill:#000}.rect:hover{opacity:0.1}.rect:active{}
        </style>
    </defs>
    <title>buy me coffee-new</title>
    <rect class="cls-1" y="0.38" width="228.77" height="41.96" rx="1.96"/>
    <text class="cls-2" transform="translate(40.11 17.94)">
        <tspan class="cls-3">ПО
            <tspan class="cls-4" x="16.53" y="0">Н</tspan>
            <tspan class="cls-5" x="24.77" y="0">Р</tspan>
            <tspan class="cls-6" x="31.06" y="0">А</tspan>
            <tspan class="cls-7" x="38.75" y="0">В</tspan>
            <tspan class="cls-8" x="46.34" y="0">И</tspan>
            <tspan class="cls-9" x="54.79" y="0">Л</tspan>
            <tspan class="cls-10" x="62.89" y="0">С</tspan>
            <tspan class="cls-11" x="70.85" y="0">Я</tspan>
            <tspan class="cls-12" x="82.7" y="0">У</tspan>
            <tspan class="cls-13" x="89.69" y="0">Р</tspan>
            <tspan class="cls-14" x="96.36" y="0">О</tspan>
            <tspan class="cls-15" x="105.03" y="0">К</tspan>
            <tspan class="cls-11" x="112.71" y="0">?</tspan>
        </tspan>
        <tspan class="cls-16" x="0" y="15">У</tspan>
        <tspan class="cls-17" x="6.49" y="15">г</tspan>
        <tspan class="cls-18" x="11.79" y="15">о</tspan>
        <tspan class="cls-19" x="18.57" y="15">с</tspan>
        <tspan class="cls-20" x="24.88" y="15">ти</tspan>
        <tspan class="cls-21" x="37.67" y="15">т</tspan>
        <tspan x="43.22" y="15">е</tspan>
        <tspan class="cls-22" x="53.64" y="15">м</tspan>
        <tspan class="cls-23" x="61.3" y="15">е</tspan>
        <tspan class="cls-24" x="67.92" y="15">н</tspan>
        <tspan x="74.92" y="15">я</tspan>
        <tspan class="cls-25" x="85.38" y="15">ч</tspan>
        <tspan class="cls-26" x="92.01" y="15">а</tspan>
        <tspan x="98.57" y="15">ш</tspan>
        <tspan class="cls-27" x="108.21" y="15">е</tspan>
        <tspan class="cls-28" x="114.78" y="15">ч</tspan>
        <tspan class="cls-29" x="121.36" y="15">к</tspan>
        <tspan x="127.77" y="15">ой</tspan>
        <tspan class="cls-30" x="145.35" y="15">к</tspan>
        <tspan class="cls-31" x="151.77" y="15">оф</tspan>
        <tspan class="cls-32" x="167.86" y="15">е</tspan>
        <tspan x="174.2" y="15">!</tspan>
    </text>
    <rect class="cls-1 rect" y="0.38" width="228.77" height="41.96" rx="1.96" opacity="0"/>
    <g transform="translate(-72 3) scale(0.8)">
        <svg xmlns="http://www.w3.org/2000/svg" viewBox="0 0 24 24">
            <defs>
                <style>.acls-1{fill:#ec2227;}.acls-2{fill:#3a5d93;}.acls-3{fill:#010101;}</style>
            </defs>
            <title>buy me coffee</title>
            <g id="Layer_2" data-name="Layer 2">
                <path class="acls-1"
                      d="M19.49,4.29a.15.15,0,0,1-.15.19H4.66a.15.15,0,0,1-.15-.19l.23-.86A.25.25,0,0,1,5,3.24H5.5a.26.26,0,0,0,.24-.19L6,1.8a.24.24,0,0,1,.23-.19H17.78A.24.24,0,0,1,18,1.8l.25,1.25a.26.26,0,0,0,.24.19H19a.25.25,0,0,1,.24.19Z"/>
                <path class="acls-2"
                      d="M18.14,9.35a.17.17,0,0,1,.18.19v.19a.22.22,0,0,1-.21.2H5.8a.22.22,0,0,1-.21-.2l0-.19a.18.18,0,0,1,.18-.19Z"/>
                <path class="acls-2"
                      d="M18,10.78a.18.18,0,0,1,.18.19v.2a.22.22,0,0,1-.21.19H5.9a.22.22,0,0,1-.21-.19V11a.18.18,0,0,1,.18-.19Z"/>
                <path class="acls-2"
                      d="M17.93,12.21a.18.18,0,0,1,.18.2l0,.19a.21.21,0,0,1-.21.2H6a.22.22,0,0,1-.21-.2v-.19a.18.18,0,0,1,.18-.2Z"/>
                <path class="acls-2"
                      d="M17.82,13.65a.17.17,0,0,1,.18.19V14a.22.22,0,0,1-.21.2H6.12a.21.21,0,0,1-.21-.2l0-.19a.18.18,0,0,1,.18-.19Z"/>
                <path class="acls-2"
                      d="M17.71,15.08a.19.19,0,0,1,.19.2l0,.19a.21.21,0,0,1-.21.19H6.22A.21.21,0,0,1,6,15.47v-.19a.18.18,0,0,1,.18-.2Z"/>
                <path class="acls-2"
                      d="M17.61,16.51a.18.18,0,0,1,.18.2v.19a.22.22,0,0,1-.21.2H6.33a.22.22,0,0,1-.21-.2l0-.19a.19.19,0,0,1,.19-.2Z"/>
                <path class="acls-3"
                      d="M18.69,4.5l-.34,3.76a.22.22,0,0,1-.21.19H5.86a.22.22,0,0,1-.21-.19L5.31,4.5l0,0H18.67Z"/>
                <path class="acls-3"
                      d="M17.57,18a.18.18,0,0,1,.18.2l-.35,4a.22.22,0,0,1-.21.19H6.81a.22.22,0,0,1-.21-.19l-.35-4a.18.18,0,0,1,.18-.2Z"/>
            </g>
        </svg>
    </g>
</svg>