<?xml version="1.0" encoding="UTF-8" standalone="no"?>
<svg
   xmlns:dc="http://purl.org/dc/elements/1.1/"
   xmlns:cc="http://creativecommons.org/ns#"
   xmlns:rdf="http://www.w3.org/1999/02/22-rdf-syntax-ns#"
   xmlns:svg="http://www.w3.org/2000/svg"
   xmlns="http://www.w3.org/2000/svg"
   xmlns:sodipodi="http://sodipodi.sourceforge.net/DTD/sodipodi-0.dtd"
   xmlns:inkscape="http://www.inkscape.org/namespaces/inkscape"
   version="1.1"
   id="Your_Icon"
   x="0px"
   y="0px"
   width="100%"
   height="100%"
   viewBox="5 -10 60.000648 81"
   enable-background="new 0 0 100 100"
   xml:space="preserve"
   inkscape:version="0.48.5 r10040"
   sodipodi:docname="earth.svg"><metadata
     id="metadata21"><rdf:RDF><cc:Work
         rdf:about=""><dc:format>image/svg+xml</dc:format><dc:type
           rdf:resource="http://purl.org/dc/dcmitype/StillImage" /><dc:title /></cc:Work></rdf:RDF></metadata><defs
     id="defs19" /><sodipodi:namedview
     pagecolor="#ffffff"
     bordercolor="#666666"
     borderopacity="1"
     objecttolerance="10"
     gridtolerance="10"
     guidetolerance="10"
     inkscape:pageopacity="0"
     inkscape:pageshadow="2"
     inkscape:window-width="1440"
     inkscape:window-height="802"
     id="namedview17"
     showgrid="false"
     fit-margin-top="0"
     fit-margin-left="0"
     fit-margin-right="0"
     fit-margin-bottom="0"
     inkscape:zoom="2"
     inkscape:cx="-81.253863"
     inkscape:cy="14.952679"
     inkscape:window-x="0"
     inkscape:window-y="0"
     inkscape:window-maximized="1"
     inkscape:current-layer="Your_Icon" /><path
     sodipodi:type="arc"
     style="fill:#ffffff;stroke:none"
     id="path2986"
     sodipodi:cx="-215.25"
     sodipodi:cy="24.25"
     sodipodi:rx="37.25"
     sodipodi:ry="37.25"
     d="m -178,24.25 a 37.25,37.25 0 1 1 -74.5,0 37.25,37.25 0 1 1 74.5,0 z"
     transform="matrix(1.0728477,0,0,1.0728477,265.9308,4.4834426)" /><g
     id="g3"
     transform="matrix(0.87508913,0,0,0.87508913,-9.1964902,-12.913172)"
     style="fill:#4b7aa4;fill-opacity:1"><path
       d="m 50.506,3.329 c -25.52,0 -46.282,20.762 -46.282,46.281 0,25.52 20.762,46.281 46.282,46.281 25.519,0 46.281,-20.762 46.281,-46.281 0,-25.52 -20.763,-46.281 -46.281,-46.281 z m 20.533,32.905 c -0.256,-0.812 -0.17,-2.009 0.215,-2.223 0.385,-0.214 1.195,-1.453 1.195,-1.453 0.129,-0.279 0.941,0.086 1.112,0.213 0.171,0.128 0.256,1.625 0.085,2.564 -0.171,0.941 0.47,1.496 0.726,1.581 0.258,0.086 0.429,2.095 0.385,2.522 -0.042,0.427 -1.238,0.812 -1.57,0.854 -0.331,0.043 -1.634,0.067 -1.592,-0.555 0.044,-0.621 -0.3,-2.691 -0.556,-3.503 z M 50.677,90.763 c -10.505,0 -20.185,-3.958 -27.464,-10.458 l 1.888,-2.747 1.389,-5.513 -3.344,-2.179 -3.85,-1.281 -2.567,-6.154 c 0,0 -2.823,-2.309 -4.874,-3.077 C 11.132,59.083 10.669,58.007 9.917,56.395 9.549,54.187 9.353,51.921 9.353,49.61 c 0,-1.363 0.069,-2.709 0.198,-4.039 0.161,-0.186 0.292,-0.338 0.379,-0.448 2.051,-2.564 7.564,-5 7.564,-5 0,0 1.813,-0.256 -1.274,-5.384 -3.085,-5.127 1.401,-8.205 1.401,-8.205 l 2.436,-1.794 c 0,0 -1.026,5.383 0.257,6.154 1.28,0.769 2.562,-1.667 2.82,-2.436 0.256,-0.769 2.948,-3.666 3.974,-5.204 1.026,-1.539 0.128,-5.181 -1.41,-5.437 -0.311,-0.052 -0.548,-0.22 -0.729,-0.455 7.021,-5.572 15.897,-8.905 25.536,-8.905 7.652,0 14.82,2.102 20.965,5.754 -5.175,-0.205 -10.472,2.739 -11.478,2.515 -1.154,-0.255 -6.773,0.706 -8.825,1.475 -2.052,0.77 -1.794,1.837 -2.307,1.966 -0.514,0.127 -0.787,0.555 -1.581,1.453 -0.795,0.897 0.342,1.923 0.342,1.923 0,0 3.077,0.77 3.59,-1.496 0.303,-1.347 -0.13,1.154 0,2.179 0.128,1.026 2.05,1.282 3.075,0 0.462,-0.577 0.39,-2.04 0.684,-2.521 0.362,-0.588 1.074,-0.14 1.497,-0.196 0.255,-0.034 -0.242,0.432 0.085,0.625 0.655,0.387 1.99,-0.28 1.666,1.281 -0.13,0.628 -2.136,0.755 -2.392,1.681 -0.258,0.926 -0.727,1.427 -0.727,1.427 l -4.188,0.098 -1.368,-2.008 c 0,0 -1.386,0.598 -1.026,1.794 0.247,0.824 -0.359,1.794 -0.359,1.794 0,0 -2.205,0.385 -2.205,1.026 0,0.352 -0.87,0.401 -1.367,0.598 -0.408,0.163 -0.708,0.841 -1.111,0.898 -0.241,0.034 -1.719,0.171 -2.052,0.213 -0.902,0.114 -0.47,0.352 -0.47,0.727 0,0.513 1.667,0.641 1.667,0.641 0,0 1.025,0.427 0.641,1.196 -0.385,0.77 0.299,1.026 -0.47,1.026 -0.334,0 -1.109,-0.047 -1.879,-0.043 -0.996,0.007 -1.962,-0.306 -1.985,0.104 -0.095,1.583 -0.035,3.787 -0.035,3.787 0,0 1.335,0.641 2.061,0.469 1.006,-0.237 2.436,0.556 3.12,-1.282 0.053,-0.141 0.146,-0.454 0.255,-0.598 0.476,-0.624 0.922,-1.831 1.71,-2.222 0.484,-0.241 1.182,-0.029 1.41,-0.043 0.512,-0.032 1.369,-0.726 1.369,-0.726 0,0 2.307,0.299 2.904,2.564 0.177,0.667 0,1.795 0.386,2.008 0.234,0.13 1.282,-1.025 1.282,-1.025 l 1.197,0.042 -0.66,-1.559 -2.205,-2.415 0.302,-0.17 c 0,0 1.75,0.043 1.88,0.427 0.127,0.385 2.129,1.325 1.794,2.436 -0.556,1.838 0.728,2.351 0.728,2.351 0,0 1.154,0.213 1.666,-0.759 0.445,-0.843 0.514,-1.601 0.514,-1.601 l 1.444,-0.207 c 0,0 -0.078,-3.16 1.546,-3.245 1.624,-0.084 1.795,0 1.795,0 0,0 3.504,1.197 3.89,2.094 0.383,0.897 0.553,1.808 -0.6,1.936 -1.154,0.127 -2.863,-0.1 -2.863,-0.1 0,0 -4.521,-0.712 -4.136,0.569 0.384,1.282 0.76,2.552 0.76,2.552 0,0 1.031,-0.073 1.923,0.126 0.953,0.214 2.141,0.086 2.141,0.086 l 0.211,2.222 -0.566,0.164 c -0.646,0.184 -2.554,0.285 -3.067,0.478 -0.513,0.192 -6.089,-0.769 -6.217,-0.577 -0.128,0.191 -1.988,0.832 -3.013,0.577 -1.026,-0.256 -1.284,-2.692 -1.284,-2.692 0,0 -0.127,-1.154 -0.832,-1.091 -0.706,0.064 -5.578,0.513 -5.578,0.513 0,0 -1.603,0.706 -1.603,1.089 0,0 -0.449,-0.32 -1.089,0 -0.641,0.32 -1.603,0.257 -1.86,0.77 -0.256,0.514 -1.217,1.474 -1.73,2.372 -0.512,0.896 -1.986,1.025 -2.372,2.628 -0.385,1.602 -0.705,4.294 -0.641,5.448 0.064,1.154 0.064,3.935 1.217,4.563 1.154,0.63 2.693,2.23 3.27,2.809 0.576,0.576 3.718,1.025 4.103,0.769 0.384,-0.256 1.666,-0.769 2.371,-0.769 0.706,0 2.244,0.065 2.692,0.448 0.448,0.385 0.961,1.282 1.347,2.244 0.383,0.961 0.769,2.563 1.089,3.141 0.321,0.577 1.604,1.666 1.154,2.757 -0.448,1.09 -1.282,2.179 -1.154,3.461 0.128,1.281 0.958,3.014 1.248,3.59 0.292,0.576 2.15,2.371 2.085,2.949 -0.063,0.576 0.45,0.384 1.154,0.642 0.705,0.255 3.719,-0.578 4.167,-1.092 0.449,-0.513 1.091,-2.05 1.923,-2.884 0.833,-0.834 2.628,-2.243 3.526,-3.205 0.896,-0.962 1.794,-1.795 1.858,-3.013 0.062,-1.219 -0.642,-3.974 0,-4.423 0.642,-0.449 1.538,-1.09 2.181,-1.923 0.641,-0.833 1.986,-0.833 2.947,-3.525 0.962,-2.692 1.281,-3.462 1.089,-3.591 -0.19,-0.128 -1.665,0.514 -1.923,0.898 -0.256,0.385 -1.858,0.407 -2.179,0.717 -0.32,0.309 -1.666,0 -1.666,0 0,0 0.512,-2.385 0.192,-3.218 -0.321,-0.832 -1.924,-4.102 -2.437,-5.256 -0.421,-0.946 -0.49,-2.058 -0.292,-2.784 0.082,0.118 0.165,0.236 0.229,0.348 0.227,0.41 1.49,1.841 2.009,3.336 1.109,3.205 2.35,5.51 2.35,5.51 0,0 1.667,0.089 4.444,-2.05 1.89,-1.453 3.892,-1.562 4.231,-2.307 0.641,-1.411 -2.01,-2.694 -2.01,-2.694 l -2.309,0.086 -1.806,-3.102 0.524,-0.189 c 0,0 1.925,2.308 2.821,2.308 0.896,0 3.333,-0.257 4.102,0.641 0.769,0.897 3.077,2.435 3.462,3.974 0.386,1.538 0.198,3.727 0.897,4.487 0.984,1.07 1.923,0.899 1.923,0.899 l 1.154,-2.694 2.778,-3.159 2.375,-1.16 c 0,0.03 0,0.058 0,0.087 0,22.694 -18.631,41.154 -41.323,41.154 z"
       id="path5"
       inkscape:connector-curvature="0"
       style="fill:#4b7aa4;fill-opacity:1" /><path
       d="m 40.699,25.122 c 0,0 0.598,0.342 0.769,0.513 0.171,0.17 1.667,0.555 2.308,0.213 0.641,-0.341 0.983,-1.282 1.453,-1.325 0.47,-0.042 0.17,0 0.085,-0.342 -0.085,-0.341 0.47,-1.598 0.47,-1.598 L 44.502,21.49 c 0,0 -0.812,-1.624 -0.726,-2.136 C 43.86,18.84 43.162,17.897 43.202,17.834 43.242,17.771 41,17.857 41,19.181 v 1.88 c 0,0 -0.365,0.77 -0.578,0.983 -0.215,0.213 -0.011,1.111 0.117,1.495 0.128,0.386 0.16,1.583 0.16,1.583 z"
       id="path7"
       inkscape:connector-curvature="0"
       style="fill:#4b7aa4;fill-opacity:1" /><path
       d="m 40.229,24.479 c 0.103,-0.207 -0.208,-1.381 -0.335,-1.833 -0.03,-0.109 -0.05,-0.176 -0.05,-0.176 l -0.212,-0.812 c -0.129,-0.256 -0.513,0.384 -0.756,0.513 -0.243,0.128 -0.227,0.555 -0.356,0.896 -0.128,0.342 -0.427,1.625 -0.427,1.625 l 0.784,0.212 c -0.002,0.002 1.224,-0.168 1.352,-0.425 z"
       id="path9"
       inkscape:connector-curvature="0"
       style="fill:#4b7aa4;fill-opacity:1" /><path
       d="m 70.313,67.559 c 0,0 -0.128,1.923 -1.026,2.5 -0.896,0.577 -1.537,1.602 -1.537,2.179 0,0.577 -0.192,1.218 0,1.795 0.192,0.577 0.682,0.962 1.238,0.897 0.557,-0.063 1.197,-1.217 1.325,-1.73 0.128,-0.513 0.514,-1.594 0.896,-1.952 0.385,-0.356 0.514,-1.381 0.449,-1.895 -0.063,-0.512 0.386,-2.372 -1.345,-1.794 z"
       id="path11"
       inkscape:connector-curvature="0"
       style="fill:#4b7aa4;fill-opacity:1" /></g></svg>