<svg xmlns="http://www.w3.org/2000/svg" viewBox="0 0 191.58 31.39">
    <defs>
        <style>
            .cls-1{fill:#f5f6f6;stroke:#a7a9ac;stroke-miterlimit:10;stroke-width:0.51px;}.cls-2{fill:#231f20;}.cls-3{fill:#ec2227;}.cls-4{fill:#3a5d93;}.cls-5{fill:#010101;}
        </style>
    </defs>
    <title>buy me coffee</title>
    <g id="Layer_2" data-name="Layer 2">
        <path class="cls-1"
              d="M3.11,0H188.47a3.11,3.11,0,0,1,3.11,3.11V29.3a2.09,2.09,0,0,1-2.09,2.09H2.09A2.09,2.09,0,0,1,0,29.3V3.11A3.11,3.11,0,0,1,3.11,0Z"/>
        <path class="cls-2"
              d="M33.8,4.61V7.18a1.55,1.55,0,0,0,1.72,1.73,3.22,3.22,0,0,0,1.59-.46V4.61h1.06V12.7H37.11V9.27h0a3.91,3.91,0,0,1-1.94.5,2.18,2.18,0,0,1-2.39-2.43V4.61Z"/>
        <path class="cls-2"
              d="M43.16,12.7,43.08,12h0a2.14,2.14,0,0,1-1.77.87,1.66,1.66,0,0,1-1.78-1.67C39.49,9.76,40.74,9,43,9V8.88a1.19,1.19,0,0,0-1.32-1.34A2.93,2.93,0,0,0,40.15,8l-.24-.7a3.63,3.63,0,0,1,1.91-.51C43.59,6.76,44,8,44,9.13V11.3a8.52,8.52,0,0,0,.09,1.4Zm-.15-3c-1.15,0-2.46.18-2.46,1.31a.93.93,0,0,0,1,1,1.45,1.45,0,0,0,1.41-1,1.35,1.35,0,0,0,.06-.34Z"/>
        <path class="cls-2"
              d="M46.74,6.89v5h2v-5h1v5h2v-5h1V12.7H45.71V6.89Z"/>
        <path class="cls-2"
              d="M55.18,10a1.85,1.85,0,0,0,2,2,3.75,3.75,0,0,0,1.6-.3l.18.76a4.8,4.8,0,0,1-1.93.36,2.7,2.7,0,0,1-2.85-2.93c0-1.75,1-3.13,2.72-3.13a2.46,2.46,0,0,1,2.4,2.73,2.85,2.85,0,0,1,0,.5Zm3.09-.76a1.51,1.51,0,0,0-1.46-1.72,1.75,1.75,0,0,0-1.62,1.72Z"/>
        <path class="cls-2"
              d="M61.49,6.89V8.8c0,.73.27,1.23,1.2,1.23a2.16,2.16,0,0,0,1.24-.4V6.89H65V12.7H63.93V10.37h0a3.1,3.1,0,0,1-1.57.44,1.72,1.72,0,0,1-1.91-1.89v-2Z"/>
        <path class="cls-2"
              d="M67.75,6.89V9.41H68l2.19-2.52h1.28L68.94,9.52c.93.09,1.5.72,2,1.76a12.52,12.52,0,0,0,.63,1.42H70.41a8.83,8.83,0,0,1-.54-1.19A1.87,1.87,0,0,0,68,10.14h-.21V12.7h-1V6.89Z"/>
        <path class="cls-2"
              d="M75.79,12.7,75.71,12h0a2.16,2.16,0,0,1-1.78.87,1.65,1.65,0,0,1-1.77-1.67c0-1.4,1.25-2.17,3.49-2.16V8.88a1.19,1.19,0,0,0-1.32-1.34A2.93,2.93,0,0,0,72.78,8l-.24-.7a3.61,3.61,0,0,1,1.91-.51c1.77,0,2.2,1.21,2.2,2.37V11.3a8.44,8.44,0,0,0,.1,1.4Zm-.16-3c-1.15,0-2.45.18-2.45,1.31a.93.93,0,0,0,1,1,1.43,1.43,0,0,0,1.4-1,1,1,0,0,0,.06-.34Z"/>
        <path class="cls-2"
              d="M82,6.89V9.41h.25l2.18-2.52h1.29L83.13,9.52c.94.09,1.5.72,2,1.76a14.34,14.34,0,0,0,.62,1.42h-1.1a7.73,7.73,0,0,1-.54-1.19,1.89,1.89,0,0,0-1.92-1.37H82V12.7h-1V6.89Z"/>
        <path class="cls-2"
              d="M91.83,9.75a2.84,2.84,0,0,1-2.89,3.08,2.76,2.76,0,0,1-2.78-3A2.83,2.83,0,0,1,89,6.76,2.74,2.74,0,0,1,91.83,9.75Zm-4.6.06C87.23,11.08,88,12,89,12s1.76-.95,1.76-2.26c0-1-.49-2.23-1.74-2.23S87.23,8.7,87.23,9.81Z"/>
        <path class="cls-2"
              d="M96.62,4.18v2.6a2.89,2.89,0,0,1,2.92,3,2.88,2.88,0,0,1-2.92,3v2.27h-1V12.82a2.87,2.87,0,0,1-2.91-3,2.92,2.92,0,0,1,2.91-3.06V4.18Zm-1,3.32a2.18,2.18,0,0,0-1.87,2.31,2.14,2.14,0,0,0,1.87,2.27Zm1,4.58a2.17,2.17,0,0,0,1.87-2.3A2.15,2.15,0,0,0,96.62,7.5Z"/>
        <path class="cls-2"
              d="M101.45,10a1.85,1.85,0,0,0,2,2,3.83,3.83,0,0,0,1.61-.3l.18.76a4.88,4.88,0,0,1-1.93.36,2.7,2.7,0,0,1-2.86-2.93c0-1.75,1-3.13,2.72-3.13a2.46,2.46,0,0,1,2.4,2.73,4.92,4.92,0,0,1,0,.5Zm3.09-.76a1.5,1.5,0,0,0-1.46-1.72,1.75,1.75,0,0,0-1.62,1.72Z"/>
        <path class="cls-2" d="M120.17,9.29V10H108.9V9.29Z"/>
        <path class="cls-2"
              d="M32.76,19a12.68,12.68,0,0,1,1.85-.13c1,0,2.58.16,2.58,1.45A1.38,1.38,0,0,1,36,21.59v0c.86.12,1.48.6,1.48,1.44,0,1.53-1.92,1.72-3.06,1.72-.65,0-1.32-.05-1.63-.07Zm1,5a5.72,5.72,0,0,0,.85.05c.71,0,1.76-.17,1.76-1s-.84-1-1.85-1h-.76Zm0-2.67h.79c.78,0,1.58-.23,1.58-.92s-.5-.85-1.56-.85c-.34,0-.56,0-.81.05Z"/>
        <path class="cls-2"
              d="M45.72,16.92a7.74,7.74,0,0,1-1.21.27,2.84,2.84,0,0,0-2.07,1.09,4.2,4.2,0,0,0-.63,1.92h0a2.21,2.21,0,0,1,2-1.31c1.43,0,2.47,1,2.47,2.87s-1,3.07-2.69,3.07c-2,0-2.71-2-2.71-3.89a5.16,5.16,0,0,1,.9-3.21,3.48,3.48,0,0,1,2.5-1.37,8.71,8.71,0,0,0,1.44-.31Zm-2.08,2.75a1.4,1.4,0,0,0-1.3.79,2.47,2.47,0,0,0-.29,1.24c0,1,.47,2.34,1.62,2.34s1.59-1.13,1.59-2.2S44.89,19.67,43.64,19.67Z"/>
        <path class="cls-2"
              d="M52.07,18.89V24.7H51v-5H49v1.51c0,1.63-.15,2.72-.91,3.21A1.68,1.68,0,0,1,47,24.8L46.86,24a1.43,1.43,0,0,0,.58-.24c.54-.4.6-1.22.6-2.51V18.89Z"/>
        <path class="cls-2"
              d="M57,24.7,56.93,24h0a2.15,2.15,0,0,1-1.77.87,1.66,1.66,0,0,1-1.78-1.67c0-1.4,1.25-2.17,3.49-2.16v-.12a1.19,1.19,0,0,0-1.32-1.34A2.93,2.93,0,0,0,54,20l-.24-.7a3.63,3.63,0,0,1,1.91-.51c1.77,0,2.2,1.21,2.2,2.37V23.3a8.44,8.44,0,0,0,.1,1.4Zm-.16-3c-1.15,0-2.45.18-2.45,1.31a.93.93,0,0,0,1,1,1.45,1.45,0,0,0,1.41-1,1.33,1.33,0,0,0,.05-.34Z"/>
        <path class="cls-2" d="M63.12,18.89v.85H60.6v5h-1V18.89Z"/>
        <path class="cls-2"
              d="M69.21,21.75a2.84,2.84,0,0,1-2.89,3.08,2.76,2.76,0,0,1-2.78-3,2.83,2.83,0,0,1,2.88-3.08A2.74,2.74,0,0,1,69.21,21.75Zm-4.6.06c0,1.27.73,2.23,1.76,2.23s1.76-.95,1.76-2.26c0-1-.49-2.23-1.73-2.23S64.61,20.7,64.61,21.81Z"/>
        <path class="cls-2"
              d="M75,18.89v5l.6,0-.06,2.62h-.83l0-1.84h-4l0,1.84h-.83l0-2.62.49,0a4.43,4.43,0,0,0,.57-1.18,7.61,7.61,0,0,0,.34-2.32V18.89ZM72,20.65a7.37,7.37,0,0,1-.3,2.16,5.32,5.32,0,0,1-.46,1.08h2.67v-4.2H72Z"/>
        <path class="cls-2"
              d="M80,24.7,80,24h0a2.16,2.16,0,0,1-1.78.87,1.65,1.65,0,0,1-1.77-1.67c0-1.4,1.25-2.17,3.49-2.16v-.12a1.19,1.19,0,0,0-1.32-1.34A2.93,2.93,0,0,0,77,20l-.24-.7a3.61,3.61,0,0,1,1.91-.51c1.77,0,2.2,1.21,2.2,2.37V23.3a8.44,8.44,0,0,0,.1,1.4Zm-.16-3c-1.15,0-2.45.18-2.45,1.31a.93.93,0,0,0,1,1,1.43,1.43,0,0,0,1.4-1,1,1,0,0,0,.06-.34Z"/>
        <path class="cls-2"
              d="M82.61,20.79c0-.75,0-1.35,0-1.9h1l0,1h0a2.28,2.28,0,0,1,2.06-1.13c1.41,0,2.46,1.19,2.46,2.95,0,2.09-1.27,3.12-2.64,3.12a2,2,0,0,1-1.78-.91h0v3.15h-1Zm1,1.54a2.68,2.68,0,0,0,0,.43A1.62,1.62,0,0,0,85.28,24c1.12,0,1.77-.91,1.77-2.24,0-1.17-.61-2.16-1.73-2.16a1.67,1.67,0,0,0-1.59,1.31,1.49,1.49,0,0,0-.08.43Z"/>
        <path class="cls-2"
              d="M90.46,18.89v2.34h2.76V18.89h1V24.7h-1V22.07H90.46V24.7h-1V18.89Z"/>
        <path class="cls-2"
              d="M101.24,21.75a2.84,2.84,0,0,1-2.89,3.08,2.76,2.76,0,0,1-2.78-3,2.83,2.83,0,0,1,2.88-3.08A2.74,2.74,0,0,1,101.24,21.75Zm-4.6.06c0,1.27.73,2.23,1.76,2.23s1.76-.95,1.76-2.26c0-1-.49-2.23-1.74-2.23S96.64,20.7,96.64,21.81Z"/>
        <path class="cls-2"
              d="M106.72,24.48a4,4,0,0,1-1.67.34,2.76,2.76,0,0,1-2.89-3,3,3,0,0,1,3.12-3.08,3.6,3.6,0,0,1,1.46.3l-.24.82a2.37,2.37,0,0,0-1.22-.28,2,2,0,0,0-2,2.2,2,2,0,0,0,2,2.17,3,3,0,0,0,1.3-.29Z"/>
        <path class="cls-2"
              d="M112.07,18.89v.84h-1.81v5h-1.05v-5H107.4v-.84Z"/>
        <path class="cls-2"
              d="M114,18.89v2a5.68,5.68,0,0,1,1-.06c1.31,0,2.69.41,2.69,1.95a1.64,1.64,0,0,1-.61,1.33,4,4,0,0,1-2.52.68,13.7,13.7,0,0,1-1.56-.09V18.89ZM114,24a5.15,5.15,0,0,0,.78.05c.79,0,1.81-.26,1.81-1.23s-1-1.23-1.83-1.23a5.86,5.86,0,0,0-.76.06Z"/>
        <path class="cls-2"
              d="M122,21.33h.51c.88,0,1.48-.41,1.48-.95s-.47-.84-1.12-.84a2.75,2.75,0,0,0-1.41.41l-.26-.65a3.69,3.69,0,0,1,1.93-.53c.89,0,2,.4,2,1.52a1.48,1.48,0,0,1-1.31,1.32v0a1.54,1.54,0,0,1,1.58,1.45c0,1.26-1.28,1.73-2.5,1.73a4,4,0,0,1-1.89-.47l.28-.71a3.31,3.31,0,0,0,1.53.4c.88,0,1.43-.42,1.43-1,0-.78-.81-1-1.69-1H122Z"/>
        <path class="cls-2"
              d="M129.9,24.7l-.09-.74h0a2.17,2.17,0,0,1-1.78.87,1.65,1.65,0,0,1-1.77-1.67c0-1.4,1.25-2.17,3.49-2.16v-.12a1.19,1.19,0,0,0-1.32-1.34,2.93,2.93,0,0,0-1.51.43l-.24-.7a3.6,3.6,0,0,1,1.9-.51c1.78,0,2.21,1.21,2.21,2.37V23.3a8.44,8.44,0,0,0,.1,1.4Zm-.16-3c-1.15,0-2.46.18-2.46,1.31a.94.94,0,0,0,1,1,1.44,1.44,0,0,0,1.4-1,1,1,0,0,0,.06-.34Z"/>
        <path class="cls-2"
              d="M136,18.89v2.34h2.76V18.89h1V24.7h-1V22.07H136V24.7h-1V18.89Z"/>
        <path class="cls-2"
              d="M144.78,24.7l-.09-.74h0a2.16,2.16,0,0,1-1.78.87,1.65,1.65,0,0,1-1.77-1.67c0-1.4,1.25-2.17,3.49-2.16v-.12a1.19,1.19,0,0,0-1.32-1.34,2.93,2.93,0,0,0-1.51.43l-.24-.7a3.6,3.6,0,0,1,1.9-.51c1.78,0,2.21,1.21,2.21,2.37V23.3a8.44,8.44,0,0,0,.1,1.4Zm-.16-3c-1.15,0-2.46.18-2.46,1.31a.94.94,0,0,0,1,1,1.44,1.44,0,0,0,1.4-1,1,1,0,0,0,.06-.34Z"/>
        <path class="cls-2"
              d="M148.36,18.89v5h2v-5h1v5h2v-5h1V24.7h-7.16V18.89Z"/>
        <path class="cls-2" d="M162.67,18.89v.84h-1.81v5h-1v-5H158v-.84Z"/>
        <path class="cls-2"
              d="M163.6,20.79c0-.75,0-1.35,0-1.9h.95l0,1h0a2.27,2.27,0,0,1,2.06-1.13c1.4,0,2.46,1.19,2.46,2.95,0,2.09-1.27,3.12-2.64,3.12a2.05,2.05,0,0,1-1.79-.91h0v3.15h-1Zm1,1.54a1.88,1.88,0,0,0,.05.43A1.61,1.61,0,0,0,166.27,24c1.11,0,1.76-.91,1.76-2.24,0-1.17-.61-2.16-1.72-2.16a1.68,1.68,0,0,0-1.6,1.31,1.49,1.49,0,0,0-.07.43Z"/>
        <path class="cls-2"
              d="M170.69,18.89,172,22.32c.13.39.28.84.37,1.19h0c.1-.35.22-.79.37-1.21l1.15-3.41H175L173.41,23c-.75,2-1.27,3-2,3.63a2.87,2.87,0,0,1-1.3.69l-.26-.89a2.65,2.65,0,0,0,.92-.52,3.09,3.09,0,0,0,.89-1.17.76.76,0,0,0,.09-.25.94.94,0,0,0-.08-.28l-2.14-5.35Z"/>
        <path class="cls-2"
              d="M180.21,18.89v5l.6,0-.06,2.62h-.82l-.05-1.84h-4l-.05,1.84H175l0-2.62.49,0a4.43,4.43,0,0,0,.57-1.18,7.61,7.61,0,0,0,.34-2.32V18.89Zm-2.93,1.76a7.72,7.72,0,0,1-.3,2.16,5.33,5.33,0,0,1-.47,1.08h2.67v-4.2h-1.9Z"/>
        <path class="cls-3"
              d="M24.86,6.82a.15.15,0,0,1-.15.19H10a.15.15,0,0,1-.15-.19L10.11,6a.25.25,0,0,1,.24-.19h.52a.26.26,0,0,0,.24-.19l.25-1.25a.24.24,0,0,1,.23-.19H23.15a.24.24,0,0,1,.23.19l.25,1.25a.26.26,0,0,0,.24.19h.52a.25.25,0,0,1,.24.19Z"/>
        <path class="cls-4"
              d="M23.51,11.87a.18.18,0,0,1,.18.2v.19a.22.22,0,0,1-.21.2H11.17a.22.22,0,0,1-.21-.2l0-.19a.19.19,0,0,1,.18-.2Z"/>
        <path class="cls-4"
              d="M23.4,13.31a.18.18,0,0,1,.18.19v.19a.22.22,0,0,1-.21.2H11.27a.22.22,0,0,1-.21-.2V13.5a.18.18,0,0,1,.18-.19Z"/>
        <path class="cls-4"
              d="M23.3,14.74a.18.18,0,0,1,.18.2l0,.19a.2.2,0,0,1-.21.19H11.38a.21.21,0,0,1-.21-.19v-.19a.18.18,0,0,1,.18-.2Z"/>
        <path class="cls-4"
              d="M23.19,16.18a.17.17,0,0,1,.18.19v.19a.22.22,0,0,1-.21.2H11.49a.21.21,0,0,1-.21-.2l0-.19a.18.18,0,0,1,.18-.19Z"/>
        <path class="cls-4"
              d="M23.08,17.61a.19.19,0,0,1,.19.2l0,.19a.22.22,0,0,1-.21.19H11.59a.22.22,0,0,1-.21-.19v-.19a.18.18,0,0,1,.18-.2Z"/>
        <path class="cls-4"
              d="M23,19a.18.18,0,0,1,.18.2v.19a.22.22,0,0,1-.21.2H11.7a.22.22,0,0,1-.21-.2l0-.19a.19.19,0,0,1,.19-.2Z"/>
        <path class="cls-5"
              d="M24.06,7l-.34,3.75a.22.22,0,0,1-.21.2H11.23a.22.22,0,0,1-.21-.2L10.68,7H24A0,0,0,0,1,24.06,7Z"/>
        <path class="cls-5"
              d="M22.94,20.52a.18.18,0,0,1,.18.2l-.35,4.05a.22.22,0,0,1-.21.19H12.18a.22.22,0,0,1-.21-.19l-.35-4.05a.18.18,0,0,1,.18-.2Z"/>
    </g>
</svg>
