<svg id="Layer_1" data-name="Layer 1" xmlns="http://www.w3.org/2000/svg" viewBox="0 0 118.61 31.9"><defs><style>.cls-1{fill:#f5f6f6;stroke:#a7a9ac;stroke-miterlimit:10;stroke-width:0.51px;}.cls-2{fill:#ec2227;}.cls-3{fill:#3a5d93;}.cls-4{fill:#010101;}.cls-5{font-size:14.59px;font-family:MyriadPro-Regular, Myriad Pro;}.cls-6{letter-spacing:-0.01em;}.cls-7{letter-spacing:0.02em;}.cls-8{letter-spacing:0em;}.cls-9{letter-spacing:-0.01em;}.cls-10{letter-spacing:0.01em;}.cls-11{letter-spacing:-0.01em;}</style></defs><path class="cls-1" d="M1.92,0H116.18c1.06,0,1.92,1.39,1.92,3.11h0V29.3c0,1.15-.58,2.09-1.29,2.09H1.29C.58,31.39,0,30.45,0,29.3H0V3.11C0,1.39.86,0,1.92,0Z" transform="translate(0.25 0.26)"/><path class="cls-2" d="M24.86,6.82a.14.14,0,0,1-.1.18H10a.16.16,0,0,1-.16-.14.43.43,0,0,1,0,0L10.11,6a.26.26,0,0,1,.24-.19h.52a.26.26,0,0,0,.24-.19l.25-1.25a.24.24,0,0,1,.23-.19H23.15a.24.24,0,0,1,.23.19l.25,1.25a.26.26,0,0,0,.24.19h.52a.26.26,0,0,1,.24.19Z" transform="translate(0.25 0.26)"/><path class="cls-3" d="M23.51,11.87a.18.18,0,0,1,.18.18v.21a.22.22,0,0,1-.21.2H11.17a.22.22,0,0,1-.21-.2v-.19a.19.19,0,0,1,.18-.2H23.51Z" transform="translate(0.25 0.26)"/><path class="cls-3" d="M23.4,13.31a.18.18,0,0,1,.18.18h0v.19a.22.22,0,0,1-.21.2H11.27a.22.22,0,0,1-.21-.2V13.5a.18.18,0,0,1,.17-.19H23.4Z" transform="translate(0.25 0.26)"/><path class="cls-3" d="M23.3,14.74a.18.18,0,0,1,.18.18v.21a.2.2,0,0,1-.21.19H11.38a.21.21,0,0,1-.21-.19v-.19a.18.18,0,0,1,.16-.2h12Z" transform="translate(0.25 0.26)"/><path class="cls-3" d="M23.19,16.18a.17.17,0,0,1,.18.16v.22a.22.22,0,0,1-.21.2H11.49a.22.22,0,0,1-.21-.2v-.19a.18.18,0,0,1,.17-.19H23.19Z" transform="translate(0.25 0.26)"/><path class="cls-3" d="M23.08,17.61a.19.19,0,0,1,.19.19h0V18a.21.21,0,0,1-.21.19H11.59a.21.21,0,0,1-.21-.19v-.19a.18.18,0,0,1,.16-.2H23.08Z" transform="translate(0.25 0.26)"/><path class="cls-3" d="M23,19a.18.18,0,0,1,.18.18v.21a.22.22,0,0,1-.21.2H11.7a.22.22,0,0,1-.21-.2V19.2a.19.19,0,0,1,.18-.2H23Z" transform="translate(0.25 0.26)"/><path class="cls-4" d="M24.06,7l-.34,3.75a.22.22,0,0,1-.21.2H11.23a.22.22,0,0,1-.21-.2L10.68,7H24.06Z" transform="translate(0.25 0.26)"/><path class="cls-4" d="M22.94,20.52a.18.18,0,0,1,.18.18v0l-.35,4.05a.21.21,0,0,1-.21.19H12.18a.21.21,0,0,1-.21-.19l-.35-4.05a.18.18,0,0,1,.16-.2H22.94Z" transform="translate(0.25 0.26)"/><text class="cls-5" transform="translate(31.47 19.85)">П<tspan class="cls-6" x="9.33" y="0">о</tspan><tspan class="cls-7" x="17.24" y="0">д</tspan><tspan class="cls-8" x="25.25" y="0">д</tspan><tspan x="32.92" y="0">е</tspan><tspan class="cls-9" x="40.24" y="0">р</tspan><tspan class="cls-10" x="48.42" y="0">ж</tspan><tspan class="cls-11" x="58.3" y="0">ат</tspan><tspan x="71.13" y="0">ь</tspan></text></svg>