<svg xmlns="http://www.w3.org/2000/svg" viewBox="0 0 191.58 31.39">
    <defs>
        <style>
            .cls-1{fill:#f5f6f6;stroke:#a7a9ac;stroke-miterlimit:10;stroke-width:0.51px;}.cls-2{font-size:12px;fill:#231f20;font-family:MyriadPro-Regular,
            Myriad
            Pro;}.cls-3{letter-spacing:-0.01em;}.cls-4{letter-spacing:0em;}.cls-5{letter-spacing:0.01em;}.cls-6{letter-spacing:0em;}.cls-7{letter-spacing:-0.02em;}.cls-8{letter-spacing:-0.01em;}.cls-9{letter-spacing:0.02em;}.cls-10{letter-spacing:-0.01em;}.cls-11{letter-spacing:0em;}.cls-12{fill:#ec2227;}.cls-13{fill:#3a5d93;}.cls-14{fill:#010101;}
        </style>
    </defs>
    <title>buy me coffee latest</title>
    <g id="Layer_2" data-name="Layer 2">
        <path class="cls-1"
              d="M3.11,0H188.47a3.11,3.11,0,0,1,3.11,3.11V29.3a2.09,2.09,0,0,1-2.09,2.09H2.09A2.09,2.09,0,0,1,0,29.3V3.11A3.11,3.11,0,0,1,3.11,0Z"/>
        <text class="cls-2" transform="translate(31.91 12.7)">Чаш
            <tspan class="cls-3" x="21.8" y="0">е</tspan>
            <tspan class="cls-4" x="27.74" y="0">ч</tspan>
            <tspan class="cls-5" x="33.92" y="0">к</tspan>
            <tspan x="39.79" y="0">а</tspan>
            <tspan class="cls-3" x="48.12" y="0">к</tspan>
            <tspan x="53.79" y="0">офе —</tspan>
            <tspan x="0" y="12">в</tspan>
            <tspan class="cls-6" x="8.54" y="12">б</tspan>
            <tspan x="14.93" y="12">ла</tspan>
            <tspan class="cls-7" x="26.8" y="12">г</tspan>
            <tspan class="cls-8" x="31.18" y="12">о</tspan>
            <tspan x="37.68" y="12">дарно</tspan>
            <tspan class="cls-9" x="69.79" y="12">с</tspan>
            <tspan class="cls-8" x="75.36" y="12">т</tspan>
            <tspan class="cls-4" x="80.21" y="12">ь за наш</tspan>
            <tspan class="cls-8" x="125.96" y="12">т</tspan>
            <tspan class="cls-10" x="130.81" y="12">р</tspan>
            <tspan class="cls-7" x="137.52" y="12">у</tspan>
            <tspan class="cls-11" x="142.93" y="12">д</tspan>
        </text>
        <path class="cls-12"
              d="M24.86,6.82a.15.15,0,0,1-.15.19H10a.15.15,0,0,1-.15-.19L10.11,6a.25.25,0,0,1,.24-.19h.52a.26.26,0,0,0,.24-.19l.25-1.25a.24.24,0,0,1,.23-.19H23.15a.24.24,0,0,1,.23.19l.25,1.25a.26.26,0,0,0,.24.19h.52a.25.25,0,0,1,.24.19Z"/>
        <path class="cls-13"
              d="M23.51,11.87a.18.18,0,0,1,.18.2v.19a.22.22,0,0,1-.21.2H11.17a.22.22,0,0,1-.21-.2l0-.19a.19.19,0,0,1,.18-.2Z"/>
        <path class="cls-13"
              d="M23.4,13.31a.18.18,0,0,1,.18.19v.19a.22.22,0,0,1-.21.2H11.27a.22.22,0,0,1-.21-.2V13.5a.18.18,0,0,1,.18-.19Z"/>
        <path class="cls-13"
              d="M23.3,14.74a.18.18,0,0,1,.18.2l0,.19a.2.2,0,0,1-.21.19H11.38a.21.21,0,0,1-.21-.19v-.19a.18.18,0,0,1,.18-.2Z"/>
        <path class="cls-13"
              d="M23.19,16.18a.17.17,0,0,1,.18.19v.19a.22.22,0,0,1-.21.2H11.49a.21.21,0,0,1-.21-.2l0-.19a.18.18,0,0,1,.18-.19Z"/>
        <path class="cls-13"
              d="M23.08,17.61a.19.19,0,0,1,.19.2l0,.19a.22.22,0,0,1-.21.19H11.59a.22.22,0,0,1-.21-.19v-.19a.18.18,0,0,1,.18-.2Z"/>
        <path class="cls-13"
              d="M23,19a.18.18,0,0,1,.18.2v.19a.22.22,0,0,1-.21.2H11.7a.22.22,0,0,1-.21-.2l0-.19a.19.19,0,0,1,.19-.2Z"/>
        <path class="cls-14"
              d="M24.06,7l-.34,3.75a.22.22,0,0,1-.21.2H11.23a.22.22,0,0,1-.21-.2L10.68,7H24A0,0,0,0,1,24.06,7Z"/>
        <path class="cls-14"
              d="M22.94,20.52a.18.18,0,0,1,.18.2l-.35,4.05a.22.22,0,0,1-.21.19H12.18a.22.22,0,0,1-.21-.19l-.35-4.05a.18.18,0,0,1,.18-.2Z"/>
    </g>
</svg>
