<?xml version="1.0" encoding="utf-8"?>
<!-- Generator: Adobe Illustrator 23.0.1, SVG Export Plug-In . SVG Version: 6.00 Build 0)  -->
<svg color="9D9D9D" version="1.1" id="Layer_1" xmlns="http://www.w3.org/2000/svg" xmlns:xlink="http://www.w3.org/1999/xlink" x="0px" y="0px"
	 viewBox="0 0 35.2 34.5" style="enable-background:new 0 0 35.2 34.5;" xml:space="preserve">
<style type="text/css">
	.st0{fill:currentColor;}
</style>
<path class="st0" d="M32,33.2c0,0.7-0.6,1.3-1.3,1.3H1.3c-0.7,0-1.3-0.6-1.3-1.3s0.6-1.3,1.3-1.3h29.3C31.4,31.8,32,32.4,32,33.2z
	 M35.1,19.1l-3.2,7.2c-0.2,0.5-0.7,0.8-1.2,0.8l-2,0.1c-1.1,0-2.1,0.3-2.1,0.6c-0.1,0.3-0.1,1.3-0.7,1.9c-0.4,0.4-0.9,0.6-1.4,0.6
	H8.2c-0.6,0-1.1-0.2-1.4-0.6C6.2,29,6,27.3,5.6,26.3L2.8,17c-0.3-1.1-0.6-2.7,0-3.3c0.4-0.4,0.9-0.6,1.4-0.6h23.5
	c0.5,0,1,0.2,1.4,0.6c0.6,0.6,0.6,1.5,0.5,1.6c0,0.1,0.8,0.5,1.8,0.9l2.8,1.1c0.3,0.1,0.6,0.4,0.8,0.7
	C35.2,18.3,35.2,18.7,35.1,19.1z M30.5,18.7c-0.9-0.3-1.8,0.3-2,1.3l-0.6,2.5c-0.3,1.1,0,1.9,0.7,1.9s1.6-0.8,2-1.9l0.7-1.5
	C31.7,20.1,31.4,19,30.5,18.7z M12.6,11.2c0.4-0.4,0.4-1,0.1-1.4c-0.1-0.2-0.6-0.8,0.1-1.7c0.8-1.2,1.5-3.5,1-5.4
	c-0.3-1.2-0.9-2-1.9-2.6c-0.5-0.3-1.1-0.1-1.4,0.4c-0.2,0.5,0,1.1,0.5,1.4c0.4,0.2,0.7,0.7,0.9,1.3c0.3,1.3-0.1,3-0.7,3.8
	c-1.3,1.9-0.5,3.6,0.1,4.2c0.2,0.2,0.5,0.3,0.7,0.3S12.4,11.4,12.6,11.2z M18.9,11.2c0.4-0.4,0.4-1,0.1-1.4
	c-0.1-0.2-0.6-0.8,0.1-1.7c0.8-1.2,1.5-3.5,1-5.4c-0.3-1.2-0.9-2-1.9-2.6c-0.5-0.3-1.1-0.1-1.4,0.4s-0.1,1.1,0.4,1.4
	c0.4,0.2,0.7,0.7,0.9,1.3c0.3,1.3-0.1,3-0.7,3.8c-1.3,1.9-0.5,3.6,0.1,4.2c0.2,0.2,0.5,0.3,0.7,0.3C18.5,11.5,18.7,11.4,18.9,11.2z"
	/>
<text transform="matrix(1 0 0 1 0 49.505)" style="display:none;enable-background:new    ; font-family:'Arial-BoldMT'; font-size:5px;">Created by HLD</text>
<text transform="matrix(1 0 0 1 0 54.505)" style="display:none;enable-background:new    ; font-family:'Arial-BoldMT'; font-size:5px;">from the Noun Project</text>
</svg>
