<svg id="Layer_1" data-name="Layer 1" xmlns="http://www.w3.org/2000/svg" viewBox="0 0 467.32 329.23"><defs><style>.cls-1{fill:#ed1c24;}</style></defs><title>le-fr hat</title><path class="cls-1" d="M566.78,205.68c-28.78,28.37-59.1,56.19-65.55,102.06,16.31,4.46,33,7.44,48.48,13.58,39.3,15.61,80.3,28.86,116.14,50.49,21.53,13,38.76,37.83,50.53,61.09,16.25,32.09-2.29,71.48-37.2,71.75-111.08.85-223.27,33.09-333.22-7.5-18.51-6.83-37-15.17-53.39-26-42.46-28.06-48.95-70.82-19.34-112.53,20.9-29.45,48.15-50.16,84.39-53.34,34-3,68.42-2.71,102.56-1.44,14.63.55,21.44-2.64,24.65-17,4.93-22,11.1-43.8,17.36-65.5C513.24,183.09,529.68,178.45,566.78,205.68Z" transform="translate(-255.01 -188.36)"/></svg>