<svg xmlns="http://www.w3.org/2000/svg" viewBox="0 0 133.03 30"><defs><style>.cls-1{fill:#f5f6f6;}.cls-2{fill:#a8aaad;}.cls-3{isolation:isolate;}.cls-4{fill:#231f20;}.cls-5{fill:#ea272a;}.cls-6{fill:#3b5e93;}.cls-7{fill:#020202;}</style></defs><title>say thank you</title><g id="svg3780"><g id="path3719"><path class="cls-1" d="M1.45,29.79C.77,29.79.21,29,.21,28V3c0-1.52.87-2.76,2-2.76H130.87c1.08,0,1.95,1.24,1.95,2.76V28c0,1-.56,1.79-1.24,1.79Z"/><path class="cls-2" d="M130.87.42c.95,0,1.74,1.17,1.74,2.55V28c0,.86-.47,1.58-1,1.58H1.45c-.56,0-1-.72-1-1.58V3C.42,1.59,1.21.42,2.16.42H130.87m0-.42H2.16C1,0,0,1.33,0,3V28c0,1.11.65,2,1.45,2H131.58c.8,0,1.45-.89,1.45-2V3h0c0-1.64-1-3-2.16-3Z"/></g><g id="text3759" class="cls-3"><g class="cls-3"><path class="cls-4" d="M35.69,5.51v7.73h-1V6.35H31.11v6.89h-1V5.51Z"/><path class="cls-4" d="M42.42,10.42a2.71,2.71,0,0,1-2.76,2.94A2.64,2.64,0,0,1,37,10.51a2.71,2.71,0,0,1,2.75-2.95A2.63,2.63,0,0,1,42.42,10.42Zm-4.4.05c0,1.22.7,2.14,1.69,2.14s1.68-.91,1.68-2.16c0-.94-.47-2.13-1.66-2.13S38,9.42,38,10.47Z"/><path class="cls-4" d="M47.89,5.81a8.23,8.23,0,0,1-1.15.25,2.77,2.77,0,0,0-2,1,4,4,0,0,0-.6,1.84h0a2.12,2.12,0,0,1,1.93-1.25c1.36,0,2.36,1,2.36,2.74s-.94,2.93-2.57,2.93c-1.95,0-2.59-1.87-2.59-3.71a4.9,4.9,0,0,1,.86-3.07,3.32,3.32,0,0,1,2.38-1.31A8,8,0,0,0,47.94,5Zm-2,2.62a1.34,1.34,0,0,0-1.25.76,2.45,2.45,0,0,0-.27,1.18c0,.92.44,2.24,1.54,2.24s1.53-1.08,1.53-2.1S47.1,8.43,45.91,8.43Z"/><path class="cls-4" d="M54,7.69v5.55H53V8.48h-1.9V9.92c0,1.56-.15,2.61-.87,3.08a1.68,1.68,0,0,1-1.1.34l-.1-.79a1.43,1.43,0,0,0,.55-.23c.51-.38.57-1.16.57-2.4V7.69Z"/><path class="cls-4" d="M58.69,13.24l-.08-.7h0a2.07,2.07,0,0,1-1.69.82,1.58,1.58,0,0,1-1.7-1.59c0-1.34,1.19-2.08,3.33-2.06V9.59a1.14,1.14,0,0,0-1.26-1.28,2.78,2.78,0,0,0-1.44.41l-.23-.66a3.42,3.42,0,0,1,1.82-.5c1.7,0,2.11,1.16,2.11,2.27v2.08a7.73,7.73,0,0,0,.09,1.33Zm-.15-2.83c-1.1,0-2.35.17-2.35,1.24a.89.89,0,0,0,1,1,1.38,1.38,0,0,0,1.34-.93,1.2,1.2,0,0,0,.06-.32Z"/><path class="cls-4" d="M64.52,7.69V8.5h-2.4v4.74h-1V7.69Z"/><path class="cls-4" d="M70.35,10.42a2.71,2.71,0,0,1-2.76,2.94,2.63,2.63,0,0,1-2.66-2.85,2.71,2.71,0,0,1,2.75-2.95A2.63,2.63,0,0,1,70.35,10.42Zm-4.4.05c0,1.22.7,2.14,1.68,2.14s1.69-.91,1.69-2.16c0-.94-.47-2.13-1.67-2.13S66,9.42,66,10.47Z"/><path class="cls-4" d="M75.84,7.69v4.79h.58L76.36,15h-.79l0-1.76H71.68l0,1.76h-.8l0-2.51h.47a4.38,4.38,0,0,0,.55-1.13,7.31,7.31,0,0,0,.32-2.22V7.69ZM73,9.37a7.51,7.51,0,0,1-.28,2.07,5.71,5.71,0,0,1-.45,1h2.56v-4H73Z"/><path class="cls-4" d="M80.69,13.24l-.08-.7h0a2.09,2.09,0,0,1-1.7.82,1.58,1.58,0,0,1-1.69-1.59c0-1.34,1.19-2.08,3.33-2.06V9.59a1.14,1.14,0,0,0-1.26-1.28,2.78,2.78,0,0,0-1.44.41l-.23-.66a3.42,3.42,0,0,1,1.82-.5c1.7,0,2.11,1.16,2.11,2.27v2.08a7.73,7.73,0,0,0,.09,1.33Zm-.14-2.83c-1.1,0-2.35.17-2.35,1.24a.89.89,0,0,0,1,1,1.38,1.38,0,0,0,1.34-.93,1.2,1.2,0,0,0,.06-.32Z"/><path class="cls-4" d="M83.15,9.5c0-.71,0-1.28-.05-1.81H84l0,1h0a2.17,2.17,0,0,1,2-1.08c1.34,0,2.35,1.14,2.35,2.82,0,2-1.21,3-2.52,3a1.94,1.94,0,0,1-1.71-.87h0v3h-1Zm1,1.48a2.48,2.48,0,0,0,0,.41,1.56,1.56,0,0,0,1.52,1.18c1.06,0,1.68-.87,1.68-2.14,0-1.11-.58-2.07-1.65-2.07a1.61,1.61,0,0,0-1.52,1.25,1.48,1.48,0,0,0-.07.42Z"/><path class="cls-4" d="M90.6,7.69V10c0,.88,0,1.43,0,2.22h0c.33-.67.53-1.06.9-1.71l1.73-2.86h1.18v5.55h-1V10.89c0-.91,0-1.38.07-2.27h0c-.36.71-.6,1.16-.92,1.72-.53.86-1.13,1.92-1.73,2.9H89.65V7.69Z"/><path class="cls-4" d="M99.74,7.69v.8H98v4.75H97V8.49H95.28v-.8Z"/><path class="cls-4" d="M101,10.65a1.78,1.78,0,0,0,1.9,1.92,3.67,3.67,0,0,0,1.54-.28l.17.72a4.47,4.47,0,0,1-1.84.34,2.58,2.58,0,0,1-2.73-2.8c0-1.67,1-3,2.6-3A2.35,2.35,0,0,1,105,10.18a4.61,4.61,0,0,1,0,.47Zm3-.73a1.44,1.44,0,0,0-1.4-1.64,1.68,1.68,0,0,0-1.55,1.64Z"/><path class="cls-4" d="M109.63,7.69V9.92h2.64V7.69h1v5.55h-1V10.73h-2.64v2.51h-1V7.69Z"/><path class="cls-4" d="M118,13.24l-.08-.7h0a2.09,2.09,0,0,1-1.7.82,1.58,1.58,0,0,1-1.7-1.59c0-1.34,1.19-2.08,3.34-2.06V9.59a1.14,1.14,0,0,0-1.26-1.28,2.79,2.79,0,0,0-1.45.41l-.23-.66a3.46,3.46,0,0,1,1.83-.5c1.69,0,2.11,1.16,2.11,2.27v2.08a7.73,7.73,0,0,0,.09,1.33Zm-.15-2.83c-1.1,0-2.35.17-2.35,1.24a.9.9,0,0,0,1,1,1.38,1.38,0,0,0,1.34-.93.91.91,0,0,0,.06-.32Z"/><path class="cls-4" d="M124.4,13a3.67,3.67,0,0,1-1.59.32A2.64,2.64,0,0,1,120,10.52a2.82,2.82,0,0,1,3-2.95,3.3,3.3,0,0,1,1.4.29l-.23.78A2.29,2.29,0,0,0,123,8.38a1.92,1.92,0,0,0-2,2.09A1.91,1.91,0,0,0,123,12.55a2.84,2.84,0,0,0,1.24-.28Z"/></g></g><path id="path3761" class="cls-5" d="M23,6.27a.16.16,0,0,1-.1.18H8.76a.15.15,0,0,1-.15-.14v0l.25-.78a.26.26,0,0,1,.23-.19h.5a.24.24,0,0,0,.23-.18l.23-1.19a.23.23,0,0,1,.22-.18H21.32a.22.22,0,0,1,.22.18l.24,1.19A.23.23,0,0,0,22,5.3h.5a.26.26,0,0,1,.23.19Z"/><path id="path3763" class="cls-6" d="M21.67,11.1a.17.17,0,0,1,.17.17v.2a.21.21,0,0,1-.2.19H9.87a.21.21,0,0,1-.2-.19v-.18a.18.18,0,0,1,.17-.19H21.67Z"/><path id="path3765" class="cls-6" d="M21.56,12.47a.17.17,0,0,1,.17.17h0v.19a.21.21,0,0,1-.2.19H10a.21.21,0,0,1-.2-.19v-.19a.18.18,0,0,1,.16-.18H21.56Z"/><path id="path3767" class="cls-6" d="M21.47,13.84a.17.17,0,0,1,.17.17v.2a.19.19,0,0,1-.2.18H10.07a.2.2,0,0,1-.2-.18V14a.18.18,0,0,1,.16-.19H21.47Z"/><path id="path3769" class="cls-6" d="M21.36,15.21a.17.17,0,0,1,.17.16v.21a.21.21,0,0,1-.2.19H10.18a.19.19,0,0,1-.2-.19V15.4a.16.16,0,0,1,.16-.18H21.36Z"/><path id="path3771" class="cls-6" d="M21.26,16.58a.18.18,0,0,1,.18.18h0V17a.22.22,0,0,1-.2.19h-11a.22.22,0,0,1-.2-.19v-.18a.18.18,0,0,1,.16-.19h11Z"/><path id="path3773" class="cls-6" d="M21.18,17.91a.18.18,0,0,1,.17.17v.2a.2.2,0,0,1-.2.19H10.38a.2.2,0,0,1-.2-.19V18.1a.18.18,0,0,1,.17-.19H21.18Z"/><path id="path3775" class="cls-7" d="M22.19,6.44,21.87,10a.22.22,0,0,1-.2.19H9.93a.22.22,0,0,1-.2-.19L9.4,6.44H22.19Z"/><path id="path3777" class="cls-7" d="M21.12,19.36a.18.18,0,0,1,.18.17v0L21,23.42a.21.21,0,0,1-.2.19H10.84a.21.21,0,0,1-.2-.19l-.34-3.87a.18.18,0,0,1,.16-.19H21.12Z"/><g id="text3759-1" class="cls-3"><g class="cls-3"><path class="cls-4" d="M30.5,20.5H31c.85,0,1.42-.39,1.42-.91s-.45-.8-1.08-.8a2.67,2.67,0,0,0-1.34.39l-.25-.62a3.54,3.54,0,0,1,1.84-.5c.85,0,1.88.38,1.88,1.45a1.42,1.42,0,0,1-1.25,1.27v0a1.48,1.48,0,0,1,1.52,1.38c0,1.21-1.23,1.65-2.4,1.65a3.86,3.86,0,0,1-1.8-.44l.27-.68a3.16,3.16,0,0,0,1.46.38c.84,0,1.37-.4,1.37-.95,0-.75-.78-.95-1.62-.95h-.5Z"/><path class="cls-4" d="M38.05,23.72,38,23h0a2.07,2.07,0,0,1-1.7.83,1.59,1.59,0,0,1-1.7-1.6c0-1.34,1.2-2.07,3.34-2.06v-.11a1.15,1.15,0,0,0-1.26-1.29,2.82,2.82,0,0,0-1.45.41L35,18.54a3.39,3.39,0,0,1,1.82-.49c1.69,0,2.11,1.15,2.11,2.27v2.07A7.73,7.73,0,0,0,39,23.72Zm-.15-2.83c-1.1,0-2.35.17-2.35,1.25a.89.89,0,0,0,1,1,1.39,1.39,0,0,0,1.35-.93,1.13,1.13,0,0,0,0-.32Z"/><path class="cls-4" d="M43.91,18.17v2.24h2.64V18.17h1v5.55h-1V21.21H43.91v2.51h-1V18.17Z"/><path class="cls-4" d="M52.27,23.72l-.08-.7h0a2.07,2.07,0,0,1-1.7.83,1.58,1.58,0,0,1-1.69-1.6c0-1.34,1.19-2.07,3.33-2.06v-.11a1.14,1.14,0,0,0-1.26-1.29,2.76,2.76,0,0,0-1.44.41l-.23-.66A3.42,3.42,0,0,1,51,18.05c1.7,0,2.11,1.15,2.11,2.27v2.07a7.73,7.73,0,0,0,.09,1.33Zm-.15-2.83c-1.1,0-2.35.17-2.35,1.25a.9.9,0,0,0,1,1,1.38,1.38,0,0,0,1.34-.93,1.13,1.13,0,0,0,0-.32Z"/><path class="cls-4" d="M55.69,18.17v4.76h1.94V18.17h1v4.76h1.94V18.17h1v5.55H54.71V18.17Z"/><path class="cls-4" d="M69.37,18.17V19H67.64v4.74h-1V19H64.91v-.81Z"/><path class="cls-4" d="M70.26,20c0-.71,0-1.28-.05-1.81h.91l0,.95h0a2.18,2.18,0,0,1,2-1.07c1.34,0,2.35,1.13,2.35,2.82,0,2-1.22,3-2.52,3A2,2,0,0,1,71.28,23h0v3h-1Zm1,1.48a2.42,2.42,0,0,0,0,.41,1.56,1.56,0,0,0,1.51,1.19c1.07,0,1.69-.88,1.69-2.15,0-1.11-.59-2.06-1.65-2.06a1.61,1.61,0,0,0-1.53,1.25,1.76,1.76,0,0,0-.07.41Z"/><path class="cls-4" d="M77,18.17l1.21,3.28c.13.37.26.8.36,1.14h0c.1-.34.22-.76.35-1.16l1.1-3.26h1.07l-1.51,4C78.91,24,78.42,25,77.73,25.6a2.6,2.6,0,0,1-1.23.65l-.26-.85a2.66,2.66,0,0,0,.89-.49A3,3,0,0,0,78,23.79a.83.83,0,0,0,.08-.24,1.18,1.18,0,0,0-.07-.27l-2.06-5.11Z"/><path class="cls-4" d="M86.14,18.17V23l.57,0-.06,2.5h-.79l0-1.76H82l0,1.76h-.79l0-2.5.47,0a4.38,4.38,0,0,0,.55-1.13,7.57,7.57,0,0,0,.32-2.21V18.17Zm-2.81,1.69A7.12,7.12,0,0,1,83,21.92a5.07,5.07,0,0,1-.44,1h2.55v-4H83.33Z"/></g></g></g></svg>
