<?xml version="1.0" standalone="no"?>
<!DOCTYPE svg PUBLIC "-//W3C//DTD SVG 20010904//EN"
 "http://www.w3.org/TR/2001/REC-SVG-20010904/DTD/svg10.dtd">
<svg version="1.0" xmlns="http://www.w3.org/2000/svg"
 width="934.000000pt" height="934.000000pt" viewBox="0 0 934.000000 934.000000"
 preserveAspectRatio="xMidYMid meet">
<metadata>
Created by potrace 1.11, written by Peter Selinger 2001-2013
</metadata>
<g transform="translate(0.000000,934.000000) scale(0.100000,-0.100000)"
fill="#000000" stroke="none">
<path d="M5397 7950 c-164 -42 -286 -185 -392 -460 -61 -156 -287 -971 -378
-1360 -25 -107 -53 -215 -62 -240 -39 -111 -114 -187 -215 -218 -66 -20 -171
-21 -850 -8 -620 11 -1274 -13 -1581 -59 -344 -51 -659 -188 -964 -418 -106
-81 -372 -347 -471 -472 -417 -529 -562 -1021 -440 -1497 118 -460 475 -822
1134 -1152 692 -346 1444 -559 2262 -640 346 -34 494 -41 940 -40 605 0 935
20 2135 129 996 90 1518 124 1920 125 335 1 594 142 760 415 96 159 139 318
139 520 1 147 -9 208 -51 340 -64 199 -300 599 -511 865 -107 135 -331 353
-439 430 -333 234 -912 507 -1738 820 -99 38 -304 117 -455 175 -373 145 -511
189 -891 285 -178 45 -326 83 -328 85 -10 11 56 288 100 420 111 335 308 660
611 1008 40 45 190 201 335 347 l262 265 -72 50 c-195 135 -356 222 -492 265
-79 24 -211 34 -268 20z"/>
</g>
</svg>
