<svg version="1" xmlns="http://www.w3.org/2000/svg" width="1245.333" height="1245.333" viewBox="0 0 934.000000 934.000000"><path d="M371.3 140c-14.7 3.8-30.3 11.8-50.1 25.3l-10.2 7 24.8 25.1c26.7 27 36.4 37.6 49 53.4 31.5 39.6 49 77.3 56.6 122.4l.7 3.6-25.3 6.2c-25.5 6.2-45.6 11.6-55.8 14.9-7.8 2.6-109.5 41.7-133.2 51.2-54 21.7-105.9 47.9-128.4 64.7-30.8 23.1-63 64.4-85.5 109.7C2.8 645.9.7 654.2.7 676c-.1 14.6.2 17.6 2.5 26 8.2 30.4 28 53.3 54.6 63 10.9 4 19.1 4.8 59.2 6 48 1.5 78.4 3.6 175 12.5 107.6 9.8 143.3 11.9 203.5 12 48 0 65-.8 100-4.6 62.9-6.8 120.3-20.9 175.1-43 92.3-37.1 139.8-76 156.9-128.5 17.6-53.4-1-111.7-54.9-172.3-32-36-71.7-60.5-114.2-70.6-33.3-7.9-117.6-11.3-211.4-8.4-30.9.9-36.4.9-42.7-.5-9.3-1.9-13.8-4.1-18.5-8.9-6-6.2-8.2-12.3-16.2-45.1-11-44.6-28.1-106.5-34.7-125.1-14.1-40.3-34.7-56.1-63.6-48.5z"/></svg>