<svg width="136" height="59" viewBox="0 0 136 59" xmlns="http://www.w3.org/2000/svg"><title>641AFD14-7ECE-4A54-8BD2-2DAA13852501</title><g fill="none" fill-rule="evenodd"><path d="M71.776 48.847c.947 0 1.394-.432 1.394-1.066 0-.675-.5-1.079-1.408-1.079H70.37v2.145h1.407zm-.122-3.022c.785 0 1.177-.404 1.177-1.038 0-.62-.392-.944-1.217-.944h-1.245v1.982h1.285zm-2.597-2.886h2.827c1.38 0 2.287.607 2.287 1.753 0 .661-.352 1.228-.974 1.498v.013c.852.202 1.299.863 1.299 1.618 0 1.268-1.029 1.942-2.517 1.942h-2.922V42.94zM79.312 42.777c.907 0 1.921.31 2.571.998l-.622.917a2.78 2.78 0 0 0-1.895-.782c-1.38 0-2.38 1.04-2.38 2.428 0 1.389 1 2.455 2.421 2.455.758 0 1.583-.364 2.11-.918l.529.958c-.623.661-1.665 1.093-2.734 1.093-2.164 0-3.666-1.524-3.666-3.575 0-2.023 1.515-3.574 3.666-3.574M86.823 41.59h1.068v-1.362h-1.068v1.362zm-2.274 0h1.083v-1.362h-1.083v1.362zm3.383 3.993c-.04-1.174-.772-1.794-1.665-1.794-1.014 0-1.813.66-2.002 1.794h3.667zm-1.637-2.805c1.935 0 2.963 1.442 2.963 3.196 0 .175-.027.364-.055.553h-4.979c.068 1.47 1.123 2.266 2.355 2.266.73 0 1.474-.31 2.016-.796l.554.958c-.662.606-1.704.97-2.652.97-2.15 0-3.64-1.55-3.64-3.573 0-2.172 1.49-3.574 3.438-3.574zM94.224 42.94h5.98v6.824h-1.312V44.06h-3.356v5.705h-1.312V42.94M105.44 48.793c1.083 0 1.976-.877 1.976-2.428 0-1.484-.798-2.441-1.935-2.441-1.028 0-1.975.728-1.975 2.455 0 1.214.676 2.414 1.935 2.414m-3.207-5.854h1.218v.607c0 .283-.041.513-.041.513h.027c.433-.823 1.3-1.282 2.3-1.282 1.854 0 3.004 1.457 3.004 3.575 0 2.17-1.299 3.574-3.098 3.574-.866 0-1.651-.432-2.125-1.16h-.027a3 3 0 0 0 .054.593v3.102h-1.312V42.94M113.613 48.793c1.286 0 2.354-1.025 2.354-2.455 0-1.416-1.068-2.428-2.354-2.428-1.298 0-2.354 1.012-2.354 2.428 0 1.43 1.056 2.455 2.354 2.455m-.013-6.016c2.043 0 3.694 1.497 3.694 3.561 0 2.077-1.651 3.588-3.68 3.588-2.044 0-3.695-1.51-3.695-3.588 0-2.064 1.65-3.56 3.68-3.56M118.606 42.94h1.259v5.691h2.53v-5.692h1.272v5.692h2.53v-5.692h1.259v5.692h.973v2.751h-1.204v-1.618h-8.619V42.94M134.37 45.583c-.041-1.174-.772-1.794-1.665-1.794-1.015 0-1.813.66-2.003 1.794h3.667zm-1.638-2.806c1.935 0 2.963 1.443 2.963 3.197 0 .175-.027.364-.054.553h-4.98c.069 1.47 1.124 2.266 2.355 2.266.73 0 1.475-.31 2.016-.796l.555.958c-.663.606-1.705.97-2.652.97-2.151 0-3.64-1.55-3.64-3.573 0-2.172 1.489-3.575 3.437-3.575z" fill="#FF8C00"/><path d="M84.075 36.735c-.19.157-.411.125-.568-.064l-1.518-2.016c-1.39-1.86-3.161-3.025-6.45-3.025-6.196 0-10.084-4.443-10.084-11.502 0-7.09 3.888-11.534 10.085-11.534 6.196 0 10.053 4.443 10.053 11.534 0 3.592-1.264 7.247-3.383 8.508-.38.221-.38.315 0 .441 1.834.662 2.687 1.45 3.667 2.71L87.3 33.71c.158.19.126.41-.064.568l-3.16 2.458zm-8.535-9.643c3.066 0 4.9-2.647 4.9-6.964 0-4.412-1.834-6.965-4.9-6.965-3.003 0-4.931 2.553-4.931 6.965 0 4.317 1.928 6.964 4.93 6.964zM94.224 30.873c0 .253-.158.41-.41.41h-4.3c-.253 0-.411-.157-.411-.41V9.35c0-.252.158-.41.41-.41h4.3c.253 0 .411.158.411.41v21.523M123.498 24.508a97.432 97.432 0 0 0-1.454 6.397c-.032.252-.19.378-.443.378h-5.785c-.252 0-.41-.126-.442-.378-.348-1.827-.696-3.498-1.139-5.232l-.98-4.096c-.189-.819-.442-2.143-.632-3.246-.063-.441-.442-.441-.506 0a75.455 75.455 0 0 1-.632 3.246l-.98 4.096c-.41 1.734-.759 3.405-1.138 5.232-.031.252-.19.378-.442.378h-5.785c-.254 0-.412-.126-.443-.378a97.618 97.618 0 0 0-1.454-6.397L97.354 9.382c-.095-.253.063-.442.348-.442h4.362c.254 0 .412.127.475.347l2.15 8.508c.537 2.143.98 4.885 1.17 6.933.03.41.505.442.568 0 .284-2.017.79-4.79 1.391-6.933l2.308-8.508c.063-.22.22-.347.442-.347h3.604c.222 0 .38.127.443.347l2.34 8.508c.6 2.143 1.106 4.916 1.39 6.933.032.442.507.41.538 0 .158-2.048.632-4.79 1.17-6.933l2.15-8.508c.062-.22.22-.347.473-.347h4.363c.285 0 .443.19.347.442l-3.888 15.126M135.64 30.873c0 .253-.159.41-.411.41h-4.3c-.253 0-.411-.157-.411-.41V9.35c0-.252.158-.41.41-.41h4.3c.253 0 .411.158.411.41v21.523" fill="#0023A0"/><path d="M39.597 41.304c-.525 0-.963.182-1.232.513-.69.848-.38 2.34.676 3.26.462.402 1.126.642 1.778.642.663 0 1.217-.248 1.559-.699.615-.82.261-1.985-.9-2.964-.576-.485-1.244-.752-1.881-.752m5.79-4.26c-.514-.15-.898-.038-1.087.307-.287.523-.075 1.556.504 2.457.586.912 1.084 1.375 1.48 1.375a.462.462 0 0 0 .353-.165c.22-.252.294-.78.2-1.449-.092-.682-.512-2.086-1.45-2.525m11.47 20.693c.531.655-.276 1.321-.878.79-6.011-5.308-11.067-6.811-16.067-7.02-2.654-.11-5.291.143-8.05.386a188.224 188.224 0 0 1-2.406.197c-.972.105-1.957.16-2.957.16-4.704 0-9.144-1.149-13.196-3.417-4.067-2.274-7.3-5.45-9.607-9.441C1.393 35.41.226 31.01.226 26.313c0-4.691 1.166-9.11 3.466-13.134 2.304-4.029 5.5-7.237 9.497-9.533A25.717 25.717 0 0 1 26.15.186c4.807 0 9.3 1.15 13.355 3.418 4.066 2.274 7.308 5.46 9.637 9.471 2.325 4.006 3.503 8.417 3.503 13.113 0 1.812-.176 3.582-.522 5.304-.045.25-.11.552-.2.905-.068.282-.14.564-.217.844l-.021-.012c-.466 1.486-1.333 3.59-2.947 6.29-.174.284-.27.068-.292-.09-.565-3.973-2.312-6.99-5.39-8.939-.05-.032-.102-.062-.154-.093-.504-.31-1.043-.591-1.618-.844-.734-.322-1.525-.6-2.376-.83-.522-.14-1.686-.079-1.264-.496.175-.172 2.695-.211 5.592-.028l.17.01c.053-.605.081-1.226.081-1.863 0-4.957-1.646-8.999-5.032-12.355C35.066 10.632 31.104 9 26.34 9c-4.877 0-8.832 1.635-12.09 4.999-3.275 3.38-4.867 7.388-4.867 12.252 0 4.853 1.637 8.844 5.004 12.2 3.368 3.357 7.277 4.989 11.953 4.989.224 0 .446-.007.667-.014l-.013-.169c-.269-3.422-.326-6.264.38-5.118.249.406.497.789.744 1.158.922 1.374 1.834 2.504 2.743 3.442.045.047.09.093.137.139 3.324 3.363 6.596 4.19 10.074 5.041l.222.055c.57.14 1.144.281 1.727.436 4.133 1.1 8.61 2.873 13.835 9.328" fill="#FF8C00"/></g></svg>