<svg width="188" height="47" viewBox="0 0 188 47" xmlns="http://www.w3.org/2000/svg"><title>991E51C5-A726-447E-87AA-9778539AA26A</title><g fill="#0068A3" fill-rule="evenodd"><path d="M164.286.114c3.685 0 7.174.851 10.282 2.363.488.23.975.483 1.463.762l-2.16 1.92-3.246-3.332-5.478 4.85-3.253-3.525-10.205 9.13 6.542 7.155-2.57 2.245 6.443 7.166-2.556 2.24 9.208 10.171 5.466-4.994 4.725 5.352a25.092 25.092 0 0 1-3.092 2.038 23.423 23.423 0 0 1-11.569 3.042c-12.925 0-23.467-10.464-23.467-23.291 0-12.83 10.542-23.292 23.467-23.292"/><path d="M160.01 21.933l5.58-4.987 5.024 5.54-5.58 4.985-5.025-5.538M163.977 31.504l5.581-4.987 5.025 5.539-5.58 4.988-5.026-5.54M156.016 12.475l5.58-4.986 5.024 5.538-5.58 4.987-5.024-5.539M166.256 9.791l4.186-3.74 3.768 4.155-4.186 3.74-3.768-4.155M173.693 26.922l4.186-3.74 3.768 4.154-4.185 3.74-3.77-4.154M177.374 35.313l4.185-3.742 3.769 4.154-4.186 3.74-3.768-4.152M179.06 16.082l2.79-2.493 2.512 2.77-2.789 2.492-2.513-2.769M175.495 7.854l2.79-2.493 2.513 2.77-2.79 2.492-2.513-2.769M182.628 24.31l2.79-2.493 2.512 2.769-2.79 2.493-2.512-2.769M170.114 18.145l4.185-3.741 3.768 4.153-4.184 3.74-3.769-4.152M11.178 19.39h-.187L7.456 32.652H4.565L.227 13.81h2.998l3 14.058h.187l3.48-14.058h2.383l3.723 14.058h.187l2.73-14.058h3.134L17.71 32.652H14.82l-3.64-13.262M33.913 29.728v2.02c-1.204.691-2.81 1.223-4.739 1.223-4.498 0-6.345-2.764-6.345-6.964 0-4.038 2.062-6.962 6.078-6.962 3.346 0 5.408 2.153 5.408 6.484v.983h-8.728c0 3.189 1.312 4.598 4.07 4.598 1.445 0 2.784-.505 4.256-1.382zm-8.272-4.996h6.13c-.133-2.79-1.499-3.906-2.944-3.906-1.635 0-2.892 1.25-3.186 3.906zM39.535 20.03c.804-.426 2.169-.985 3.615-.985 3.32 0 5.114 2.286 5.114 6.539 0 4.968-2.409 7.387-6.292 7.387-1.42 0-3.615-.452-5.222-1.303V13.12l2.785-.665v7.574zm-.026 10.655c.856.372 1.794.425 2.463.425 1.982 0 3.48-1.222 3.48-5.526 0-3.376-1.23-4.465-3.025-4.465-1.071 0-1.847.292-2.918.877v8.689zM60.446 28.665h.135l5.73-14.855h3.32v18.842H66.74v-13.66h-.242l-5.462 13.66h-1.713l-5.463-13.34h-.24v13.34h-2.41V13.81h3.239l5.997 14.855M72.576 26.007c0-4.65 2.57-6.962 6.105-6.962 3.534 0 6.105 2.312 6.105 6.962 0 4.545-2.437 6.964-6.105 6.964-3.669 0-6.105-2.419-6.105-6.964zm9.398 0c0-3.587-1.473-5.1-3.293-5.1-1.768 0-3.294 1.513-3.294 5.1 0 3.642 1.393 5.103 3.294 5.103 1.9 0 3.293-1.46 3.293-5.103zM87.33 21.012c1.204-.718 3.748-1.967 6.826-1.967 3.214 0 4.418 1.25 4.418 3.986v9.62H95.79v-9.008c0-2.1-1.044-2.472-2.409-2.472-1.072 0-2.437.48-3.267.957v10.524h-2.785v-11.64M112.148 29.728v2.02c-1.204.691-2.81 1.223-4.738 1.223-4.498 0-6.346-2.764-6.346-6.964 0-4.038 2.063-6.962 6.078-6.962 3.348 0 5.41 2.153 5.41 6.484v.983h-8.729c0 3.189 1.312 4.598 4.07 4.598 1.445 0 2.784-.505 4.255-1.382zm-8.272-4.996h6.131c-.133-2.79-1.5-3.906-2.945-3.906-1.634 0-2.89 1.25-3.186 3.906zM122.967 19.497h2.865l-4.847 13.287c-1.339 3.668-2.973 5.58-6.05 5.58v-2.177c1.82 0 2.944-1.437 3.587-3.403l-5.14-13.287h2.945l3.427 9.779h.16l3.053-9.779"/></g></svg>