<svg id="Layer_1" data-name="Layer 1" xmlns="http://www.w3.org/2000/svg" viewBox="0 0 95 58"><defs><style>.cls-1{fill:#1972bc;fill-rule:evenodd;}</style></defs><title>flash cards</title><path class="cls-1" d="M17.2,58.13A16.69,16.69,0,0,1,8.86,27l.73-.42,0-.84a25.79,25.79,0,0,1,47.71-13l.6,1,1.1-.32a18.23,18.23,0,0,1,22.2,11.05l.27.72.74.2a16.69,16.69,0,0,1-4.41,32.79ZM35.38,3.56A22.74,22.74,0,0,0,12.67,26.28c0,.63,0,1.26.07,1.88l0,.38-.35.13A13.48,13.48,0,0,0,3.57,41.44,13.64,13.64,0,0,0,17.19,55.06H77.83A13.63,13.63,0,0,0,79.39,27.9l-.35,0L79,27.51A15,15,0,0,0,64.18,15.69,14.82,14.82,0,0,0,57,17.52l-.48.26-.22-.5A23.06,23.06,0,0,0,35.38,3.56ZM47.51,46A1.51,1.51,0,0,1,46,44.48V36.91H38.41a1.55,1.55,0,0,1-1.53-1.53,1.52,1.52,0,0,1,1.53-1.54H46V26.27a1.55,1.55,0,0,1,1.53-1.52A1.51,1.51,0,0,1,49,26.27v7.57h7.57a1.54,1.54,0,0,1,1.52,1.54,1.51,1.51,0,0,1-1.52,1.53H49v7.57A1.55,1.55,0,0,1,47.51,46Z"/></svg>
