<svg id="Layer_1" data-name="Layer 1" xmlns="http://www.w3.org/2000/svg" viewBox="0 0 70 80"><defs><style>.cls-1{fill:#1972bc;}</style></defs><title>flash cards</title><path class="cls-1" d="M35,80.23c-8.43,0-18.89-.67-21.19-2.53l.2-.2-10-59.38H-.08V9.33H3.13L5.89-.23H64l2.77,9.56H70v8.79H66.89L56.42,77.89,56,77.83l-.06,0C53.37,79.61,43.06,80.23,35,80.23ZM16.44,76.12l.13,0c2.61.73,9.33,1.47,18.46,1.47,9.58,0,16.8-.83,19-1.65l.1,0L56.22,64H14.41ZM14,61.39h42.7l4.95-28.24H9.23ZM8.79,30.55H62.07l2.18-12.43H6.7Zm-6.27-15h64.9V11.93H2.52Zm3.4-6.47H64L62.08,2.37H7.85Z"/><path class="cls-1" d="M33,55.31a7.51,7.51,0,0,1-5.38-2.11,7.66,7.66,0,0,1-2-6.35,11.74,11.74,0,0,1,3.48-7,11.48,11.48,0,0,1,8-3.54,7.51,7.51,0,0,1,5.38,2.12,7.67,7.67,0,0,1,2,6.53,11.82,11.82,0,0,1-3.47,6.8A11.49,11.49,0,0,1,33,55.31Zm7.8-14.51c-3.1,1.29-4.09,3.51-5.25,6.09a12.88,12.88,0,0,1-3.66,5.38l-.37.27.45.08a6.06,6.06,0,0,0,1,.09,9,9,0,0,0,6.12-2.77,9.24,9.24,0,0,0,2.73-5.29A5.36,5.36,0,0,0,41,40.87l-.1-.13ZM37,38.92a9,9,0,0,0-6.13,2.78c-2.76,2.77-3.59,6.67-1.91,9.07l.1.13.15-.06c2.15-1,3-2.85,4-5s2.1-4.7,4.81-6.47l.45-.29L37.87,39A5.91,5.91,0,0,0,37,38.92Z"/></svg>