<svg id="Layer_1" data-name="Layer 1" xmlns="http://www.w3.org/2000/svg" viewBox="0 0 32 32"><defs><style>.cls-1{fill:gray;}</style></defs><title>flash cards</title><path class="cls-1" d="M1,12.41A1.23,1.23,0,0,1-.22,11.18V1.33A1.23,1.23,0,0,1,1,.1h9.86A1.24,1.24,0,0,1,12.1,1.33a1.24,1.24,0,0,1-1.23,1.23H2.24v8.62A1.23,1.23,0,0,1,1,12.41Z"/><path class="cls-1" d="M30.57,12.41a1.24,1.24,0,0,1-1.23-1.23V2.56H20.72a1.23,1.23,0,0,1,0-2.46h9.85a1.24,1.24,0,0,1,1.24,1.23v9.85A1.24,1.24,0,0,1,30.57,12.41Z"/><path class="cls-1" d="M30.57,32.12H20.72a1.23,1.23,0,0,1,0-2.46h8.62V21a1.24,1.24,0,1,1,2.47,0v9.85A1.24,1.24,0,0,1,30.57,32.12Z"/><path class="cls-1" d="M10.87,32.12H1A1.23,1.23,0,0,1-.22,30.89V21A1.24,1.24,0,0,1,1,19.8,1.24,1.24,0,0,1,2.24,21v8.62h8.63a1.23,1.23,0,0,1,0,2.46Z"/></svg>