<svg id="Layer_1" data-name="Layer 1" xmlns="http://www.w3.org/2000/svg" viewBox="0 0 83 65"><defs><style>.cls-1{fill:#fff;}</style></defs><title>flash cards</title><path class="cls-1" d="M81.29,8.74,75.88,7.23V1.5a1.5,1.5,0,0,0-3,0V7.92l-.36.26v-4a1.5,1.5,0,1,0-3,0v6.17l-1.7,1.24c-3.3-4.15-8.37-6.54-14.68-6.54-6.76,0-12.1,2.33-16.28,7.12-4.18-4.79-9.52-7.12-16.28-7.12C9.12,5.06,1.71,12.89,1.71,25c0,10,6.34,18.73,13.5,25.36L6.27,57,7.81,53.9a1.5,1.5,0,1,0-2.68-1.34L.78,61.24a0,0,0,0,1,0,0,1.66,1.66,0,0,0-.12.42.25.25,0,0,0,0,.08,1.63,1.63,0,0,0,0,.44h0a1.4,1.4,0,0,0,.18.48,1.54,1.54,0,0,0,.17.19,1.3,1.3,0,0,0,.15.18h0a1.5,1.5,0,0,0,1,.35l.3,0,10.85-2.18a1.5,1.5,0,0,0-.58-2.94l-4.27.86,9.09-6.72A92.72,92.72,0,0,0,35.21,64.1a3.5,3.5,0,0,0,1.65.4,3.45,3.45,0,0,0,1.59-.37C39.82,63.47,72,47.63,72,25a22.64,22.64,0,0,0-2.55-10.89l1.92-1.4,5.75,1.6a1.83,1.83,0,0,0,.4,0,1.5,1.5,0,0,0,.4-2.94l-3.45-1L75,10.1l5.5,1.53a1.41,1.41,0,0,0,.4,0,1.5,1.5,0,0,0,.4-2.94ZM37.08,61.46a.63.63,0,0,1-.5,0A90,90,0,0,1,20,50.6L37.39,37.71a1.5,1.5,0,1,0-1.78-2.42l-18,13.29C10.79,42.37,4.71,34.26,4.71,25c0-10.61,5.93-17,15.87-17,6.5,0,11.29,2.35,15.08,7.41l1.2,1.6,1.2-1.6c3.78-5.06,8.58-7.41,15.08-7.41C63.08,8.06,69,14.4,69,25,69,45.77,38.44,60.8,37.08,61.46Z"/><path class="cls-1" d="M34.86,31.19a1.5,1.5,0,0,0,1.78,2.42A1.85,1.85,0,0,1,38,33.26a1.89,1.89,0,0,1,1.22.74,1.84,1.84,0,0,1,.34,1.38,1.82,1.82,0,0,1-.73,1.22,1.5,1.5,0,0,0,.89,2.71,1.55,1.55,0,0,0,.89-.29,4.86,4.86,0,0,0-5.77-7.83Z"/></svg>