<svg id="Layer_1" data-name="Layer 1" xmlns="http://www.w3.org/2000/svg" viewBox="0 0 71 60"><defs><style>.cls-1{fill:#fff;}</style></defs><title>flash cards</title><path class="cls-1" d="M35.51,59.5a3.46,3.46,0,0,1-1.64-.4C32.55,58.47.36,42.63.36,20c0-12.12,7.41-20,18.87-20,6.76,0,12.1,2.33,16.28,7.12C39.69,2.39,45,.06,51.79.06c11.46,0,18.87,7.83,18.87,20,0,22.62-32.19,38.46-33.56,39.12A3.45,3.45,0,0,1,35.51,59.5ZM19.23,3.06C9.29,3.06,3.36,9.4,3.36,20c0,20.76,30.57,35.79,31.87,36.42a.63.63,0,0,0,.5,0C37.09,55.8,67.66,40.77,67.66,20c0-10.61-5.93-17-15.87-17-6.5,0-11.29,2.35-15.08,7.41l-1.2,1.6-1.2-1.6C30.52,5.41,25.73,3.06,19.23,3.06Z"/></svg>