<?xml version="1.0" encoding="utf-8"?>
<!-- Generator: Adobe Illustrator 23.0.3, SVG Export Plug-In . SVG Version: 6.00 Build 0)  -->
<svg version="1.1" id="Layer_1" xmlns="http://www.w3.org/2000/svg" xmlns:xlink="http://www.w3.org/1999/xlink" x="0px" y="0px"
	 viewBox="0 0 35 33.4" style="enable-background:new 0 0 35 33.4;" xml:space="preserve">
<style type="text/css">
	.st0{fill:#FFFFFF;}
</style>
<title>key</title>
<path class="st0" d="M32.1,1c-0.7-0.7-1.9-0.8-2.7-0.1l0,0l-18,18C7.8,16.8,3.2,18,1.1,21.7S0.2,30,3.9,32.1
	c3.6,2.1,8.3,0.8,10.4-2.8c1.3-2.3,1.3-5.2,0-7.5l11.2-11.2l2.8,2.8c0.6,0.6,1.6,0.6,2.3,0l4-4c0.6-0.6,0.6-1.6,0-2.3l-2.9-2.8
	l0.6-0.6l0,0C32.9,2.9,32.9,1.7,32.1,1z M10.1,28c-1.4,1.4-3.7,1.4-5.1,0c-1.4-1.4-1.4-3.7,0-5.1s3.7-1.4,5.1,0c0,0,0,0,0,0
	C11.5,24.3,11.6,26.6,10.1,28L10.1,28z"/>
</svg>
