<?xml version="1.0" encoding="UTF-8" standalone="no"?>
<!-- Created with Inkscape (http://www.inkscape.org/) -->

<svg
   xmlns:dc="http://purl.org/dc/elements/1.1/"
   xmlns:cc="http://creativecommons.org/ns#"
   xmlns:rdf="http://www.w3.org/1999/02/22-rdf-syntax-ns#"
   xmlns:svg="http://www.w3.org/2000/svg"
   xmlns="http://www.w3.org/2000/svg"
   xmlns:sodipodi="http://sodipodi.sourceforge.net/DTD/sodipodi-0.dtd"
   xmlns:inkscape="http://www.inkscape.org/namespaces/inkscape"
   width="135.91139mm"
   height="135.86011mm"
   viewBox="0 0 135.91139 135.86011"
   version="1.1"
   id="svg4694"
   sodipodi:docname="keyhole_02.svg"
   inkscape:version="0.92.3 (2405546, 2018-03-11)">
  <defs
     id="defs4688" />
  <sodipodi:namedview
     id="base"
     pagecolor="#ffffff"
     bordercolor="#666666"
     borderopacity="1.0"
     inkscape:pageopacity="0.0"
     inkscape:pageshadow="2"
     inkscape:zoom="0.35"
     inkscape:cx="-431.08732"
     inkscape:cy="-539.75354"
     inkscape:document-units="mm"
     inkscape:current-layer="layer1"
     showgrid="false"
     inkscape:window-width="2560"
     inkscape:window-height="1537"
     inkscape:window-x="-8"
     inkscape:window-y="-8"
     inkscape:window-maximized="1" />
  <metadata
     id="metadata4691">
    <rdf:RDF>
      <cc:Work
         rdf:about="">
        <dc:format>image/svg+xml</dc:format>
        <dc:type
           rdf:resource="http://purl.org/dc/dcmitype/StillImage" />
        <dc:title></dc:title>
      </cc:Work>
    </rdf:RDF>
  </metadata>
  <g
     inkscape:label="Layer 1"
     inkscape:groupmode="layer"
     id="layer1"
     transform="translate(-26.91362,-84.305067)">
    <g
       id="g55"
       transform="matrix(0.9043883,0,0,0.9043883,42.72424,-61.70071)">
      <path
         style="fill:#b9b9b9;fill-opacity:1;stroke-width:0.26458335"
         d="m 50.646233,311.32228 c -33.791309,-3.28649 -60.921909,-28.35685 -66.967867,-61.88247 -0.549756,-3.04846 -1.160131,-9.88138 -1.16048,-12.99112 -5.53e-4,-4.9317 0.850576,-11.9096 2.100953,-17.22446 6.7881473,-28.85372 30.610689,-51.34115 59.941977,-56.58258 3.23038,-0.57726 10.027933,-1.20018 13.096875,-1.20018 3.068942,0 9.866495,0.62292 13.096875,1.20018 29.331284,5.24143 53.153834,27.72886 59.941974,56.58258 1.2624,5.36594 2.10125,12.29505 2.10125,17.35675 0,3.14717 -0.58881,9.65812 -1.16288,12.85883 -2.77843,15.49115 -9.99589,29.29197 -21.10401,40.35388 -15.776463,15.71085 -37.905491,23.66625 -59.884667,21.52859 z m 11.90625,-5.94981 c 14.443932,-1.17965 27.069857,-6.13267 38.232297,-14.99813 2.88656,-2.29258 8.3709,-7.77649 10.6671,-10.66628 6.30623,-7.93644 10.79049,-16.99611 13.12391,-26.51458 3.98134,-16.24067 2.111,-32.80955 -5.38073,-47.6667 -3.36522,-6.67368 -7.43681,-12.26856 -12.83166,-17.6323 -5.45826,-5.42678 -10.913696,-9.42081 -17.352583,-12.70418 -8.428101,-4.29772 -16.278239,-6.49921 -26.127605,-7.32724 -4.869217,-0.40935 -5.581825,-0.40935 -10.451042,0 -9.841204,0.82734 -17.649018,3.01821 -26.127604,7.33141 -6.446293,3.27933 -11.959805,7.31622 -17.3384853,12.6949 -5.487686,5.48768 -9.49071547,10.9839 -12.8457539,17.63741 -8.6655108,17.1849 -9.7882278,36.91216 -3.1297378,54.99265 7.40678037,20.1124 24.424,36.05589 45.01237,42.17222 7.921451,2.35329 16.752316,3.31762 24.549524,2.68082 z M 36.278064,266.94192 c 1.873162,-6.73034 3.630178,-13.07042 3.90448,-14.08907 0.274301,-1.01864 1.341863,-4.9102 2.372354,-8.64791 1.030494,-3.7377 1.870557,-6.95239 1.866803,-7.14375 -0.0038,-0.19135 -0.595906,-0.74748 -1.315898,-1.23584 -1.868495,-1.26736 -4.783981,-4.43087 -6.054656,-6.56973 -2.315551,-3.89765 -3.321206,-7.63574 -3.296626,-12.25381 0.03096,-5.81704 1.99894,-10.9645 5.868712,-15.35022 2.709722,-3.071 7.211476,-5.84381 11.419875,-7.03395 2.180685,-0.6167 8.87876,-0.69845 11.1125,-0.13562 8.330128,2.09891 14.604603,8.09902 17.10381,16.3559 0.609806,2.01468 0.707903,2.8252 0.730017,6.0316 0.03225,4.67545 -0.513009,7.06779 -2.514589,11.03289 -1.093579,2.16638 -2.440684,3.94726 -4.529474,5.98802 l -1.7145,1.67507 0.324911,1.36764 c 0.178702,0.75219 0.823857,3.27263 1.433677,5.60096 2.319033,8.85421 2.705666,10.33976 5.440071,20.90209 3.6552,14.11912 3.81553,14.73338 3.988258,15.27969 0.138713,0.43872 -1.157364,0.46302 -24.69954,0.46302 H 32.872315 Z M 74.591025,272.96 c 0,-0.0734 -0.290936,-1.23427 -0.646525,-2.57969 -0.35559,-1.34541 -1.493542,-5.72042 -2.52878,-9.72225 -1.03524,-4.00182 -2.224828,-8.58573 -2.643531,-10.18646 -0.418701,-1.60072 -1.316014,-5.05354 -1.99403,-7.67291 -0.678016,-2.61938 -1.518909,-5.83406 -1.868651,-7.14375 -0.349745,-1.30969 -0.636199,-2.50226 -0.636567,-2.65017 -2.64e-4,-0.1479 0.681003,-0.67663 1.514155,-1.17496 1.915734,-1.14586 4.704453,-3.95416 5.846043,-5.88712 1.681845,-2.84771 2.250901,-4.9849 2.274962,-8.544 0.01783,-2.63594 -0.08426,-3.51192 -0.601218,-5.15938 -0.852951,-2.71818 -2.375191,-5.21905 -4.382199,-7.19945 -1.999064,-1.97257 -3.899434,-3.16738 -6.54817,-4.11703 -1.707251,-0.61209 -2.354448,-0.69737 -5.380281,-0.70892 -3.398891,-0.013 -4.188217,0.12035 -6.614584,1.11733 -4.755798,1.95412 -8.676505,6.46305 -10.060196,11.56953 -0.611222,2.2557 -0.568407,6.64008 0.08657,8.86528 1.450089,4.92647 4.570801,8.59076 9.378183,11.01172 1.035518,0.52148 1.786064,1.06965 1.786064,1.30448 0,0.35091 -1.580284,6.23363 -3.834101,14.27269 -1.301985,4.64401 -6.449094,23.29453 -6.62646,24.01094 l -0.180139,0.7276 h 16.829725 c 9.256351,0 16.829726,-0.0601 16.829726,-0.13348 z"
         id="path69"
         inkscape:connector-curvature="0" />
      <path
         style="fill:#a3a3a3;fill-opacity:1;stroke-width:0.26458335"
         d="M 53.424358,311.54492 C 37.908082,310.43357 24.614534,305.53084 12.41394,296.42006 8.3600367,293.39281 0.79672352,285.83291 -2.1879644,281.82473 -12.248813,268.31389 -17.284205,253.35108 -17.324667,236.84556 c -0.04114,-16.7822 4.974328,-31.86115 15.1367026,-45.50833 2.98468792,-4.00818 10.5480011,-11.56808 14.6019044,-14.59533 16.511162,-12.32969 36.394888,-17.3863 56.499383,-14.3683 12.196816,1.83093 23.742306,6.71242 33.988117,14.37034 4.08302,3.05173 11.64597,10.60751 14.60713,14.59329 10.17971,13.70205 15.17264,28.71844 15.13148,45.50833 -0.0405,16.50552 -5.07586,31.46833 -15.1367,44.97917 -3.00601,4.0368 -10.5651,11.5959 -14.60191,14.6019 -10.318849,7.68394 -21.959428,12.59338 -34.055443,14.36295 -5.187296,0.75888 -11.236,1.05513 -15.421639,0.75534 z m 13.263295,-6.55033 c 12.056193,-1.6336 23.163031,-6.27137 33.109486,-13.82518 3.475991,-2.63983 9.809151,-8.97299 12.448981,-12.44898 5.49454,-7.23493 9.41741,-15.01161 11.78068,-23.35403 4.11083,-14.51135 3.39135,-29.52702 -2.10447,-43.92084 -1.31569,-3.44584 -4.38239,-9.32061 -6.62956,-12.7 -7.04881,-10.60027 -16.252192,-18.67316 -27.60487,-24.21404 -18.980373,-9.2637 -41.006438,-9.26128 -60.060418,0.007 -7.323942,3.56238 -12.755443,7.44935 -18.6593693,13.35327 -5.8117238,5.81173 -9.74657021,11.27946 -13.237795,18.39479 -7.5420197,15.3711 -9.1146107,32.75101 -4.4388168,49.05673 2.4542275,8.55854 6.259174,16.11093 11.777758,23.37751 2.6398353,3.47599 8.9729921,9.80915 12.4489851,12.44898 10.763123,8.17403 22.857481,12.90042 36.318614,14.19306 3.273377,0.31434 11.279661,0.11601 14.850795,-0.36788 z M 33.051441,278.98663 c 0,-0.26631 11.149023,-40.78163 11.496998,-41.77985 0.05756,-0.16513 -0.451882,-0.69665 -1.132105,-1.18115 -6.75459,-4.81106 -10.471102,-13.08199 -9.557988,-21.27087 1.056883,-9.47822 7.384817,-17.07312 16.574244,-19.89271 2.095568,-0.64298 2.743425,-0.71605 6.431351,-0.72533 4.639167,-0.0117 5.988825,0.26444 9.748182,1.99437 8.667676,3.98856 14.001022,12.85557 13.439246,22.34354 -0.352859,5.9595 -2.812397,11.26316 -7.148672,15.41516 l -1.74875,1.67443 1.567236,5.99849 c 0.86198,3.29916 2.240126,8.61785 3.062549,11.81931 0.822423,3.20146 1.94809,7.54724 2.501482,9.65729 0.553395,2.11006 1.685782,6.44444 2.516418,9.63197 0.830635,3.18753 1.571731,5.95574 1.646878,6.15156 0.113887,0.29679 -3.986007,0.35606 -24.630219,0.35606 -13.621769,0 -24.76685,-0.0865 -24.76685,-0.19227 z m 41.536816,-6.09159 c -0.0016,-0.10914 -1.414211,-5.61578 -3.139308,-12.23698 -6.010251,-23.0683 -7.226665,-27.81919 -7.135817,-27.87 1.562528,-0.87393 4.27202,-2.9871 5.325525,-4.15346 8.646036,-9.57222 3.92774,-24.90882 -8.663117,-28.15905 -2.009421,-0.51871 -5.864088,-0.51626 -8.076335,0.005 -5.975742,1.4084 -10.881352,6.20099 -12.577575,12.28779 -0.626417,2.24786 -0.641633,6.39383 -0.03197,8.71076 1.294062,4.9179 4.430964,8.70743 9.232093,11.15282 1.151711,0.58661 2.050521,1.21461 2.050521,1.4327 0,0.21356 -1.429514,5.54028 -3.176696,11.83715 -1.747184,6.29687 -3.471087,12.52042 -3.830894,13.83011 -0.359809,1.30969 -1.311547,4.75474 -2.114971,7.65567 -0.803425,2.90093 -1.460772,5.37148 -1.460772,5.4901 0,0.11863 7.560469,0.21569 16.801042,0.21569 9.240573,0 16.799796,-0.0893 16.798274,-0.19844 z"
         id="path67"
         inkscape:connector-curvature="0" />
      <path
         style="fill:#8c8c8c;fill-opacity:1;stroke-width:0.26458335"
         d="M 52.762899,311.46078 C 37.483362,310.32543 24.087693,305.2379 11.752482,295.88547 8.319656,293.28274 0.92880088,285.88262 -1.7067429,282.40937 -10.120485,271.32133 -15.082077,259.20577 -16.844662,245.44452 c -0.593753,-4.63568 -0.595422,-13.14173 -0.0035,-17.72708 1.798498,-13.93165 6.648941,-25.77308 15.1413971,-36.96485 2.63554372,-3.47325 10.0263988,-10.87337 13.4592249,-13.4761 11.25968,-8.53697 23.175005,-13.42614 37.041667,-15.19915 4.607248,-0.58908 13.125355,-0.58867 17.727084,8.8e-4 13.855684,1.77508 25.802567,6.67691 37.041669,15.19828 3.40444,2.5812 10.81808,9.99485 13.39929,13.39928 8.52136,11.2391 13.4232,23.18599 15.19827,37.04167 0.59015,4.60646 0.59007,13.12165 -1.6e-4,17.72708 -1.78645,13.93933 -6.88651,26.25803 -15.49992,37.43854 -2.54627,3.30514 -9.76473,10.4698 -13.09748,12.99987 -11.192536,8.49683 -23.51614,13.55683 -36.909377,15.15476 -4.30701,0.51387 -10.237854,0.69451 -13.890626,0.42309 z m 14.234841,-6.47559 c 17.191141,-2.29791 33.56503,-11.62234 44.61945,-25.40942 5.73981,-7.15869 10.69607,-17.09086 12.95,-25.95136 6.04706,-23.77171 -1.11217,-49.18888 -18.6639,-66.26187 -3.83482,-3.73022 -6.402072,-5.80507 -10.542473,-8.5204 -10.028449,-6.57681 -21.004573,-10.24532 -33.236869,-11.10865 -24.55526,-1.73306 -48.508657,10.25974 -62.20510141,31.14436 -15.02725259,22.91387 -15.02725259,52.49239 0,75.40625 9.05479321,13.80694 22.78455441,23.99113 38.55289341,28.59699 3.668578,1.07158 9.167847,2.12128 12.968243,2.47539 3.583344,0.33388 11.738192,0.13926 15.557757,-0.37129 z M 33.050986,278.98046 c -5.3e-4,-0.18841 6.36873,-23.30151 9.933974,-36.04948 l 1.66492,-5.95313 -0.686575,-0.52916 c -4.102241,-3.16174 -5.968728,-5.32899 -7.747397,-8.99584 -2.013114,-4.15016 -2.751905,-8.15063 -2.323545,-12.58173 0.919578,-9.51246 7.617368,-17.43454 17.029439,-20.14227 1.794517,-0.51626 2.692156,-0.60309 6.074431,-0.58757 3.530936,0.0162 4.231439,0.0978 6.35,0.73933 8.018732,2.42835 13.872816,8.4828 16.040346,16.58937 0.825072,3.08576 0.82481,8.4078 -5.29e-4,11.47068 -1.122466,4.16537 -3.554682,8.20603 -6.750701,11.21499 l -1.498854,1.41112 1.461865,5.60033 c 0.804024,3.08019 2.52367,9.70799 3.821436,14.72846 2.644703,10.23116 4.788413,18.49275 5.543796,21.36511 l 0.504465,1.91823 H 57.759765 c -13.589561,0 -24.708496,-0.0893 -24.708748,-0.19844 z m 41.537845,-6.08542 c -0.0013,-0.10914 -0.587271,-2.46062 -1.302369,-5.22552 -4.449657,-17.2044 -8.790911,-33.93125 -8.906132,-34.31532 -0.09872,-0.32905 0.361651,-0.77559 1.726896,-1.67501 3.649321,-2.40419 6.268786,-6.03417 7.443044,-10.31437 0.479338,-1.74721 0.552831,-2.55868 0.442228,-4.88287 -0.226153,-4.75234 -1.717646,-8.12447 -5.105379,-11.54279 -2.053662,-2.0722 -4.987968,-3.7305 -7.911579,-4.47118 -2.041404,-0.51717 -6.205281,-0.51333 -8.223197,0.008 -4.876467,1.25882 -8.928339,4.54997 -11.240332,9.13 -1.308721,2.59257 -1.686739,4.32365 -1.672902,7.66084 0.0109,2.62638 0.116023,3.34957 0.768334,5.28532 1.481686,4.39694 4.39573,7.75096 8.63771,9.94185 1.279916,0.66105 2.327121,1.32138 2.327121,1.46739 0,0.31854 -1.950728,7.46572 -6.898653,25.27566 -2.026573,7.29461 -3.68468,13.39656 -3.68468,13.5599 0,0.21645 4.555077,0.29697 16.801042,0.29697 9.240573,0 16.800055,-0.0893 16.798848,-0.19844 z"
         id="path65"
         inkscape:connector-curvature="0" />
      <path
         style="fill:#767676;fill-opacity:1;stroke-width:0.26458335"
         d="M 55.276441,311.53065 C 42.986333,311.20436 30.323875,307.5277 19.597399,301.17091 1.0459293,290.17681 -12.087578,271.53573 -16.029406,250.6039 c -1.155066,-6.13362 -1.561632,-15.88665 -0.913122,-21.9047 2.53906,-23.56203 16.08642322,-44.58686 36.539927,-56.70815 9.076701,-5.37909 19.602863,-8.87065 30.178511,-10.01029 3.310075,-0.35669 12.453488,-0.35669 15.763563,0 23.563263,2.5392 44.586217,16.08535 56.708147,36.53993 5.3791,9.0767 8.87065,19.60286 10.01029,30.17851 0.3567,3.31007 0.3567,12.45349 0,15.76356 -2.53962,23.5672 -16.08193,44.58419 -36.539927,56.70815 -8.708787,5.16106 -18.751301,8.58113 -29.064458,9.89817 -2.056117,0.26258 -8.707777,0.53244 -11.377084,0.46157 z m 11.90625,-6.53994 c 14.61252,-2.0847 27.85517,-8.59328 38.426139,-18.88589 11.35386,-11.05491 18.15792,-24.38638 20.48195,-40.13113 0.34511,-2.33806 0.46865,-4.81401 0.46865,-9.39271 0,-4.5787 -0.12354,-7.05465 -0.46865,-9.39271 -1.77685,-12.03774 -6.02031,-22.25946 -13.34549,-32.14687 -2.97388,-4.0141 -9.55761,-10.59376 -13.595449,-13.58704 -9.821265,-7.28058 -20.076581,-11.53181 -32.099441,-13.30647 -4.481277,-0.66146 -14.38211,-0.65845 -18.785417,0.006 -15.120364,2.28068 -27.941837,8.56649 -38.5584261,18.90353 -11.2905675,10.99328 -18.2145547,24.55619 -20.4872989,40.13113 -0.64826,4.44247 -0.645433,14.37656 0.0053,18.78542 1.7779734,12.04533 6.0372572,22.30055 13.3515207,32.14687 3.0020022,4.04124 9.5847063,10.62399 13.5894183,13.58951 10.96245,8.11778 22.416114,12.47166 36.200483,13.76088 2.37381,0.22202 12.105132,-0.0934 14.816667,-0.48024 z m -34.13125,-25.93877 c 0,-0.1719 2.206773,-8.20245 6.638134,-24.1565 2.032293,-7.31678 3.979121,-14.36461 4.326281,-15.66183 l 0.631201,-2.35859 -1.958621,-1.47418 c -2.644558,-1.99045 -4.860345,-4.72694 -6.435648,-7.94799 -2.014498,-4.11908 -2.278166,-5.33913 -2.258579,-10.45104 0.01598,-4.17205 0.05384,-4.47707 0.853623,-6.87916 2.527546,-7.59127 8.786048,-13.43581 16.592151,-15.49469 2.828644,-0.74606 8.294505,-0.70127 11.201567,0.0918 8.617643,2.35095 14.925974,8.86988 16.874061,17.43739 0.62661,2.75578 0.62361,7.21112 -0.0067,9.98412 -1.019617,4.48558 -3.453289,8.77567 -6.702449,11.8151 l -1.716233,1.60545 2.178743,8.38093 c 1.198309,4.60952 2.631747,10.10734 3.185422,12.2174 3.529317,13.45025 5.809568,22.36411 5.809568,22.71054 0,0.23235 -6.056631,0.30821 -24.606251,0.30821 -13.533438,0 -24.60625,-0.0571 -24.60625,-0.12696 z m 41.539584,-6.29451 c 0,-0.18482 -0.228132,-1.16709 -0.506963,-2.18281 -0.278829,-1.01572 -1.06049,-3.98989 -1.737027,-6.60926 -0.676537,-2.61938 -1.571582,-6.07219 -1.988994,-7.67292 -0.41741,-1.60073 -1.421416,-5.47026 -2.231123,-8.59896 -2.54417,-9.83063 -3.599932,-13.87619 -3.738909,-14.32708 -0.09681,-0.31409 0.378939,-0.77781 1.69699,-1.65404 12.135694,-8.0678 9.96129,-26.08699 -3.728181,-30.89527 -1.250696,-0.4393 -2.453177,-0.60897 -4.909285,-0.69274 -2.93642,-0.10014 -3.464074,-0.0447 -5.423959,0.5698 -6.990239,2.19174 -11.700793,8.07078 -12.256201,15.29645 -0.546042,7.10382 3.685677,14.08259 10.31776,17.01561 0.817928,0.36172 1.487141,0.771 1.487141,0.9095 0,0.2704 -10.167218,37.23538 -10.575716,38.45017 l -0.244673,0.7276 h 16.91957 c 13.502069,0 16.91957,-0.0679 16.91957,-0.33605 z"
         id="path63"
         inkscape:connector-curvature="0" />
      <path
         style="fill:#606060;fill-opacity:1;stroke-width:0.26458335"
         d="m 49.720191,311.15775 c -12.287179,-1.43671 -23.31906,-5.4224 -33.183749,-11.9889 -5.172768,-3.44329 -7.6217831,-5.45714 -12.0600019,-9.91706 -10.452341,-10.50346 -17.4161431,-23.50402 -20.3475821,-37.98644 -1.807912,-8.93176 -1.807912,-20.43698 0,-29.36874 2.35247,-11.6221 7.6842346,-22.9786 15.21685875,-32.41146 2.30892085,-2.89139 8.32474965,-8.90722 11.21614025,-11.21614 5.345176,-4.2684 13.313095,-8.9636 19.05,-11.22547 9.466451,-3.7323 17.891176,-5.33484 28.045834,-5.33484 15.13385,0 28.800653,4.08308 41.123802,12.2861 5.125557,3.41188 7.590927,5.44042 12.058017,9.92151 11.94326,11.9807 19.30921,27.22911 21.28652,44.06571 0.52305,4.45375 0.52305,12.74417 0,17.19792 -1.97709,16.83476 -9.3285,32.05477 -21.28709,44.07185 -4.4377,4.4594 -6.88728,6.4738 -12.057447,9.91537 -9.734566,6.47991 -20.730544,10.49702 -32.524843,11.88215 -3.759031,0.44147 -13.161037,0.50312 -16.536459,0.10844 z m 17.731214,-6.1579 c 21.863511,-3.06954 41.569765,-17.18437 51.692545,-37.02538 3.44162,-6.74569 5.33117,-12.45132 6.67836,-20.16579 0.68171,-3.90367 0.73603,-4.73604 0.73272,-11.2277 -0.004,-7.39004 -0.31179,-10.27363 -1.72402,-16.13958 -6.89041,-28.62062 -31.497029,-49.91367 -60.823319,-52.63275 -28.379595,-2.6313 -55.5989974,12.60908 -68.2485363,38.21296 -3.11118,6.29732 -5.0162514,12.17471 -6.2660857,19.33167 -0.680739,3.89814 -0.73629,4.74523 -0.73629,11.2277 0,6.48247 0.05555,7.32956 0.73629,11.2277 1.2498343,7.15696 3.1549057,13.03435 6.2660857,19.33167 10.5323351,21.31846 31.4100563,35.78609 55.1516613,38.21846 3.251449,0.33311 13.139592,0.11852 16.540589,-0.35896 z M 33.051441,279.07139 c 0,-0.0591 1.47905,-5.4467 3.286778,-11.97239 1.807729,-6.52569 4.371256,-15.79396 5.696728,-20.59615 1.325473,-4.80218 2.466729,-8.91726 2.536124,-9.14461 0.08463,-0.27727 -0.557019,-0.9515 -1.94886,-2.04782 -10.734805,-8.45549 -11.824179,-24.37576 -2.336101,-34.14012 3.056972,-3.14598 6.696524,-5.29452 10.889289,-6.42827 2.878455,-0.77835 8.401945,-0.83658 11.112501,-0.11715 5.089186,1.35076 9.57041,4.19039 12.578418,7.9706 5.689992,7.15071 6.742484,16.78569 2.715335,24.85737 -1.198857,2.40289 -3.176747,5.05734 -5.031275,6.75227 l -1.478216,1.35101 2.451528,9.44211 c 1.348341,5.19316 3.150357,12.12102 4.00448,15.39524 3.580677,13.72626 4.735772,18.23975 4.735772,18.50484 0,0.1957 -7.443402,0.28058 -24.606251,0.28058 -13.533438,0 -24.60625,-0.0484 -24.60625,-0.10751 z m 41.629891,-6.1102 c -0.03654,-0.23024 -4.647443,-18.08824 -7.343862,-28.44271 -0.511585,-1.96453 -1.398506,-5.38143 -1.970934,-7.59312 l -1.040779,-4.02124 1.685963,-1.09845 c 2.152681,-1.40252 4.826116,-4.23436 6.02484,-6.3818 1.547334,-2.77197 2.109115,-5.33019 1.962886,-8.9385 -0.142558,-3.51772 -0.692465,-5.39973 -2.427661,-8.30845 -1.248291,-2.09252 -3.937781,-4.74971 -6.003034,-5.93094 -2.630545,-1.50455 -5.317336,-2.2153 -8.440227,-2.23275 -4.945589,-0.0276 -8.970581,1.59262 -12.303125,4.95258 -3.239794,3.26644 -4.80986,6.74903 -5.068379,11.24225 -0.1846,3.20846 0.31487,5.63846 1.787339,8.6957 1.478926,3.07065 4.383408,5.98798 7.649859,7.68368 1.23517,0.64122 2.292522,1.20391 2.349672,1.25044 0.05715,0.0465 -0.455814,2.08174 -1.139918,4.5227 -5.390811,19.23499 -9.592834,34.63362 -9.496602,34.801 0.180133,0.3133 33.823799,0.11368 33.773962,-0.20039 z"
         id="path61"
         inkscape:connector-curvature="0" />
      <path
         style="fill:#494949;fill-opacity:1;stroke-width:0.26458335"
         d="M 48.957371,311.02925 C 16.793562,307.13447 -9.2511304,283.2099 -15.74345,251.59527 c -1.012506,-4.93044 -1.471131,-9.61078 -1.471244,-15.01429 -2.03e-4,-9.78847 1.674681,-18.67378 5.178576,-27.47249 7.7381571,-19.43147 22.80354,-34.48822 42.26166,-42.23746 17.354125,-6.91132 37.506771,-6.91142 54.864298,-2.7e-4 23.65869,9.42005 40.87887,29.90937 45.96899,54.69594 1.98321,9.65728 1.98321,20.3713 0,30.02858 -6.50587,31.68059 -32.639684,55.63223 -64.868326,59.4518 -1.083945,0.12846 -1.389063,0.0845 -1.389063,-0.20035 0,-0.47021 -0.850117,-1.24075 -1.368888,-1.24075 -0.576641,0 -1.368888,0.96627 -1.185047,1.44535 0.137414,0.35809 -0.467805,0.4029 -5.061138,0.37468 -2.86947,-0.0176 -6.57252,-0.19617 -8.228997,-0.39676 z m 17.034695,-1.18073 c 0,-0.45035 -0.156466,-0.65066 -0.529166,-0.67744 -1.013794,-0.0728 -1.055058,-0.11365 -0.529167,-0.52333 l 0.529167,-0.41223 -0.529167,0.0935 c -0.800883,0.14157 -0.703241,1.14307 0.112157,1.15037 0.352726,0.003 0.69007,0.15198 0.749652,0.33073 0.05958,0.17874 -0.02066,0.32499 -0.178303,0.32499 -0.157647,0 -0.286631,0.12898 -0.286631,0.28663 0,0.15765 0.148828,0.23702 0.330729,0.17639 0.181901,-0.0606 0.330729,-0.39798 0.330729,-0.74965 z m 1.190625,-0.50295 c 0,-0.4208 -1.525992,-2.00596 -1.732393,-1.79956 -0.103746,0.10375 0.154305,0.60109 0.573444,1.1052 0.775547,0.93277 1.158949,1.16248 1.158949,0.69436 z m 1.322917,-1.3344 c 0,-0.13237 -0.16624,-0.17687 -0.369424,-0.0989 -0.417936,0.16037 -1.239042,-0.85389 -1.063128,-1.31323 0.06409,-0.16734 -0.16465,-0.31635 -0.516504,-0.33648 -0.496205,-0.0284 -0.603565,0.0708 -0.501007,0.46302 0.07179,0.27453 0.230293,0.49915 0.352229,0.49915 0.121934,0 0.525764,0.30407 0.897401,0.6757 0.625972,0.62598 1.200433,0.67897 1.200433,0.11074 z m 1.322917,0.0229 c 0,-0.13693 -0.124944,-0.32619 -0.277654,-0.42057 -0.167526,-0.10354 -5.29e-4,-0.42854 0.421333,-0.8194 0.409265,-0.37929 0.634016,-0.80814 0.542237,-1.03464 -0.456816,-1.12737 -0.418282,-1.26002 0.168071,-0.57854 0.347515,0.40389 0.71451,0.65168 0.815547,0.55064 0.101036,-0.10104 -0.01426,-0.40246 -0.256223,-0.66982 -0.570484,-0.63038 -0.348855,-0.81961 0.959922,-0.81961 0.586491,0 1.06635,-0.0839 1.06635,-0.1864 0,-0.10252 0.647319,-0.33127 1.438484,-0.50832 0.791168,-0.17706 2.487808,-0.65988 3.770313,-1.07294 16.199183,-5.21734 29.814665,-16.00147 38.462115,-30.46389 1.79173,-2.99657 5.27701,-10.07382 5.27701,-10.71555 0,-0.17631 0.27147,-0.24715 0.66145,-0.1726 0.38612,0.0738 0.66146,0.003 0.66146,-0.16898 0,-0.16248 -0.0893,-0.28133 -0.19844,-0.26409 -0.58519,0.0924 -0.79659,-0.0839 -0.67197,-0.5605 0.14133,-0.54046 0.60583,-0.74332 0.60583,-0.26459 0,0.37218 1.41572,0.33054 1.79917,-0.0529 0.79093,-0.79093 0.0476,-2.26245 -1.00401,-1.98746 -0.29182,0.0763 -0.53058,0.10382 -0.53058,0.0611 0,-0.0427 0.42014,-1.7169 0.93366,-3.72048 1.79549,-7.00552 2.08515,-9.44822 2.08515,-17.58362 0,-6.27499 -0.0792,-7.73451 -0.57575,-10.6084 -2.22065,-12.85272 -7.48372,-24.42562 -15.32174,-33.69079 -1.00513,-1.18813 -1.09013,-1.47923 -0.37753,-1.29288 0.74673,0.19528 1.61455,-0.37623 1.61455,-1.06328 0,-0.75636 -0.46894,-1.23423 -1.21115,-1.23423 -0.6912,0 -1.0854,0.42882 -1.21609,1.32291 -0.0906,0.61977 -0.20049,0.55149 -1.74366,-1.08341 -3.76635,-3.99024 -9.547467,-8.58687 -14.59644,-11.60578 -7.904099,-4.72606 -15.875744,-7.5906 -25.550374,-9.18131 -4.15391,-0.68298 -15.674938,-0.67942 -19.84375,0.006 -9.709912,1.59679 -17.636366,4.44319 -25.550374,9.17518 -15.4267801,9.22406 -26.9618807,24.58416 -31.3670743,41.76828 -1.7693337,6.90196 -2.0607397,9.37485 -2.0607397,17.48757 0,8.11272 0.291406,10.58562 2.0607397,17.48757 6.2585734,24.41393 26.0862793,43.80517 50.8320313,49.71305 6.269908,1.4969 8.371983,1.71902 16.139584,1.70542 4.015237,-0.007 7.845523,-0.14063 8.746202,-0.30507 2.17625,-0.39734 3.424631,-0.13229 3.424631,0.72709 0,0.4124 -0.172489,0.6802 -0.475731,0.7386 -0.653225,0.1258 -1.307722,-0.4738 -1.154933,-1.05807 0.154731,-0.59169 -0.235,-0.64333 -0.458554,-0.0607 -0.180089,0.4693 -0.09152,0.6595 0.882078,1.89434 0.675606,0.85689 1.074849,1.08381 1.074849,0.61094 z m -36.67622,-29.31823 c 0.826556,-2.80326 11.540771,-41.6114 11.540329,-41.80042 -2.59e-4,-0.11121 -0.506275,-0.52245 -1.124479,-0.91388 -1.319607,-0.83555 -4.327613,-3.82385 -5.501265,-5.46523 -1.901547,-2.65937 -3.402076,-6.41617 -3.970755,-9.94139 -0.395915,-2.45426 -0.19721,-6.73492 0.424709,-9.1494 1.909307,-7.41251 7.790741,-13.73636 15.017351,-16.14701 6.061466,-2.02197 11.998574,-1.57917 17.776788,1.32584 6.245093,3.13974 10.577441,8.68864 12.13689,15.54502 0.523925,2.30351 0.597204,5.63379 0.113319,5.1499 -0.174625,-0.17462 -0.62111,-0.32128 -0.992188,-0.32591 -0.661143,-0.008 -0.664064,-0.0167 -0.145521,-0.42065 l 0.529167,-0.41223 -0.529167,0.0935 c -0.843939,0.14918 -0.686043,1.12658 0.198438,1.22835 0.75465,0.0868 0.973293,0.44589 0.396875,0.65176 -0.181901,0.065 -0.244309,0.21091 -0.138687,0.32433 0.105624,0.11342 0.373515,0.0556 0.595313,-0.12846 1.081166,-0.89729 -0.01707,4.99851 -1.548517,8.31313 -1.271431,2.75185 -2.884257,5.03701 -4.99668,7.07965 l -1.832591,1.77204 0.283908,1.27066 c 0.156149,0.69887 0.752531,3.05661 1.325293,5.23942 1.518748,5.78798 2.610024,9.98565 5.330785,20.50521 1.336122,5.16599 2.83274,10.91946 3.325818,12.7855 0.493078,1.86603 0.896504,3.50314 0.896504,3.63802 0,0.14882 -9.680065,0.24523 -24.624081,0.24523 -23.327125,0 -24.61689,-0.0244 -24.487556,-0.46302 z M 74.756178,272.895 c -0.0743,-0.25466 -0.567365,-2.12989 -1.095698,-4.16718 -0.528336,-2.0373 -1.241116,-4.77573 -1.583955,-6.08542 -2.243635,-8.57096 -3.425954,-13.13352 -5.587875,-21.56354 -0.802371,-3.1287 -1.619626,-6.24314 -1.816124,-6.92097 l -0.357272,-1.23243 1.54827,-0.95565 c 2.192015,-1.35299 4.506402,-3.73177 5.843572,-6.00616 0.630682,-1.07273 1.2462,-2.02086 1.367819,-2.10696 0.121621,-0.0861 0.185076,-0.3084 0.141015,-0.49402 -0.04406,-0.18561 0.145801,-0.3751 0.421917,-0.42109 0.834404,-0.13895 1.304933,-0.79397 1.114732,-1.55179 -0.239784,-0.95537 -0.644493,-0.85521 -0.597442,0.14785 0.02339,0.49848 -0.107508,0.88301 -0.326694,0.95975 -0.28379,0.0994 -0.328576,-0.0721 -0.199935,-0.76555 0.370564,-1.99757 0.524909,-2.13313 1.379408,-1.2116 0.706032,0.76143 1.039397,0.87664 1.3029,0.45028 0.08994,-0.14552 -0.0037,-0.26458 -0.207962,-0.26458 -0.487683,0 -1.342882,-0.95412 -1.143849,-1.27616 0.08538,-0.13815 -0.06689,-0.30927 -0.338368,-0.38026 -0.428099,-0.11195 -0.494813,-0.40609 -0.502719,-2.21641 -0.0112,-2.56442 -0.585385,-4.9002 -1.84472,-7.50425 -1.425512,-2.94768 -4.700312,-6.16891 -7.73634,-7.60977 -3.006916,-1.42705 -4.626922,-1.78429 -7.9375,-1.75034 -4.759415,0.0488 -8.457896,1.63893 -11.908941,5.12016 -5.299287,5.34565 -6.505131,13.10363 -3.116519,20.05063 1.296463,2.65788 4.66939,5.9622 7.617126,7.46218 1.236927,0.62942 2.286514,1.17487 2.332411,1.2121 0.06627,0.0538 -3.398539,12.74149 -7.077832,25.91816 -0.284435,1.01865 -1.186225,4.29287 -2.003978,7.27604 -0.817756,2.98318 -1.546699,5.63232 -1.619877,5.88698 -0.125735,0.43757 0.807,0.46302 16.968235,0.46302 16.162012,0 17.093864,-0.0254 16.966195,-0.46302 z m 3.009847,-53.24739 c 0.291042,-0.29105 0.529167,-0.64823 0.529167,-0.79375 0,-0.31171 -0.966214,-1.32292 -1.264045,-1.32292 -0.445645,0 -1.381789,0.84749 -1.381789,1.25094 0,0.53573 0.758603,1.39489 1.231633,1.39489 0.195725,0 0.593992,-0.23812 0.885034,-0.52916 z m -1.484699,-0.37832 c -0.263438,-0.68651 0.105802,-1.25391 0.755912,-1.1616 0.437285,0.0621 0.596495,0.26126 0.596495,0.74617 0,0.48491 -0.15921,0.68406 -0.596495,0.74616 -0.357791,0.0508 -0.660292,-0.0816 -0.755912,-0.33073 z m 47.310534,40.27748 c -0.41658,-0.41658 -0.4006,-0.61993 0.087,-1.10756 0.72714,-0.72714 1.81212,0.2701 1.15514,1.06172 -0.37151,0.44764 -0.82368,0.46433 -1.24217,0.0458 z m -13.43165,-69.11553 c -0.527,-0.38536 -0.36759,-1.1304 0.29637,-1.38519 0.54768,-0.21016 1.24325,0.4854 1.03309,1.03308 -0.23086,0.6016 -0.78686,0.74886 -1.32946,0.35211 z m 16.68602,67.44503 c 0,-0.37663 -0.20616,-0.54926 -0.7276,-0.60926 -0.75852,-0.0873 -0.96669,-0.43717 -0.39688,-0.66709 0.20364,-0.0822 0.15881,-0.14148 -0.11667,-0.15434 -0.56509,-0.0264 -0.79398,0.33272 -0.5753,0.90259 0.10434,0.27191 0.35918,0.3925 0.66205,0.3133 0.61466,-0.16074 0.95266,0.32285 0.4607,0.65911 -0.27671,0.18912 -0.23703,0.22897 0.16454,0.16523 0.32337,-0.0513 0.52916,-0.28838 0.52916,-0.60954 z m -13.49375,-69.18854 c 0,-0.55971 -0.10853,-0.64647 -0.7276,-0.58167 -0.72847,0.0763 -1.01938,-0.32474 -0.39688,-0.54706 0.18191,-0.065 0.2386,-0.21662 0.126,-0.33703 -0.28085,-0.30028 -1.09242,0.55381 -0.86929,0.91483 0.0986,0.15949 0.46984,0.28997 0.82506,0.28997 0.71484,0 0.8162,0.24656 0.31511,0.76652 -0.26749,0.27756 -0.22954,0.32493 0.19844,0.24773 0.36168,-0.0652 0.52916,-0.30366 0.52916,-0.75329 z m 1.19063,-0.47364 c 0,-0.11697 -0.41672,-0.61658 -0.92604,-1.11023 -1.05843,-1.02587 -1.20122,-0.83383 -0.33073,0.44484 0.54562,0.80147 1.25677,1.17798 1.25677,0.66539 z m -2.11667,-2.43315 c 0,-0.14552 -0.11906,-0.26458 -0.26458,-0.26458 -0.14552,0 -0.26458,0.11906 -0.26458,0.26458 0,0.14552 0.11906,0.26458 0.26458,0.26458 0.14552,0 0.26458,-0.11906 0.26458,-0.26458 z m -49.698435,125.1162 c 0.107235,-0.75826 1.190683,-1.03725 1.445847,-0.3723 0.201824,0.52594 0.150643,0.57901 -0.784931,0.81382 -0.679818,0.17062 -0.741643,0.12932 -0.660916,-0.44152 z"
         id="path59"
         inkscape:connector-curvature="0" />
      <path
         style="fill:#808080;fill-opacity:1;stroke-width:0.26458335"
         d="M 50.381649,311.15951 C 32.691724,309.2428 17.019273,301.80909 4.7339088,289.50799 -12.679774,272.072 -20.413881,247.40885 -16.053461,223.21952 c 0.531145,-2.94651 0.942178,-4.69259 1.18085,-5.01626 0.111693,-0.15147 0.221921,-0.58571 0.244951,-0.96496 0.02303,-0.37926 0.506263,-2.10566 1.07385,-3.83646 10.129908,-30.89009 38.787556,-51.69285 71.211501,-51.69285 19.691509,0 37.640967,7.31582 52.395059,21.35511 1.9587,1.86381 2.18583,2.17334 1.87215,2.55131 -0.30466,0.36709 -0.29407,0.43015 0.0723,0.43015 0.2361,0 0.4311,-0.14882 0.43332,-0.33073 0.003,-0.22357 0.0839,-0.2044 0.25062,0.0592 0.16064,0.25401 0.1421,0.45445 -0.0532,0.57514 -0.31158,0.19257 -0.15594,0.47719 0.95345,1.74364 0.38089,0.43481 0.60793,0.51787 0.85502,0.3128 0.2547,-0.21138 0.71341,0.19518 1.88828,1.67363 16.90029,21.26723 20.93299,50.10057 10.51892,75.20906 -9.85066,23.75012 -32.188123,41.42052 -57.147367,45.20734 -5.060101,0.76771 -4.894792,0.76082 -4.894792,0.20423 0,-0.70567 -0.634227,-1.14672 -1.505355,-1.04683 -0.579212,0.0664 -0.799568,0.27536 -0.996756,0.94516 l -0.253151,0.85989 -4.773933,-0.0346 c -2.625661,-0.019 -5.72643,-0.13781 -6.890597,-0.26395 z m 15.957633,-1.20817 c 0.05086,-0.35744 0.21858,-0.52852 0.436255,-0.44498 0.701093,0.26903 0.603361,-0.31666 -0.214143,-1.28331 -0.552124,-0.65287 -0.948322,-0.91416 -1.172501,-0.77328 -0.261564,0.16437 -0.212053,0.37364 0.217641,0.91991 l 0.556231,0.70713 h -0.713058 c -0.583834,0 -0.65691,-0.0677 -0.403232,-0.37332 0.405389,-0.48846 -0.120926,-0.8528 -0.626185,-0.43348 -0.673044,0.55858 0.195546,1.91002 0.934194,1.45351 0.13239,-0.0818 0.240707,-0.0227 0.240707,0.13143 0,0.15411 -0.119062,0.2802 -0.264583,0.2802 -0.145521,0 -0.264583,0.12734 -0.264583,0.28298 0,0.56118 1.189005,0.12527 1.273257,-0.46679 z m 2.366089,-1.86671 c 0.0623,-0.18918 -0.113146,-0.33073 -0.4099,-0.33073 -0.668018,0 -1.168496,-0.60528 -0.956744,-1.15709 0.10804,-0.28156 0.02558,-0.43041 -0.238379,-0.43041 -0.221949,0 -0.591876,-0.0723 -0.822058,-0.1606 -0.700802,-0.26893 -0.48178,0.50334 0.44138,1.55629 0.851554,0.97129 1.759252,1.21014 1.985701,0.52254 z m 1.209053,0.28892 c 0.09575,-0.0958 0.0481,-0.32591 -0.105899,-0.51146 -0.205312,-0.24739 -0.127225,-0.49014 0.292775,-0.91013 0.380915,-0.38092 0.531465,-0.78881 0.449463,-1.21777 -0.113146,-0.59189 -0.08633,-0.61154 0.32567,-0.23869 0.565984,0.51221 0.804175,0.51501 0.804175,0.009 0,-0.21828 -0.119062,-0.39688 -0.264583,-0.39688 -0.145521,0 -0.264584,-0.19427 -0.264584,-0.43171 0,-0.34971 0.197663,-0.4052 1.040601,-0.29214 0.694005,0.0931 1.082474,0.0304 1.166326,-0.18806 0.06915,-0.18021 0.999866,-0.53997 2.068256,-0.79947 3.663468,-0.88983 8.032009,-2.55036 12.525859,-4.7612 7.342527,-3.61232 13.048267,-7.69185 18.661247,-13.34254 5.52001,-5.55711 9.51684,-11.13179 12.95997,-18.07623 1.1737,-2.36724 2.24837,-4.41844 2.38816,-4.55823 0.13979,-0.13979 0.25417,-0.52066 0.25417,-0.84637 0,-0.4763 0.13676,-0.58246 0.6987,-0.5424 0.38429,0.0274 0.7514,-0.099 0.8158,-0.28092 0.0695,-0.19622 -0.10709,-0.33073 -0.43412,-0.33073 -0.38804,-1e-5 -0.55122,-0.16879 -0.55122,-0.57018 0,-0.53562 0.0293,-0.54364 0.48386,-0.13229 0.70312,0.63631 1.55431,0.53906 2.06187,-0.23557 0.37659,-0.57475 0.39032,-0.76865 0.0937,-1.32292 -0.32895,-0.61465 -0.71235,-0.77805 -1.55086,-0.66096 -0.253,0.0353 -0.30848,-0.0985 -0.17898,-0.43168 0.48397,-1.24524 1.80537,-6.85095 2.32177,-9.84955 0.49759,-2.88943 0.57404,-4.33746 0.57404,-10.87394 0,-8.27752 -0.28324,-10.80381 -1.92818,-17.19792 -2.3499,-9.13442 -7.39396,-19.1957 -13.05812,-26.04679 -0.8355,-1.01058 -1.51909,-1.93331 -1.51909,-2.05052 0,-0.11721 0.27921,-0.2131 0.62045,-0.2131 0.34125,0 0.83639,-0.23861 1.10032,-0.53024 0.39449,-0.43591 0.42692,-0.64643 0.18229,-1.18333 -0.43554,-0.95591 -1.5973,-1.17315 -2.21228,-0.41368 -0.26649,0.32911 -0.48453,0.76377 -0.48453,0.96593 0,0.20216 -0.0472,0.36757 -0.10495,0.36757 -0.0577,0 -0.98045,-0.90593 -2.05052,-2.01317 -8.590083,-8.88853 -20.920328,-15.91354 -33.102462,-18.85973 -6.292744,-1.52186 -8.372986,-1.74002 -16.468109,-1.72697 -6.355781,0.0102 -7.881921,0.0933 -10.741652,0.58454 -7.276214,1.24993 -13.368115,3.22738 -19.798035,6.42648 -12.777063,6.35703 -23.1840282,16.36258 -30.1274755,28.96542 -3.6103984,6.55313 -6.292776,14.54135 -7.6355775,22.73905 -0.739492,4.51454 -0.674459,16.49499 0.114321,21.0604 1.2591218,7.28771 3.2286882,13.35764 6.4240532,19.79804 3.41504594,6.88317 7.4093839,12.44912 12.947854,18.04231 5.5647278,5.61972 11.3971998,9.79285 18.6540118,13.34695 9.457645,4.63199 17.508969,6.61494 28.045834,6.90739 5.121473,0.14214 11.185959,-0.15558 12.479602,-0.61266 0.396814,-0.1402 0.424857,-0.10655 0.154252,0.18509 -0.513006,0.55289 -0.401415,1.03097 0.529167,2.26705 0.880978,1.1702 1.040196,1.28694 1.34267,0.98446 z m -1.078087,-1.85321 c -0.471416,-0.19023 -0.409665,-1.13401 0.08666,-1.32447 0.229566,-0.0881 0.60629,0.0287 0.837168,0.25961 0.346004,0.346 0.359952,0.49186 0.07938,0.82993 -0.356148,0.42913 -0.461042,0.45369 -1.003208,0.23493 z m -35.71262,-27.67733 c 0.07089,-0.18473 1.808914,-6.40575 3.862279,-13.82448 2.053362,-7.41872 4.033647,-14.56015 4.400632,-15.86984 1.889797,-6.74427 3.30648,-11.9707 3.30648,-12.19827 0,-0.14044 -0.34398,-0.45854 -0.764398,-0.70689 -1.345903,-0.79504 -4.800335,-4.20199 -5.895025,-5.814 -3.539921,-5.21276 -4.874448,-11.25258 -3.814601,-17.26418 1.447784,-8.21202 7.40092,-15.16605 15.256314,-17.82134 10.670649,-3.60691 22.088674,0.84981 27.714052,10.81743 1.504315,2.6655 2.361631,5.55263 2.598082,8.74939 l 0.168245,2.27465 -0.857099,-0.1258 c -0.534003,-0.0784 -0.734478,-0.20158 -0.531812,-0.32683 0.426177,-0.26339 0.08467,-0.80797 -0.391983,-0.62507 -0.95858,0.36785 -0.552342,1.85296 0.422246,1.54364 0.270497,-0.0859 0.491813,-0.029 0.491813,0.12631 0,0.15533 -0.119063,0.28242 -0.264584,0.28242 -0.145521,0 -0.264583,0.13294 -0.264583,0.29543 0,0.17636 0.280506,0.2418 0.696005,0.16237 l 0.696005,-0.13305 -0.157808,1.50984 c -0.548992,5.25245 -3.241763,10.50881 -7.280506,14.21173 l -1.485463,1.36194 0.966057,3.79743 c 1.743962,6.85524 4.839584,18.8256 5.771669,22.31827 0.271846,1.01864 0.985388,3.75708 1.585648,6.08541 0.600263,2.32834 1.501148,5.81032 2.001972,7.73774 0.500822,1.92743 0.910588,3.56454 0.910588,3.63802 0,0.0735 -11.08555,0.13362 -24.634559,0.13362 -19.80053,0 -24.609266,-0.0659 -24.505666,-0.33589 z m 41.731891,-5.6221 c 0,-0.0754 -0.22906,-0.99817 -0.509021,-2.05052 -0.485029,-1.82319 -1.437061,-5.43907 -2.802639,-10.64462 -0.343572,-1.30969 -1.220242,-4.70297 -1.948156,-7.54062 -1.533073,-5.97645 -2.4755,-9.61631 -3.980069,-15.3719 -0.593376,-2.26991 -1.076502,-4.29397 -1.073616,-4.49791 0.0029,-0.20395 0.625428,-0.72801 1.383422,-1.16457 1.974061,-1.13695 4.926404,-4.2003 6.000925,-6.22656 0.499017,-0.94102 1.09433,-1.85598 1.322916,-2.03325 0.36004,-0.27922 0.362546,-0.32544 0.01873,-0.34567 -0.218281,-0.0128 0.01984,-0.16545 0.529166,-0.33914 0.756873,-0.25811 0.940594,-0.46491 1.0057,-1.13208 0.04849,-0.49689 -0.08092,-0.94955 -0.330729,-1.15688 -0.225713,-0.18732 -0.410387,-0.46735 -0.410387,-0.62228 0,-0.15492 0.345416,0.0493 0.76759,0.45371 0.422175,0.40448 0.964245,0.69464 1.204601,0.64482 0.505637,-0.10481 0.570719,-0.61975 0.07833,-0.61975 -0.440386,0 -0.973307,-0.68081 -0.983774,-1.25677 -0.0046,-0.25466 -0.187008,-0.46302 -0.405289,-0.46302 -0.298664,0 -0.396875,-0.32014 -0.396875,-1.29369 0,-2.13814 -0.783243,-5.59696 -1.732933,-7.65268 -1.656554,-3.58581 -4.39346,-6.40806 -7.941027,-8.18867 -2.786682,-1.3987 -4.420524,-1.7584 -7.920832,-1.74383 -2.711259,0.0113 -3.45739,0.11259 -5.108376,0.69363 -5.862276,2.06315 -10.171857,6.7414 -11.567026,12.55655 -0.650674,2.71205 -0.438126,6.90104 0.484754,9.55376 1.557726,4.47752 4.737867,8.00955 9.084262,10.08943 0.998096,0.47762 1.839095,0.8878 1.868888,0.9115 0.05214,0.0415 -0.452647,1.9459 -1.934705,7.299 -1.131729,4.08773 -2.11781,7.6639 -2.735826,9.92187 -0.318635,1.16417 -1.753024,6.34339 -3.187528,11.50938 -1.434503,5.16599 -2.689392,9.72013 -2.788645,10.12031 l -0.180457,0.7276 h 17.094309 c 9.401876,0 17.094314,-0.0617 17.094314,-0.13715 z m -1.318866,-51.06917 c 0.0021,-0.28585 0.114888,-0.69498 0.250352,-0.90918 0.209502,-0.33128 0.273592,-0.31833 0.429003,0.0867 0.11263,0.29352 0.01662,0.64222 -0.250351,0.90918 -0.401016,0.40102 -0.432756,0.39461 -0.429004,-0.0867 z m -29.973625,25.1173 c -0.08792,-0.0879 -0.316124,-0.0973 -0.507119,-0.0209 -0.211066,0.0845 -0.148373,0.14715 0.159853,0.15985 0.278914,0.0115 0.435184,-0.0511 0.347266,-0.13897 z m 1.839897,-0.41892 c -0.08446,-0.21107 -0.147156,-0.14837 -0.159851,0.15985 -0.01148,0.27892 0.05105,0.43519 0.138965,0.34727 0.08792,-0.0879 0.09732,-0.31612 0.02087,-0.50712 z m 32.706019,-27.22767 c 0.145243,-0.23214 0.185203,-0.73634 0.0888,-1.12045 -0.197268,-0.78598 -1.299168,-1.21968 -1.994112,-0.78486 -0.536217,0.33551 -0.693539,1.5763 -0.265284,2.09231 0.415033,0.50008 1.81623,0.37937 2.170599,-0.187 z m -1.599779,-0.15003 c -0.453827,-0.18313 -0.415086,-0.7483 0.07943,-1.15871 0.338344,-0.2808 0.484915,-0.26564 0.837168,0.0866 0.352251,0.35226 0.367414,0.49883 0.08661,0.83717 -0.356147,0.42913 -0.461041,0.4537 -1.003207,0.23493 z m 47.310386,40.13727 c -0.50538,-0.31234 -0.221,-1.20059 0.38439,-1.20059 0.33411,0 0.55473,0.20458 0.60567,0.56164 0.0874,0.61256 -0.46056,0.9662 -0.99006,0.63895 z m -13.58891,-69.23345 c -0.10205,-0.10205 -0.18554,-0.40382 -0.18554,-0.67061 0,-0.34452 0.19699,-0.48507 0.67986,-0.48507 0.5529,0 0.66407,0.11067 0.59531,0.59261 -0.0837,0.58655 -0.73143,0.92127 -1.08963,0.56307 z M 65.085868,306.88739 c -0.03273,-0.31637 -0.395628,-0.2551 -0.509323,0.086 -0.05821,0.17462 0.03704,0.26987 0.211667,0.21166 0.174625,-0.0582 0.30857,-0.19215 0.297656,-0.29765 z m 61.849662,-48.84794 c 0.10375,-0.73067 -0.39147,-1.13351 -1.14763,-0.93352 -0.5169,0.13671 -0.51749,0.1306 -0.0255,-0.26334 0.46664,-0.37367 0.47019,-0.41613 0.0484,-0.578 -0.57096,-0.2191 -1.02816,0.21449 -0.90431,0.8576 0.0564,0.29303 0.41108,0.5569 0.88471,0.65826 0.43479,0.093 0.64169,0.18326 0.45979,0.20048 -0.1819,0.0172 -0.33073,0.21863 -0.33073,0.44757 0,0.66813 0.91501,0.31752 1.01534,-0.38905 z m -13.34221,-68.98471 c 0.23005,-0.59949 -0.3085,-1.15709 -1.11755,-1.15709 -0.65741,0 -0.66284,-0.0132 -0.16604,-0.40466 0.49602,-0.39081 0.49097,-0.40212 -0.14787,-0.33073 -0.50868,0.0568 -0.66146,0.22611 -0.66146,0.73279 0,0.51796 0.16975,0.69516 0.79375,0.82859 0.43656,0.0934 0.64492,0.18382 0.46302,0.20104 -0.53372,0.0505 -0.37892,0.56047 0.17013,0.56047 0.27547,0 0.57518,-0.19369 0.66602,-0.43041 z M 43.237899,166.4664 c -0.08994,-0.14552 -0.275558,-0.26459 -0.412491,-0.26459 -0.136932,0 -0.248967,0.11907 -0.248967,0.26459 0,0.14552 0.185621,0.26458 0.412491,0.26458 0.226869,0 0.338904,-0.11906 0.248967,-0.26458 z m -0.132291,-1.19063 c 0,-0.21828 -0.04679,-0.39687 -0.103984,-0.39687 -0.05719,0 -0.172517,0.17859 -0.256281,0.39687 -0.08376,0.21828 -0.03697,0.39688 0.103984,0.39688 0.140954,0 0.256281,-0.1786 0.256281,-0.39688 z m 19.579167,145.54914 c 0,-0.50925 0.783068,-0.76342 1.224161,-0.39735 0.582239,0.48322 0.423375,0.76592 -0.430411,0.76592 -0.502071,0 -0.79375,-0.13544 -0.79375,-0.36857 z m 51.171735,-123.52258 -0.50403,-0.59531 0.59532,0.50403 c 0.32742,0.27721 0.59531,0.54511 0.59531,0.59531 0,0.21174 -0.21294,0.0554 -0.6866,-0.50403 z"
         id="path57"
         inkscape:connector-curvature="0" />
    </g>
  </g>
</svg>
