<?xml version="1.0" encoding="utf-8"?>
<!-- Svg Vector Icons : http://www.onlinewebfonts.com/icon -->
<!DOCTYPE svg PUBLIC "-//W3C//DTD SVG 1.1//EN" "http://www.w3.org/Graphics/SVG/1.1/DTD/svg11.dtd">
<svg version="1.1" xmlns="http://www.w3.org/2000/svg" xmlns:xlink="http://www.w3.org/1999/xlink" x="0px" y="0px" viewBox="0 0 1000 1000" enable-background="new 0 0 1000 1000" xml:space="preserve">
<metadata> Svg Vector Icons : http://www.onlinewebfonts.com/icon </metadata>
<g><g transform="translate(0.000000,511.000000) scale(0.100000,-0.100000)"><path d="M4847.2,4937.6l-69-69v-423v-423l75.7-75.7c55.7-53.4,95.7-75.7,146.9-75.7c51.2,0,93.5,22.3,146.9,75.7l75.7,75.7V4450v427.5l-64.6,64.6C5065.4,5033.4,4940.7,5033.4,4847.2,4937.6z"/><path d="M1770.2,3586.1c-57.9-51.2-71.2-80.2-71.2-158.1c0-93.5,8.9-104.6,293.9-389.6c289.4-289.4,291.7-291.7,394.1-291.7c135.8,0,209.3,77.9,209.3,224.9c0,98-6.7,106.9-249.4,358.5c-138,140.3-278.3,269.4-311.7,287.2C1939.4,3666.3,1848.1,3655.1,1770.2,3586.1z"/><path d="M7951,3606.2c-35.6-22.3-173.7-151.4-305-287.2c-233.8-238.2-240.5-249.4-240.5-347.3c0-147,73.5-224.9,209.3-224.9c102.4,0,104.6,2.2,396.3,293.9c282.8,282.8,296.1,298.3,296.1,387.4c0,75.7-13.3,102.4-73.5,155.9C8149.1,3659.6,8048.9,3668.5,7951,3606.2z"/><path d="M4522.1,2913.7C3415.5,2673.3,2618.5,1796,2507.1,693.9c-49-465.3,28.9-981.9,213.8-1416c95.7-229.3,231.6-443.1,543.3-861.7c142.5-189.3,296.1-407.5,342.9-483.2c91.3-153.6,200.4-434.2,224.9-578.9l15.6-95.7h1153.3h1151.1l28.9,138c57.9,298.3,171.5,507.6,527.7,979.7c503.2,670.2,659,986.3,752.6,1522.9c51.2,291.7,53.4,759.2,4.5,1013.1c-187,959.6-906.2,1723.3-1856.9,1972.7C5303.6,2962.7,4811.6,2978.3,4522.1,2913.7z"/><path d="M565.6,540.3C501,506.9,436.5,404.4,436.5,342.1c0-71.3,71.3-171.4,144.7-202.6c113.6-46.8,768.1-44.5,868.3,2.2c171.4,82.4,171.4,318.4,0,400.8C1347.1,589.2,654.7,589.2,565.6,540.3z"/><path d="M8438.6,540.3c-142.5-69-169.2-238.2-53.4-351.8l66.8-69l456.4-6.7c503.2-6.7,558.8,4.4,623.4,129.1c42.3,82.4,42.3,118,0,200.4c-62.3,120.2-120.2,133.6-594.5,133.6C8596.6,575.9,8494.2,567,8438.6,540.3z"/><path d="M2429.2-1897.8c-69-40.1-656.8-625.6-692.4-692.4c-89.1-171.4,49-356.2,242.7-320.6c57.9,11.1,151.4,91.3,423,365.2c302.8,305,349.6,362.9,349.6,423C2752.1-1940.1,2576.2-1817.6,2429.2-1897.8z"/><path d="M7363.2-1904.5c-69-37.9-111.3-118-113.5-211.5c0-69,33.4-111.3,349.6-429.7c271.6-273.8,365.1-354,423-365.2c193.7-35.6,331.7,149.2,242.7,320.6c-37.8,71.3-627.9,656.8-696.9,692.4C7503.4-1866.6,7430-1868.8,7363.2-1904.5z"/><path d="M3869.8-3839.3l6.7-654.6l64.6-91.3c40.1-57.9,104.7-113.6,175.9-149.2l113.5-55.7h770.4h770.4l113.6,55.7c71.3,35.6,135.8,91.3,175.9,149.2l64.6,91.3l6.7,654.6l6.7,652.4H5000.8H3863.1L3869.8-3839.3z"/></g></g>
</svg>