<svg id="Layer_1" data-name="Layer 1" xmlns="http://www.w3.org/2000/svg" viewBox="0 0 36 32"><defs><style>.cls-1{fill:gray;}</style></defs><title>flash cards</title><path class="cls-1" d="M35.52,12.8a5.92,5.92,0,0,0-2.85-5,8.89,8.89,0,0,0-8.79-6.56,9.28,9.28,0,0,0-3,.47,6.57,6.57,0,0,0-9.48.58,7.16,7.16,0,0,0-.8,0,6.27,6.27,0,0,0-6.1,4.34A6,6,0,0,0,.29,12.24a5.71,5.71,0,0,0,.46,2.23,5.75,5.75,0,0,0-.46,2.24A5.91,5.91,0,0,0,3.63,22a6.63,6.63,0,0,0,7.49,1,6.6,6.6,0,0,0,8,1.25,8,8,0,0,0,3.72,1.47A30.55,30.55,0,0,1,26.94,31l.58,1,2.9-2.08L28.8,25.3a4.7,4.7,0,0,0,2.14-2,6,6,0,0,0,3.24-5.22A5.64,5.64,0,0,0,34,16.69,5.83,5.83,0,0,0,35.52,12.8Zm-5.79,8.81-.36.16-.16.37a2.62,2.62,0,0,1-1.94,1.48l-1.17.23,1.53,4.41A29.52,29.52,0,0,0,24.07,24l-.27-.26-.37,0a5.85,5.85,0,0,1-2.51-.77l3-2.36a3.36,3.36,0,0,1,2.19-.79l1.37.36L28,18.19l-1.37-.37A5.2,5.2,0,0,0,22.67,19l-3.36,2.66h0l-.69.51A4.34,4.34,0,0,1,16,23a4.23,4.23,0,0,1-3.46-1.73v-3a2.49,2.49,0,0,1,.59-1.71l1.13-.69L13.14,14.1,12,14.79a3.31,3.31,0,0,0-1.23,1.55,4.5,4.5,0,0,0-.75-.57l-3.37-2L5.55,15.51l3.32,2a3,3,0,0,1,1.37,2.18v1.33a4.56,4.56,0,0,1-2.18.58,4.43,4.43,0,0,1-3.12-1.26l-.11-.13-.16-.08a3.85,3.85,0,0,1-2.3-3.46A3.55,3.55,0,0,1,2.82,15l.27-.5L2.82,14a3.58,3.58,0,0,1-.45-1.74A4,4,0,0,1,5.63,8.45l.68-.15.12-.69a4.14,4.14,0,0,1,4.2-3.28,5.15,5.15,0,0,1,1,.11l.71.17L12.76,4a4.37,4.37,0,0,1,3.68-1.94,4.43,4.43,0,0,1,2.64.85l-.78.72v0l-.54.51a3.53,3.53,0,0,1-2,.8l-1.47-.22L14,6.74,15.47,7h.15a4.91,4.91,0,0,0-.2,2.23l.34,2,2-.35-.34-2a3.11,3.11,0,0,1,.79-2.39l.86-.79.33-.28,1.63-1.53a7.42,7.42,0,0,1,2.8-.54,6.77,6.77,0,0,1,6.85,5.34l.09.5.45.24a3.86,3.86,0,0,1,2.16,3.39,3.59,3.59,0,0,1-.63,2l-.32-.32h0l-1.35-1.35a5.42,5.42,0,0,1-1.28-2.77l-.23-2-2,.22.22,2a6.71,6.71,0,0,0,.53,1.87l-.4,0-4.52-.21-.09,2,4.52.22a5.15,5.15,0,0,1,2.84,1.15l1.07,1.08,0,.09a3.62,3.62,0,0,1,.26,1.33A3.88,3.88,0,0,1,29.73,21.61Z"/></svg>