<svg id="Layer_1" data-name="Layer 1" xmlns="http://www.w3.org/2000/svg" viewBox="0 0 19 33"><defs><style>.cls-1{fill:#fff;}</style></defs><title>flash cards</title><path class="cls-1" d="M18.37,16.57a3.38,3.38,0,0,0-.11-.34,1.72,1.72,0,0,0-.38-.58L3.64,1.41c-.09-.07-.18-.16-.27-.22a1.83,1.83,0,0,0-2.25.22A1.83,1.83,0,0,0,.9,3.66c.06.09.15.18.22.27l13,13-13,13-.22.27c-.06.1-.12.2-.17.3a1.85,1.85,0,0,0,.66,2.17,1.82,1.82,0,0,0,2,0l.27-.23L17.88,18.17a2.88,2.88,0,0,0,.22-.27,1.82,1.82,0,0,0,.27-.64A2.66,2.66,0,0,0,18.37,16.57Z"/></svg>