<svg id="Layer_1" data-name="Layer 1" xmlns="http://www.w3.org/2000/svg" viewBox="0 0 32 33"><defs><style>.cls-1{fill:gray;}</style></defs><title>flash cards</title><path class="cls-1" d="M17.77,15.76c0-.11-.06-.23-.1-.33a1.74,1.74,0,0,0-.39-.58L3,.6C3,.53,2.87.45,2.77.38A1.85,1.85,0,0,0,.3.88a1.8,1.8,0,0,0,0,2,2.88,2.88,0,0,0,.22.27l13,13-13,13-.22.27a1.81,1.81,0,0,0,.49,2.47,1.82,1.82,0,0,0,2,0c.1-.07.18-.15.27-.22L17.28,17.37a2.61,2.61,0,0,0,.22-.27,2,2,0,0,0,.27-.65A2.66,2.66,0,0,0,17.77,15.76Zm14.24,0a3.18,3.18,0,0,0-.1-.33,1.88,1.88,0,0,0-.38-.58L17.28.6C17.19.53,17.11.45,17,.38A1.83,1.83,0,0,0,14.77.6a1.84,1.84,0,0,0-.23,2.25,3,3,0,0,0,.23.27l13,13-13,13-.23.27a3,3,0,0,0-.16.31A1.78,1.78,0,0,0,17,31.83c.1-.07.18-.15.27-.22L31.53,17.37l.22-.27a1.74,1.74,0,0,0,.26-.65A2.28,2.28,0,0,0,32,15.76Z"/></svg>