<svg id="Layer_1" data-name="Layer 1" xmlns="http://www.w3.org/2000/svg" viewBox="0 0 19 33"><defs><style>.cls-1{fill:#fff;}</style></defs><title>flash cards</title><path class="cls-1" d="M.63,16.58c0,.11.06.23.1.33a1.65,1.65,0,0,0,.39.58L15.36,31.74l.27.22a1.85,1.85,0,0,0,2.47-.49,1.82,1.82,0,0,0,0-2,2.88,2.88,0,0,0-.22-.27l-13-13,13-13L18.1,3a3.07,3.07,0,0,0,.17-.31A1.83,1.83,0,0,0,17.61.51a1.82,1.82,0,0,0-2,0l-.27.22L1.12,15a2.75,2.75,0,0,0-.22.26,2,2,0,0,0-.27.65A2.66,2.66,0,0,0,.63,16.58Z"/></svg>