<svg id="Layer_1" data-name="Layer 1" xmlns="http://www.w3.org/2000/svg" viewBox="0 0 33 32"><defs><style>.cls-1{fill:gray;}</style></defs><title>flash cards</title><path class="cls-1" d="M21.57.79,20.25,2.55a13.92,13.92,0,0,1,6.17,23.34l-3.7-3.18a1,1,0,0,0-1.46,0l-5.37,7.53A1,1,0,0,0,16.62,32,16,16,0,0,0,21.57.79Z"/><path class="cls-1" d="M2.68,16A13.88,13.88,0,0,1,6.81,6.11l3.7,3.18a1,1,0,0,0,1.46,0l5.38-7.53A1,1,0,0,0,17.57.64,1,1,0,0,0,16.62,0a16,16,0,0,0-5,31.21L13,29.45A13.91,13.91,0,0,1,2.68,16Z"/></svg>