<?xml version="1.0" encoding="UTF-8" standalone="no"?>
<!-- Generator: Adobe Illustrator 16.0.0, SVG Export Plug-In . SVG Version: 6.00 Build 0)  -->

<svg
   xmlns:dc="http://purl.org/dc/elements/1.1/"
   xmlns:cc="http://creativecommons.org/ns#"
   xmlns:rdf="http://www.w3.org/1999/02/22-rdf-syntax-ns#"
   xmlns:svg="http://www.w3.org/2000/svg"
   xmlns="http://www.w3.org/2000/svg"
   xmlns:sodipodi="http://sodipodi.sourceforge.net/DTD/sodipodi-0.dtd"
   xmlns:inkscape="http://www.inkscape.org/namespaces/inkscape"
   version="1.1"
   id="Capa_1"
   x="0px"
   y="0px"
   width="571.62598"
   height="458.53201"
   viewBox="0 0 571.62597 458.532"
   xml:space="preserve"
   sodipodi:docname="no-signal-bars.svg"
   inkscape:version="0.92.3 (2405546, 2018-03-11)"><metadata
   id="metadata51"><rdf:RDF><cc:Work
       rdf:about=""><dc:format>image/svg+xml</dc:format><dc:type
         rdf:resource="http://purl.org/dc/dcmitype/StillImage" /><dc:title></dc:title></cc:Work></rdf:RDF></metadata><defs
   id="defs49">
	
</defs><sodipodi:namedview
   pagecolor="#ffffff"
   bordercolor="#666666"
   borderopacity="1"
   objecttolerance="10"
   gridtolerance="10"
   guidetolerance="10"
   inkscape:pageopacity="0"
   inkscape:pageshadow="2"
   inkscape:window-width="1252"
   inkscape:window-height="1039"
   id="namedview47"
   showgrid="false"
   inkscape:zoom="0.65233929"
   inkscape:cx="391.01338"
   inkscape:cy="-40.522432"
   inkscape:window-x="530"
   inkscape:window-y="270"
   inkscape:window-maximized="0"
   inkscape:current-layer="Capa_1" />
<g
   id="g12"
   transform="translate(10,-26.547)">
		<path
   inkscape:connector-curvature="0"
   id="path2"
   d="M 63.953,401.992 H 9.135 c -2.666,0 -4.853,0.855 -6.567,2.567 C 0.859,406.271 0,408.461 0,411.126 v 54.82 c 0,2.665 0.855,4.855 2.568,6.563 1.714,1.718 3.905,2.57 6.567,2.57 h 54.818 c 2.663,0 4.853,-0.853 6.567,-2.57 1.712,-1.708 2.568,-3.898 2.568,-6.563 v -54.82 c 0,-2.665 -0.856,-4.849 -2.568,-6.566 -1.714,-1.712 -3.904,-2.568 -6.567,-2.568 z"
   style="opacity:0.122;fill:#000000;fill-opacity:1;stroke:#000000;stroke-width:20;stroke-miterlimit:4;stroke-dasharray:none;stroke-opacity:1;font-variant-east_asian:normal;vector-effect:none;stroke-linecap:butt;stroke-linejoin:miter;stroke-dashoffset:0" />
		<path
   inkscape:connector-curvature="0"
   id="path4"
   d="m 303.225,292.36 h -54.818 c -2.667,0 -4.854,0.855 -6.567,2.566 -1.711,1.711 -2.57,3.901 -2.57,6.563 v 164.456 c 0,2.665 0.856,4.855 2.57,6.563 1.713,1.718 3.899,2.57 6.567,2.57 h 54.818 c 2.665,0 4.855,-0.853 6.563,-2.57 1.711,-1.708 2.573,-3.898 2.573,-6.563 V 301.49 c 0,-2.662 -0.862,-4.853 -2.573,-6.563 -1.707,-1.711 -3.898,-2.567 -6.563,-2.567 z"
   style="opacity:0.122;fill:#000000;stroke:#000000;stroke-width:20;stroke-miterlimit:4;stroke-dasharray:none;stroke-opacity:1;fill-opacity:1;font-variant-east_asian:normal;vector-effect:none;stroke-linecap:butt;stroke-linejoin:miter;stroke-dashoffset:0"
   sodipodi:nodetypes="sscsscsscsscs" />
		<path
   inkscape:connector-curvature="0"
   id="path6"
   d="m 183.589,365.451 h -54.818 c -2.667,0 -4.854,0.855 -6.567,2.566 -1.711,1.711 -2.568,3.901 -2.568,6.563 v 91.358 c 0,2.669 0.854,4.859 2.568,6.57 1.713,1.711 3.899,2.566 6.567,2.566 h 54.818 c 2.663,0 4.853,-0.855 6.567,-2.566 1.709,-1.711 2.568,-3.901 2.568,-6.57 V 374.58 c 0,-2.662 -0.859,-4.853 -2.568,-6.563 -1.714,-1.71 -3.905,-2.566 -6.567,-2.566 z"
   style="opacity:0.122;fill:#000000;fill-opacity:1;stroke:#000000;stroke-width:20;stroke-miterlimit:4;stroke-dasharray:none;stroke-opacity:1;font-variant-east_asian:normal;vector-effect:none;stroke-linecap:butt;stroke-linejoin:miter;stroke-dashoffset:0"
   sodipodi:nodetypes="sscsscsscsscs" />
		<path
   inkscape:connector-curvature="0"
   id="path8"
   d="m 422.857,182.725 h -54.819 c -2.666,0 -4.856,0.855 -6.57,2.568 -1.708,1.714 -2.563,3.901 -2.563,6.567 v 274.086 c 0,2.665 0.855,4.855 2.563,6.563 1.714,1.718 3.904,2.57 6.57,2.57 h 54.819 c 2.666,0 4.856,-0.853 6.563,-2.57 1.718,-1.708 2.57,-3.898 2.57,-6.563 V 191.86 c 0,-2.666 -0.853,-4.853 -2.57,-6.567 -1.707,-1.713 -3.897,-2.568 -6.563,-2.568 z"
   style="opacity:0.122;fill:#000000;stroke:#000000;stroke-width:20;stroke-miterlimit:4;stroke-dasharray:none;stroke-opacity:1;fill-opacity:1;font-variant-east_asian:normal;vector-effect:none;stroke-linecap:butt;stroke-linejoin:miter;stroke-dashoffset:0"
   sodipodi:nodetypes="sscsscsscsscs" />
		<path
   inkscape:connector-curvature="0"
   id="path10"
   d="m 549.06,39.115 c -1.718,-1.714 -3.901,-2.568 -6.57,-2.568 h -54.816 c -2.662,0 -4.853,0.854 -6.567,2.568 -1.714,1.709 -2.569,3.899 -2.569,6.563 v 420.268 c 0,2.665 0.855,4.855 2.569,6.563 1.715,1.718 3.905,2.57 6.567,2.57 h 54.816 c 2.669,0 4.853,-0.853 6.57,-2.57 1.711,-1.708 2.566,-3.898 2.566,-6.563 V 45.679 c 0,-2.664 -0.855,-4.854 -2.566,-6.564 z"
   style="opacity:0.122;fill:#000000;stroke:#000000;stroke-width:20;stroke-miterlimit:4;stroke-dasharray:none;stroke-opacity:1;fill-opacity:1"
   sodipodi:nodetypes="csscsscsscssc" />
	</g>
<g
   id="g16"
   transform="translate(9.6280453,-41.935733)">
</g>
<g
   id="g18"
   transform="translate(9.6280453,-41.935733)">
</g>
<g
   id="g20"
   transform="translate(9.6280453,-41.935733)">
</g>
<g
   id="g22"
   transform="translate(9.6280453,-41.935733)">
</g>
<g
   id="g24"
   transform="translate(9.6280453,-41.935733)">
</g>
<g
   id="g26"
   transform="translate(9.6280453,-41.935733)">
</g>
<g
   id="g28"
   transform="translate(9.6280453,-41.935733)">
</g>
<g
   id="g30"
   transform="translate(9.6280453,-41.935733)">
</g>
<g
   id="g32"
   transform="translate(9.6280453,-41.935733)">
</g>
<g
   id="g34"
   transform="translate(9.6280453,-41.935733)">
</g>
<g
   id="g36"
   transform="translate(9.6280453,-41.935733)">
</g>
<g
   id="g38"
   transform="translate(9.6280453,-41.935733)">
</g>
<g
   id="g40"
   transform="translate(9.6280453,-41.935733)">
</g>
<g
   id="g42"
   transform="translate(9.6280453,-41.935733)">
</g>
<g
   id="g44"
   transform="translate(9.6280453,-41.935733)">
</g>
<path
   inkscape:connector-curvature="0"
   id="path5200"
   d="m 131.76607,288.85586 c -1.86586,-0.55987 -13.80208,-11.2951 -26.52516,-23.85528 L 82.108176,242.16386 58.347268,265.54584 C 35.93604,287.59961 34.173106,288.84516 27.31123,287.47276 23.309983,286.67271 17.697439,283.8206 14.838937,281.1352 5.4726969,272.33609 7.7944849,267.30938 33.311066,241.14326 L 56.980516,216.8714 34.359346,194.37486 C 12.68706,172.82199 11.76545,171.50847 12.386182,163.05828 c 0.828274,-11.27358 9.43429,-18.5948 19.027817,-16.187 3.624381,0.90962 15.826825,10.91532 28.516816,23.38309 l 22.181541,21.79296 21.999924,-21.90665 c 24.7617,-24.65687 31.53212,-27.85547 41.82425,-19.75975 4.74446,3.73208 6.18361,6.80947 6.18361,13.2232 0,7.57748 -2.11092,10.46215 -22.57268,30.84706 l -22.57258,22.48799 22.57258,22.93844 c 18.50958,18.80942 22.57268,24.16376 22.57268,29.74595 0,11.54189 -11.0844,22.0153 -20.35407,19.23229 z"
   style="opacity:0.122;vector-effect:none;fill:#000000;fill-opacity:1;stroke:#000000;stroke-width:20;stroke-linecap:butt;stroke-linejoin:miter;stroke-miterlimit:4;stroke-dasharray:none;stroke-dashoffset:0;stroke-opacity:1"
   sodipodi:nodetypes="cccccsccsccccccscccsc" /></svg>