<?xml version="1.0" encoding="UTF-8" standalone="no"?>
<!-- Generator: Adobe Illustrator 16.0.0, SVG Export Plug-In . SVG Version: 6.00 Build 0)  -->

<svg
   xmlns:dc="http://purl.org/dc/elements/1.1/"
   xmlns:cc="http://creativecommons.org/ns#"
   xmlns:rdf="http://www.w3.org/1999/02/22-rdf-syntax-ns#"
   xmlns:svg="http://www.w3.org/2000/svg"
   xmlns="http://www.w3.org/2000/svg"
   xmlns:sodipodi="http://sodipodi.sourceforge.net/DTD/sodipodi-0.dtd"
   xmlns:inkscape="http://www.inkscape.org/namespaces/inkscape"
   version="1.1"
   id="Capa_1"
   x="0px"
   y="0px"
   width="511.626px"
   height="511.627px"
   viewBox="0 0 511.626 511.627"
   style="enable-background:new 0 0 511.626 511.627;"
   xml:space="preserve"
   sodipodi:docname="signal-bars-2.svg"
   inkscape:version="0.92.3 (2405546, 2018-03-11)"><metadata
   id="metadata51"><rdf:RDF><cc:Work
       rdf:about=""><dc:format>image/svg+xml</dc:format><dc:type
         rdf:resource="http://purl.org/dc/dcmitype/StillImage" /><dc:title></dc:title></cc:Work></rdf:RDF></metadata><defs
   id="defs49">
	
</defs><sodipodi:namedview
   pagecolor="#ffffff"
   bordercolor="#666666"
   borderopacity="1"
   objecttolerance="10"
   gridtolerance="10"
   guidetolerance="10"
   inkscape:pageopacity="0"
   inkscape:pageshadow="2"
   inkscape:window-width="1056"
   inkscape:window-height="480"
   id="namedview47"
   showgrid="false"
   inkscape:zoom="0.46127353"
   inkscape:cx="-14.091926"
   inkscape:cy="255.81351"
   inkscape:window-x="726"
   inkscape:window-y="540"
   inkscape:window-maximized="0"
   inkscape:current-layer="Capa_1" />
<g
   id="g12">
		<path
   inkscape:connector-curvature="0"
   id="path2"
   d="M 63.953,401.992 H 9.135 c -2.666,0 -4.853,0.855 -6.567,2.567 C 0.859,406.271 0,408.461 0,411.126 v 54.82 c 0,2.665 0.855,4.855 2.568,6.563 1.714,1.718 3.905,2.57 6.567,2.57 h 54.818 c 2.663,0 4.853,-0.853 6.567,-2.57 1.712,-1.708 2.568,-3.898 2.568,-6.563 v -54.82 c 0,-2.665 -0.856,-4.849 -2.568,-6.566 -1.714,-1.712 -3.904,-2.568 -6.567,-2.568 z" />
		<path
   inkscape:connector-curvature="0"
   id="path4"
   d="m 283.225,292.36 h -54.818 c -2.667,0 -4.854,0.855 -6.567,2.566 -1.711,1.711 -2.57,3.901 -2.57,6.563 v 164.456 c 0,2.665 0.856,4.855 2.57,6.563 1.713,1.718 3.899,2.57 6.567,2.57 h 54.818 c 2.665,0 4.855,-0.853 6.563,-2.57 1.711,-1.708 2.573,-3.898 2.573,-6.563 V 301.49 c 0,-2.662 -0.862,-4.853 -2.573,-6.563 -1.707,-1.711 -3.898,-2.567 -6.563,-2.567 z"
   style="fill:none;stroke:#000000;stroke-opacity:1;stroke-width:6;stroke-miterlimit:4;stroke-dasharray:none;opacity:0.5" />
		<path
   inkscape:connector-curvature="0"
   id="path6"
   d="m 173.589,365.451 h -54.818 c -2.667,0 -4.854,0.855 -6.567,2.566 -1.711,1.711 -2.568,3.901 -2.568,6.563 v 91.358 c 0,2.669 0.854,4.859 2.568,6.57 1.713,1.711 3.899,2.566 6.567,2.566 h 54.818 c 2.663,0 4.853,-0.855 6.567,-2.566 1.709,-1.711 2.568,-3.901 2.568,-6.57 V 374.58 c 0,-2.662 -0.859,-4.853 -2.568,-6.563 -1.714,-1.71 -3.905,-2.566 -6.567,-2.566 z" />
		<path
   inkscape:connector-curvature="0"
   id="path8"
   d="m 392.857,182.725 h -54.819 c -2.666,0 -4.856,0.855 -6.57,2.568 -1.708,1.714 -2.563,3.901 -2.563,6.567 v 274.086 c 0,2.665 0.855,4.855 2.563,6.563 1.714,1.718 3.904,2.57 6.57,2.57 h 54.819 c 2.666,0 4.856,-0.853 6.563,-2.57 1.718,-1.708 2.57,-3.898 2.57,-6.563 V 191.86 c 0,-2.666 -0.853,-4.853 -2.57,-6.567 -1.707,-1.713 -3.897,-2.568 -6.563,-2.568 z"
   style="fill:none;stroke:#000000;stroke-opacity:1;stroke-width:6;stroke-miterlimit:4;stroke-dasharray:none;opacity:0.5" />
		<path
   inkscape:connector-curvature="0"
   id="path10"
   d="m 509.06,39.115 c -1.718,-1.714 -3.901,-2.568 -6.57,-2.568 h -54.816 c -2.662,0 -4.853,0.854 -6.567,2.568 -1.714,1.709 -2.569,3.899 -2.569,6.563 v 420.268 c 0,2.665 0.855,4.855 2.569,6.563 1.715,1.718 3.905,2.57 6.567,2.57 h 54.816 c 2.669,0 4.853,-0.853 6.57,-2.57 1.711,-1.708 2.566,-3.898 2.566,-6.563 V 45.679 c 0,-2.664 -0.855,-4.854 -2.566,-6.564 z"
   style="fill:none;stroke:#000000;stroke-opacity:1;opacity:0.5;stroke-width:6;stroke-miterlimit:4;stroke-dasharray:none" />
	</g>
<g
   id="g16">
</g>
<g
   id="g18">
</g>
<g
   id="g20">
</g>
<g
   id="g22">
</g>
<g
   id="g24">
</g>
<g
   id="g26">
</g>
<g
   id="g28">
</g>
<g
   id="g30">
</g>
<g
   id="g32">
</g>
<g
   id="g34">
</g>
<g
   id="g36">
</g>
<g
   id="g38">
</g>
<g
   id="g40">
</g>
<g
   id="g42">
</g>
<g
   id="g44">
</g>
</svg>