<svg id="Layer_1" data-name="Layer 1" xmlns="http://www.w3.org/2000/svg" viewBox="0 0 40 34"><defs><style>.cls-1{fill:gray;}</style></defs><title>flash cards</title><path class="cls-1" d="M21.47,31.78V2.43A1.33,1.33,0,0,0,20.13,1.1a1.29,1.29,0,0,0-.76.24L7.77,9.5H4.07a4,4,0,0,0-4,4v7.21a4,4,0,0,0,4,4h3.7l11.6,8.17a1.33,1.33,0,0,0,1.85-.32A1.37,1.37,0,0,0,21.47,31.78ZM2.73,20.71V13.5a1.34,1.34,0,0,1,1.34-1.33H6.84V22H4.07a1.33,1.33,0,0,1-1.34-1.33ZM18.8,29.22,9.51,22.68V11.53L18.8,5Z"/><path class="cls-1" d="M27,26A12.52,12.52,0,0,0,27,8.25a1.33,1.33,0,0,0-1.88,1.89,9.87,9.87,0,0,1,0,13.94A1.33,1.33,0,0,0,27,26Z"/><path class="cls-1" d="M32.79,31.13a19.85,19.85,0,0,0,0-28A1.34,1.34,0,0,0,30.89,5a17.17,17.17,0,0,1,0,24.27,1.34,1.34,0,0,0,1.89,1.89Z"/></svg>