<svg id="Layer_1" data-name="Layer 1" xmlns="http://www.w3.org/2000/svg" viewBox="0 0 29 33"><defs><style>.cls-1{fill:gray;}</style></defs><title>flash cards</title><path class="cls-1" d="M21.69,31.18V1.82A1.33,1.33,0,0,0,20.35.49a1.35,1.35,0,0,0-.77.24L8,8.89H4.28a4,4,0,0,0-4,4v7.2a4,4,0,0,0,4,4H8l11.6,8.17A1.34,1.34,0,0,0,21.44,32,1.36,1.36,0,0,0,21.69,31.18ZM3,20.1V12.9a1.34,1.34,0,0,1,1.33-1.34H7.06v9.87H4.28A1.33,1.33,0,0,1,3,20.1ZM19,28.61,9.73,22.08V10.92L19,4.39Z"/><path class="cls-1" d="M27.22,30.89a1.48,1.48,0,0,1-1.08-.46l-24-25A1.5,1.5,0,0,1,4.3,3.35l24,25a1.5,1.5,0,0,1-1.08,2.54Z"/></svg>