<svg xmlns="http://www.w3.org/2000/svg" viewBox="0 0 24 24"><defs><style>.cls-1{fill:#58595b;}</style></defs><title>buy me coffee</title><g id="Layer_2" data-name="Layer 2"><path class="cls-1" d="M19.49,4.53a.15.15,0,0,1-.15.19H4.66a.15.15,0,0,1-.15-.19l.23-.86A.25.25,0,0,1,5,3.48H5.5a.26.26,0,0,0,.24-.19L6,2a.24.24,0,0,1,.23-.19H17.78A.24.24,0,0,1,18,2l.25,1.25a.26.26,0,0,0,.24.19H19a.25.25,0,0,1,.24.19Z"/><path class="cls-1" d="M18.14,9.58a.18.18,0,0,1,.18.2V10a.22.22,0,0,1-.21.2H5.8a.22.22,0,0,1-.21-.2l0-.19a.19.19,0,0,1,.18-.2Z"/><path class="cls-1" d="M18,11a.18.18,0,0,1,.18.19v.19a.22.22,0,0,1-.21.2H5.9a.22.22,0,0,1-.21-.2v-.19A.18.18,0,0,1,5.86,11Z"/><path class="cls-1" d="M17.93,12.45a.18.18,0,0,1,.18.2l0,.19a.2.2,0,0,1-.21.19H6a.21.21,0,0,1-.21-.19v-.19a.18.18,0,0,1,.18-.2Z"/><path class="cls-1" d="M17.82,13.89a.17.17,0,0,1,.18.19v.19a.22.22,0,0,1-.21.2H6.12a.21.21,0,0,1-.21-.2l0-.19a.18.18,0,0,1,.18-.19Z"/><path class="cls-1" d="M17.71,15.32a.19.19,0,0,1,.19.2l0,.19a.22.22,0,0,1-.21.19H6.22A.22.22,0,0,1,6,15.71v-.19a.18.18,0,0,1,.18-.2Z"/><path class="cls-1" d="M17.61,16.75a.18.18,0,0,1,.18.2v.19a.22.22,0,0,1-.21.2H6.33a.22.22,0,0,1-.21-.2l0-.19a.19.19,0,0,1,.19-.2Z"/><path class="cls-1" d="M18.69,4.74l-.34,3.75a.22.22,0,0,1-.21.2H5.86a.22.22,0,0,1-.21-.2L5.31,4.73H18.67Z"/><path class="cls-1" d="M17.57,18.23a.18.18,0,0,1,.18.2l-.35,4.05a.22.22,0,0,1-.21.19H6.81a.22.22,0,0,1-.21-.19l-.35-4.05a.18.18,0,0,1,.18-.2Z"/></g></svg>