<svg xmlns="http://www.w3.org/2000/svg" viewBox="0 0 24 24"><defs><style>.cls-1{fill:#ec2227;}.cls-2{fill:#3a5d93;}.cls-3{fill:#010101;}</style></defs><title>buy me coffee</title><g id="Layer_2" data-name="Layer 2"><path class="cls-1" d="M19.49,4.29a.15.15,0,0,1-.15.19H4.66a.15.15,0,0,1-.15-.19l.23-.86A.25.25,0,0,1,5,3.24H5.5a.26.26,0,0,0,.24-.19L6,1.8a.24.24,0,0,1,.23-.19H17.78A.24.24,0,0,1,18,1.8l.25,1.25a.26.26,0,0,0,.24.19H19a.25.25,0,0,1,.24.19Z"/><path class="cls-2" d="M18.14,9.35a.17.17,0,0,1,.18.19v.19a.22.22,0,0,1-.21.2H5.8a.22.22,0,0,1-.21-.2l0-.19a.18.18,0,0,1,.18-.19Z"/><path class="cls-2" d="M18,10.78a.18.18,0,0,1,.18.19v.2a.22.22,0,0,1-.21.19H5.9a.22.22,0,0,1-.21-.19V11a.18.18,0,0,1,.18-.19Z"/><path class="cls-2" d="M17.93,12.21a.18.18,0,0,1,.18.2l0,.19a.21.21,0,0,1-.21.2H6a.22.22,0,0,1-.21-.2v-.19a.18.18,0,0,1,.18-.2Z"/><path class="cls-2" d="M17.82,13.65a.17.17,0,0,1,.18.19V14a.22.22,0,0,1-.21.2H6.12a.21.21,0,0,1-.21-.2l0-.19a.18.18,0,0,1,.18-.19Z"/><path class="cls-2" d="M17.71,15.08a.19.19,0,0,1,.19.2l0,.19a.21.21,0,0,1-.21.19H6.22A.21.21,0,0,1,6,15.47v-.19a.18.18,0,0,1,.18-.2Z"/><path class="cls-2" d="M17.61,16.51a.18.18,0,0,1,.18.2v.19a.22.22,0,0,1-.21.2H6.33a.22.22,0,0,1-.21-.2l0-.19a.19.19,0,0,1,.19-.2Z"/><path class="cls-3" d="M18.69,4.5l-.34,3.76a.22.22,0,0,1-.21.19H5.86a.22.22,0,0,1-.21-.19L5.31,4.5l0,0H18.67Z"/><path class="cls-3" d="M17.57,18a.18.18,0,0,1,.18.2l-.35,4a.22.22,0,0,1-.21.19H6.81a.22.22,0,0,1-.21-.19l-.35-4a.18.18,0,0,1,.18-.2Z"/></g></svg>