<svg xmlns="http://www.w3.org/2000/svg" viewBox="0 0 24 24"><defs><style>.cls-1{fill:#f5f6f6;}</style></defs><title>buy me coffee</title><g id="Layer_2" data-name="Layer 2"><path class="cls-1" d="M19.17,4.61a.14.14,0,0,1-.14.18H5a.14.14,0,0,1-.14-.18l.22-.83a.26.26,0,0,1,.24-.18h.5A.23.23,0,0,0,6,3.42l.24-1.2A.23.23,0,0,1,6.47,2H17.53a.23.23,0,0,1,.22.18L18,3.42a.23.23,0,0,0,.22.18h.5a.26.26,0,0,1,.24.18Z"/><path class="cls-1" d="M17.87,9.44a.18.18,0,0,1,.18.19l0,.18a.21.21,0,0,1-.2.19H6.07a.2.2,0,0,1-.2-.19l0-.18A.18.18,0,0,1,6,9.44Z"/><path class="cls-1" d="M17.77,10.81a.17.17,0,0,1,.17.19v.18a.21.21,0,0,1-.2.19H6.17a.2.2,0,0,1-.2-.19L6,11a.18.18,0,0,1,.18-.19Z"/><path class="cls-1" d="M17.67,12.19a.17.17,0,0,1,.17.18v.19a.2.2,0,0,1-.2.18H6.27a.2.2,0,0,1-.2-.18v-.19a.17.17,0,0,1,.17-.18Z"/><path class="cls-1" d="M17.57,13.56a.17.17,0,0,1,.17.18v.19a.2.2,0,0,1-.2.18H6.37a.2.2,0,0,1-.2-.18v-.19a.17.17,0,0,1,.17-.18Z"/><path class="cls-1" d="M17.47,14.93a.17.17,0,0,1,.17.19v.18a.21.21,0,0,1-.2.19h-11a.21.21,0,0,1-.2-.19v-.18a.17.17,0,0,1,.17-.19Z"/><path class="cls-1" d="M17.37,16.3a.17.17,0,0,1,.17.19v.18a.22.22,0,0,1-.21.19H6.57a.21.21,0,0,1-.2-.19v-.18a.17.17,0,0,1,.17-.19Z"/><path class="cls-1" d="M18.4,4.81,18.08,8.4a.22.22,0,0,1-.21.19H6.13a.22.22,0,0,1-.21-.19L5.6,4.8H18.38A0,0,0,0,1,18.4,4.81Z"/><path class="cls-1" d="M17.33,17.71a.17.17,0,0,1,.17.19l-.33,3.87A.21.21,0,0,1,17,22H7a.21.21,0,0,1-.21-.19L6.5,17.9a.17.17,0,0,1,.17-.19Z"/></g></svg>